<?xml version="1.0" encoding="UTF-8" standalone="no"?>
<svg
   xmlns:dc="http://purl.org/dc/elements/1.1/"
   xmlns:cc="http://creativecommons.org/ns#"
   xmlns:rdf="http://www.w3.org/1999/02/22-rdf-syntax-ns#"
   xmlns:svg="http://www.w3.org/2000/svg"
   xmlns="http://www.w3.org/2000/svg"
   xmlns:sodipodi="http://sodipodi.sourceforge.net/DTD/sodipodi-0.dtd"
   xmlns:inkscape="http://www.inkscape.org/namespaces/inkscape"
   viewBox="0 0 30 30"
   id="svg2"
   version="1.1"
   inkscape:version="0.91 r13725"
   sodipodi:docname="application.svg">
  <metadata
     id="metadata14">
    <rdf:RDF>
      <cc:Work
         rdf:about="">
        <dc:format>image/svg+xml</dc:format>
        <dc:type
           rdf:resource="http://purl.org/dc/dcmitype/StillImage" />
      </cc:Work>
    </rdf:RDF>
  </metadata>
  <defs
     id="defs12" />
  <sodipodi:namedview
     pagecolor="#ffffff"
     bordercolor="#666666"
     borderopacity="1"
     objecttolerance="10"
     gridtolerance="10"
     guidetolerance="10"
     inkscape:pageopacity="0"
     inkscape:pageshadow="2"
     inkscape:window-width="1877"
     inkscape:window-height="909"
     id="namedview10"
     showgrid="false"
     inkscape:zoom="2.4640759"
     inkscape:cx="-15.873932"
     inkscape:cy="89.799435"
     inkscape:window-x="0"
     inkscape:window-y="31"
     inkscape:window-maximized="0"
     inkscape:current-layer="g4164" />
  <switch
     id="switch4">
    <g
       id="g6">
      <path
         d="M 11.07,3 3,11.071 3,27 18.931,27 27,18.93 27,3 Z"
         id="path8"
         inkscape:connector-curvature="0"
         sodipodi:nodetypes="ccccccc" />
    </g>
  </switch>
  <g
     id="g4154"
     transform="translate(117.69118,65.338898)">
    <g
       id="g4160"
       transform="translate(-42.206493,58.845591)">
      <g
         id="g4164"
         transform="matrix(0.21397856,0,0,0.33357614,-69.636522,-71.231254)">
        <path
           sodipodi:nodetypes="cssssssscsscsssssssccsssssssssssssssssssssssscssssscssssccssssssssssss"
           inkscape:connector-curvature="0"
           id="path4148"
           d="m 53.378712,-101.30161 c -4.144146,-0.73347 -9.92159,-2.73252 -12.764823,-4.41674 -2.664232,-1.57818 -5.90719,-5.487 -7.173168,-8.64598 -1.473522,-3.6769 -1.351292,-8.12996 0.32826,-11.95911 1.245832,-2.84032 1.281146,-3.16006 0.481606,-4.36084 -1.384772,-2.07968 -0.685833,-6.18287 1.724672,-10.1249 1.108581,-1.81292 2.173048,-3.29622 2.365476,-3.29622 0.789233,0 5.776518,2.89859 7.648844,4.44547 l 2.00926,1.66001 3.550987,-0.85831 c 4.875528,-1.17848 14.651774,-1.18957 20.069939,-0.0227 l 3.880038,0.83556 2.905622,-2.31134 c 3.225043,-2.56541 5.012047,-3.23853 6.334587,-2.3861 1.443391,0.93033 3.457613,4.43613 4.174397,7.26566 0.586474,2.31512 0.551013,2.88086 -0.26421,4.21507 -0.863879,1.41382 -0.868078,1.67771 -0.05086,3.19669 3.60018,6.69173 1.459089,15.36768 -5.145852,20.8516 -5.100059,4.23446 -11.010793,6.06556 -20.541716,6.36366 -3.963827,0.12396 -7.128659,-0.0259 -9.533055,-0.45145 z m 14.619116,-1.57128 c 12.601028,-1.56063 20.876153,-9.1549 20.23662,-18.57161 -0.553957,-8.15657 -7.309733,-14.00912 -18.801277,-16.28758 -7.207808,-1.42911 -15.196153,-0.65553 -22.731633,2.20134 -15.276089,5.79149 -16.472472,22.72871 -2.109824,29.86876 5.691767,2.82953 14.553371,3.88547 23.406114,2.78909 z m -11.632045,-3.64975 c -0.95836,-0.33691 -2.998809,-1.4753 -4.534324,-2.52975 -1.535517,-1.05447 -4.028404,-2.40647 -5.539751,-3.00445 -5.065848,-2.00435 -7.040002,-6.18258 -5.219327,-11.04651 1.580227,-4.22157 6.234794,-8.08546 11.038623,-9.16348 7.099883,-1.59326 15.764086,-1.40186 20.709829,0.45754 4.977774,1.87143 9.883421,7.41753 9.857652,11.1446 -0.02487,3.59359 -3.928859,7.66932 -8.875607,9.26602 -1.172484,0.37846 -3.467276,1.70962 -5.099546,2.95815 -2.920564,2.23394 -3.028416,2.27211 -6.781415,2.40026 -2.395564,0.0818 -4.461584,-0.0975 -5.556134,-0.48238 z m 3.831303,-5.43812 c 0.846022,-0.56333 1.144658,-0.53708 2.543031,0.22358 0.871446,0.47403 1.902323,0.77482 2.290842,0.66843 1.173925,-0.32147 0.795567,-1.26449 -0.722911,-1.80182 -0.786118,-0.27817 -1.656603,-0.95174 -1.934411,-1.49682 -0.403431,-0.79155 -0.234026,-1.16825 0.841591,-1.87131 1.926386,-1.25918 1.053969,-2.06406 -2.049948,-1.89125 -1.827806,0.10178 -2.531599,0.34067 -2.669742,0.90625 -0.114247,0.46775 0.160031,0.76805 0.701526,0.76805 0.607362,0 0.889112,0.40936 0.889112,1.29183 0,0.96996 -0.422431,1.48564 -1.695353,2.06961 -1.61678,0.74172 -2.092689,1.45029 -1.357544,2.02122 0.440424,0.34205 1.955218,-0.0831 3.163807,-0.88777 z m -6.689696,-6.3096 c 1.330416,-1.13487 1.559578,-1.64529 1.298866,-2.89301 -0.411378,-1.96873 -1.182385,-2.64363 -3.616298,-3.16556 -2.492943,-0.53458 -4.832758,0.29552 -6.069841,2.15341 -1.095934,1.64589 -1.082941,2.64099 0.05091,3.89819 1.994781,2.21178 5.74799,2.21493 8.336371,0.006 z m -4.533243,-0.48448 c -1.434443,-0.50957 -1.893545,-1.53232 -1.27282,-2.8355 0.833962,-1.75083 4.369967,-1.67873 5.25236,0.10707 0.803315,1.6258 -1.888405,3.47125 -3.97954,2.7284 z m 27.543919,0.57741 c 3.4234,-2.6587 1.040671,-6.17815 -4.182704,-6.17815 -2.411256,0 -4.159877,1.00601 -4.628445,2.66283 -1.13894,4.02724 4.998897,6.476 8.811149,3.51532 z m -6.483406,-1.41828 c -1.062145,-1.1777 -0.347383,-2.41856 1.749831,-3.03782 2.754623,-0.81335 4.717459,1.71715 2.526417,3.2571 -1.426685,1.00273 -3.258872,0.90878 -4.276248,-0.21928 z"
           style="fill:#ffffff;fill-opacity:1" />
      </g>
    </g>
  </g>
</svg>
