<?xml version="1.0" encoding="UTF-8" standalone="no"?>
<svg
   xmlns:dc="http://purl.org/dc/elements/1.1/"
   xmlns:cc="http://creativecommons.org/ns#"
   xmlns:rdf="http://www.w3.org/1999/02/22-rdf-syntax-ns#"
   xmlns:svg="http://www.w3.org/2000/svg"
   xmlns="http://www.w3.org/2000/svg"
   xmlns:sodipodi="http://sodipodi.sourceforge.net/DTD/sodipodi-0.dtd"
   xmlns:inkscape="http://www.inkscape.org/namespaces/inkscape"
   version="1.1"
   id="svg2"
   viewBox="0 0 30 30"
   inkscape:version="0.91 r13725"
   sodipodi:docname="category_experimental.svg">
  <sodipodi:namedview
     pagecolor="#ffffff"
     bordercolor="#666666"
     borderopacity="1"
     objecttolerance="10"
     gridtolerance="10"
     guidetolerance="10"
     inkscape:pageopacity="0"
     inkscape:pageshadow="2"
     inkscape:window-width="1920"
     inkscape:window-height="1137"
     id="namedview13"
     showgrid="false"
     inkscape:zoom="1.3906433"
     inkscape:cx="15"
     inkscape:cy="15"
     inkscape:window-x="-8"
     inkscape:window-y="-8"
     inkscape:window-maximized="1"
     inkscape:current-layer="svg2" />
  <metadata
     id="metadata14">
    <rdf:RDF>
      <cc:Work
         rdf:about="">
        <dc:format>image/svg+xml</dc:format>
        <dc:type
           rdf:resource="http://purl.org/dc/dcmitype/StillImage" />
        <dc:title />
      </cc:Work>
    </rdf:RDF>
  </metadata>
  <defs
     id="defs12" />
  <path
     style="fill:#000000"
     d="M 12.328589,26.906898 C 11.030206,26.663764 8.798489,25.796441 7.469764,25.018584 4.9109,23.520587 2.97624,20.46961 2.809017,17.668559 2.679,15.490674 3.062592,13.47047 4.376904,9.4112999 5.513701,5.9003583 6.756074,3.3888037 7.556586,2.983304 8.322858,2.5951567 9.068948,2.958579 10.874195,4.5993081 l 1.670124,1.5179165 3.6554,0.00318 3.655402,0.00318 0.676124,-1.1749396 c 0.84055,-1.4606747 2.158748,-2.7343148 2.7246,-2.6324963 0.722298,0.1299709 2.030562,2.2805121 3.422796,5.6264155 1.65717,3.9826368 2.12617,5.8408828 2.13111,8.4439538 0.006,2.975658 -0.65249,4.472966 -2.90482,6.608577 -3.375348,3.200418 -8.889889,4.789325 -13.576342,3.911755 z m 6.288257,-1.218519 c 4.688926,-1.135057 7.785085,-3.589777 8.917725,-7.070224 0.71194,-2.187704 0.54424,-3.737716 -0.84107,-7.773585 -1.040629,-3.0317103 -3.204667,-7.584724 -3.605004,-7.584724 -0.119614,0 -0.808958,0.8455138 -1.531873,1.87892 L 20.242238,7.0176882 16.174404,7.0533342 12.106577,7.0889812 10.287462,5.298924 C 9.286951,4.3143922 8.374366,3.5088664 8.259505,3.5088664 c -0.456679,0 -1.676113,2.4398486 -2.633223,5.2685612 -2.11111,6.2393154 -2.304399,9.0976374 -0.809547,11.9716254 0.980757,1.885596 2.052111,2.870041 4.283864,3.936346 3.125798,1.493462 6.166252,1.813912 9.516247,1.00298 z m -3.860441,-4.641045 c -0.227396,-0.215226 -0.413447,-0.49538 -0.413447,-0.622561 0,-0.12718 -0.465132,-0.231237 -1.033619,-0.231237 -1.108699,0 -1.939958,-0.548286 -1.807888,-1.192458 0.124603,-0.607753 0.654552,-0.625832 0.819737,-0.02797 0.131282,0.475174 0.275359,0.524125 1.151688,0.391293 0.570407,-0.08646 1.208655,-0.391662 1.482484,-0.708909 0.434129,-0.502943 0.440515,-0.585004 0.06577,-0.844356 -0.609767,-0.422016 -0.507385,-0.834042 0.277427,-1.11646 1.289416,-0.464001 2.241178,0.373508 1.365917,1.201939 -0.237278,0.224579 -0.197057,0.410556 0.172329,0.79688 0.623194,0.651779 1.819018,0.645543 2.467089,-0.01285 0.328656,-0.333889 0.571083,-0.421234 0.684996,-0.246795 0.494054,0.756613 -0.706663,1.75968 -2.106423,1.75968 -0.354957,0 -0.645384,0.104054 -0.645384,0.231237 0,0.434946 -0.826292,1.013886 -1.447067,1.013886 -0.341096,0 -0.806228,-0.176095 -1.033612,-0.391326 z m 1.597516,-0.732457 c 0.084,-0.207189 0.0014,-0.548997 -0.182982,-0.759572 -0.295637,-0.337164 -0.381959,-0.33909 -0.723174,-0.01614 -0.457774,0.433277 -0.244194,1.152419 0.342259,1.152419 0.22614,0 0.479899,-0.16952 0.563897,-0.376706 z M 7.389511,15.817813 C 6.826696,15.285114 6.870362,14.660316 7.525502,13.87201 c 1.90117,-2.28762 5.629585,-1.674939 6.359136,1.044981 0.200191,0.746375 -0.248307,0.901422 -1.606321,0.555315 -0.895935,-0.228341 -1.310921,-0.191014 -2.583709,0.232399 -1.820248,0.605532 -1.786581,0.603878 -2.305097,0.113105 z m 2.073653,-0.893772 c 0.368576,-0.158948 0.670135,-0.47272 0.670135,-0.69727 0,-0.224548 0.142075,-0.542745 0.315728,-0.707101 0.532289,-0.503807 -0.597746,-0.361971 -1.565466,0.19649 -0.509246,0.29388 -0.855089,0.696376 -0.855089,0.995168 0,0.567718 0.455046,0.635186 1.434692,0.212713 z m 9.264851,1.11908 c -0.772459,-0.73112 0.622378,-2.671133 2.211734,-3.076202 1.967274,-0.501387 4.34735,0.710994 4.136373,2.107012 -0.07005,0.463291 -0.272887,0.515997 -2.107232,0.547472 -1.116358,0.01915 -2.406789,0.159231 -2.867617,0.31128 -0.975453,0.321847 -1.136238,0.334779 -1.373258,0.110438 z m 2.051912,-1.102923 c 0.805,-0.191858 1.187923,-0.428862 1.290041,-0.798457 0.197166,-0.713622 0.06975,-0.775627 -0.921583,-0.448534 -0.897458,0.296117 -1.806468,0.955001 -1.806468,1.309403 0,0.26817 0.06224,0.265468 1.43801,-0.06242 z M 6.888357,10.066524 C 6.28811,9.4983917 7.65883,5.0030201 8.432311,5.0030201 c 0.6775,0 2.490302,2.1382371 2.490302,2.9373601 0,0.3855126 -0.442708,0.7589408 -1.669682,1.408387 C 7.546992,10.251731 7.196457,10.358137 6.888357,10.066524 Z M 22.564942,8.8657268 C 21.711487,8.4967414 21.183649,8.1114853 21.183649,7.8575592 c 0,-0.5873746 1.650884,-3.1218378 1.96968,-3.023886 0.483364,0.1485134 1.528644,2.5159877 1.55569,3.5234923 0.03303,1.2310271 -0.293754,1.3085383 -2.144077,0.5085613 z"
     id="path4152"
     inkscape:connector-curvature="0"
     sodipodi:nodetypes="cssssscccssscsccssssscccsssssscssssscssssscssscccsscsssssssscssssscssssssssssssssssss" />
</svg>
