<?xml version="1.0" encoding="UTF-8" standalone="no"?>
<svg
   xmlns:dc="http://purl.org/dc/elements/1.1/"
   xmlns:cc="http://creativecommons.org/ns#"
   xmlns:rdf="http://www.w3.org/1999/02/22-rdf-syntax-ns#"
   xmlns:svg="http://www.w3.org/2000/svg"
   xmlns="http://www.w3.org/2000/svg"
   xmlns:sodipodi="http://sodipodi.sourceforge.net/DTD/sodipodi-0.dtd"
   xmlns:inkscape="http://www.inkscape.org/namespaces/inkscape"
   version="1.1"
   id="svg2"
   viewBox="0 0 30 30"
   inkscape:version="0.91 r13725"
   sodipodi:docname="category_support.svg">
  <sodipodi:namedview
     pagecolor="#ffffff"
     bordercolor="#666666"
     borderopacity="1"
     objecttolerance="10"
     gridtolerance="10"
     guidetolerance="10"
     inkscape:pageopacity="0"
     inkscape:pageshadow="2"
     inkscape:window-width="1920"
     inkscape:window-height="1137"
     id="namedview9"
     showgrid="false"
     inkscape:zoom="1.3906433"
     inkscape:cx="15"
     inkscape:cy="15"
     inkscape:window-x="-8"
     inkscape:window-y="-8"
     inkscape:window-maximized="1"
     inkscape:current-layer="svg2" />
  <metadata
     id="metadata16">
    <rdf:RDF>
      <cc:Work
         rdf:about="">
        <dc:format>image/svg+xml</dc:format>
        <dc:type
           rdf:resource="http://purl.org/dc/dcmitype/StillImage" />
        <dc:title />
      </cc:Work>
    </rdf:RDF>
  </metadata>
  <defs
     id="defs14" />
  <path
     style="fill:#000000"
     d="M 11.358154,29.844131 C 7.2437892,28.69958 4.0549009,26.210049 2.7042558,23.088126 0.0631139,16.983322 1.1929274,7.0795099 5.0395514,2.6171641 5.6721245,1.883338 6.3698212,1.2829321 6.5899901,1.2829321 c 0.5437702,0 2.6586226,2.5630181 3.5215519,4.2678158 l 0.702598,1.388053 4.45868,-0.08346 4.458681,-0.08346 0.885465,-1.856063 C 21.10397,3.8949854 22.142317,2.4055615 22.924399,1.6059895 l 1.421974,-1.45376723 0.642631,0.8076485 c 0.955312,1.20061783 2.893412,5.68780013 3.469265,8.03221613 1.150527,4.6840121 0.831796,10.4693791 -0.774041,14.0498071 -0.880302,1.962754 -3.024111,4.452124 -4.743627,5.508247 -2.849542,1.750187 -7.910171,2.31556 -11.582447,1.293988 z m 9.399278,-1.761591 c 1.332603,-0.531591 2.352209,-1.266137 3.659924,-2.636691 0.996993,-1.0449 1.72299,-1.993851 1.613328,-2.108783 -0.109662,-0.114932 -0.855005,-0.261255 -1.656316,-0.325162 -3.273317,-0.261062 -5.920196,-2.474044 -6.986973,-5.841622 -0.538644,-1.700371 -1.073429,-5.580185 -1.087762,-7.8916291 -0.01504,-2.427449 -0.519283,-1.785459 -0.756994,0.9638181 -0.296254,3.426384 -0.973283,6.631663 -1.72844,8.18302 -1.561132,3.20711 -5.1173679,5.369282 -8.2841489,5.036719 L 3.863285,23.28717 5.3759264,24.910998 c 2.7512479,2.953487 6.1361206,4.219708 10.7600636,4.025146 1.922824,-0.0809 3.341135,-0.342876 4.621442,-0.853604 z m -8.367117,-4.043501 c -0.964226,-1.010559 -0.764667,-1.365686 0.340835,-0.606525 1.62452,1.115572 3.119622,-0.665325 1.821062,-2.169166 -0.671114,-0.777207 -0.08236,-1.566031 1.168825,-1.566031 1.085151,0 1.456053,0.766591 0.760585,1.572004 -0.274864,0.318317 -0.499755,0.891638 -0.499755,1.27405 0,0.851035 1.253393,1.271823 2.299862,0.772108 0.619374,-0.295767 0.693603,-0.26215 0.564414,0.255608 -0.220517,0.883784 -1.70914,1.447141 -2.561155,0.969246 -0.490003,-0.274843 -0.770785,-0.282331 -1.014359,-0.02704 -0.603552,0.632553 -2.051782,0.394103 -2.880314,-0.474242 z m -1.352418,-4.725697 c 0.610783,-0.687099 0.863435,-1.879605 0.397319,-1.875311 -0.127152,0.0013 -0.64732,0.290967 -1.155928,0.64399 -0.986448,0.684688 -2.4598003,0.856262 -2.7742282,0.323059 -0.3376697,-0.572616 -1.0788663,-0.343519 -1.0788663,0.333468 0,1.362497 3.5213519,1.801389 4.6117035,0.574794 z m 12.889817,-0.118931 c 1.213494,-0.890807 0.877014,-1.391843 -0.683388,-1.017614 -1.132458,0.271596 -1.506094,0.233691 -2.16644,-0.219774 -1.266608,-0.869793 -1.910232,-0.0356 -0.886902,1.149503 0.64101,0.742345 2.77677,0.792574 3.73673,0.08788 z"
     id="path4150"
     inkscape:connector-curvature="0"
     sodipodi:nodetypes="ssssscccsscsssssssssssssscssscsssssssscccscsssssssss" />
</svg>
