<?xml version="1.0" encoding="UTF-8" standalone="no"?>
<svg
   xmlns:dc="http://purl.org/dc/elements/1.1/"
   xmlns:cc="http://creativecommons.org/ns#"
   xmlns:rdf="http://www.w3.org/1999/02/22-rdf-syntax-ns#"
   xmlns:svg="http://www.w3.org/2000/svg"
   xmlns="http://www.w3.org/2000/svg"
   xmlns:sodipodi="http://sodipodi.sourceforge.net/DTD/sodipodi-0.dtd"
   xmlns:inkscape="http://www.inkscape.org/namespaces/inkscape"
   version="1.1"
   id="svg2"
   viewBox="0 0 30 30"
   inkscape:version="0.91 r13725"
   sodipodi:docname="category_shell.svg">
  <sodipodi:namedview
     pagecolor="#ffffff"
     bordercolor="#666666"
     borderopacity="1"
     objecttolerance="10"
     gridtolerance="10"
     guidetolerance="10"
     inkscape:pageopacity="0"
     inkscape:pageshadow="2"
     inkscape:window-width="1920"
     inkscape:window-height="1137"
     id="namedview9"
     showgrid="false"
     inkscape:zoom="5.5625733"
     inkscape:cx="-14.412246"
     inkscape:cy="36.834111"
     inkscape:window-x="-8"
     inkscape:window-y="-8"
     inkscape:window-maximized="1"
     inkscape:current-layer="svg2" />
  <metadata
     id="metadata14">
    <rdf:RDF>
      <cc:Work
         rdf:about="">
        <dc:format>image/svg+xml</dc:format>
        <dc:type
           rdf:resource="http://purl.org/dc/dcmitype/StillImage" />
        <dc:title />
      </cc:Work>
    </rdf:RDF>
  </metadata>
  <defs
     id="defs12" />
  <path
     style="fill:#000000"
     d="M 11.299212,28.170305 C 7.1941969,27.109915 4.0125549,24.803445 2.664979,21.911083 0.02983827,16.255177 1.157085,7.0796135 4.9949678,2.9453935 5.6261037,2.2655272 6.3222149,1.7092704 6.5418834,1.7092704 c 0.5425345,0 2.6525812,2.3745535 3.5135496,3.9539936 l 0.701002,1.2859869 4.448548,-0.077321 4.448549,-0.077321 0.883453,-1.719584 c 0.485896,-0.9457691 1.521884,-2.325672 2.302189,-3.0664498 l 1.418743,-1.34686871 0.64117,0.74826031 c 0.953141,1.1123341 2.886838,5.2695645 3.461382,7.4415902 1.147913,4.3395867 0.829906,9.6995447 -0.772281,13.0166967 -0.878303,1.818428 -3.017241,4.124749 -4.732849,5.103213 -2.843066,1.621492 -7.892196,2.145293 -11.556127,1.198839 z m 9.37792,-1.632057 c 1.329574,-0.492503 2.346862,-1.173036 3.651607,-2.44281 0.994728,-0.968067 1.719075,-1.84724 1.609661,-1.95372 -0.109408,-0.106481 -0.853061,-0.242044 -1.652551,-0.301253 -3.26588,-0.241865 -5.906744,-2.292122 -6.971096,-5.412074 -0.537421,-1.57534 -1.070989,-5.169864 -1.085291,-7.3113432 -0.01501,-2.2489529 -0.518103,-1.6541699 -0.755274,0.8929472 -0.29558,3.174435 -0.971071,6.144023 -1.724511,7.581305 -1.557585,2.971286 -5.1057401,4.974468 -8.2653249,4.666359 L 3.8213743,22.09549 5.3305786,23.599916 c 2.744996,2.73631 6.1221764,3.909424 10.7356134,3.729168 1.918453,-0.07495 3.333542,-0.317664 4.61094,-0.790836 z m -8.348104,-3.746175 c -0.962035,-0.93625 -0.76293,-1.265263 0.34006,-0.561926 1.620828,1.033543 3.112534,-0.616402 1.816924,-2.009662 -0.669589,-0.720058 -0.08218,-1.450878 1.166169,-1.450878 1.082685,0 1.452744,0.710222 0.758857,1.456412 -0.274239,0.29491 -0.49862,0.826073 -0.49862,1.180366 0,0.788457 1.250545,1.178303 2.294636,0.715333 0.617967,-0.274019 0.692027,-0.242873 0.563131,0.236812 -0.220016,0.818798 -1.705256,1.340731 -2.555334,0.897976 -0.488889,-0.254632 -0.769034,-0.261571 -1.012055,-0.02505 -0.60218,0.58604 -2.04712,0.365123 -2.873768,-0.43937 z m -1.349345,-4.378206 c 0.609395,-0.636575 0.861473,-1.741395 0.396416,-1.737417 -0.126863,0.0012 -0.645849,0.269572 -1.153302,0.596637 -0.9842056,0.634341 -2.4542098,0.7933 -2.7679232,0.299304 -0.3369024,-0.530511 -1.0764147,-0.318259 -1.0764147,0.308948 0,1.262308 3.51335,1.668928 4.6012239,0.532528 z m 12.860526,-0.110186 c 1.210736,-0.825305 0.875021,-1.289498 -0.681835,-0.942788 -1.129884,0.251625 -1.502672,0.216507 -2.161517,-0.203613 -1.26373,-0.805835 -1.90589,-0.03298 -0.884887,1.064978 0.639553,0.687759 2.770461,0.734295 3.728239,0.08142 z"
     id="path4148"
     inkscape:connector-curvature="0"
     sodipodi:nodetypes="ssssscccsscsssssssssssssscssscsssssssscccscsssssssss" />
</svg>
