<?xml version="1.0" encoding="UTF-8" standalone="no"?>
<svg
   xmlns:dc="http://purl.org/dc/elements/1.1/"
   xmlns:cc="http://creativecommons.org/ns#"
   xmlns:rdf="http://www.w3.org/1999/02/22-rdf-syntax-ns#"
   xmlns:svg="http://www.w3.org/2000/svg"
   xmlns="http://www.w3.org/2000/svg"
   xmlns:sodipodi="http://sodipodi.sourceforge.net/DTD/sodipodi-0.dtd"
   xmlns:inkscape="http://www.inkscape.org/namespaces/inkscape"
   version="1.1"
   id="svg2"
   viewBox="0 0 30 30"
   inkscape:version="0.91 r13725"
   sodipodi:docname="category_cool.svg">
  <sodipodi:namedview
     pagecolor="#ffffff"
     bordercolor="#666666"
     borderopacity="1"
     objecttolerance="10"
     gridtolerance="10"
     guidetolerance="10"
     inkscape:pageopacity="0"
     inkscape:pageshadow="2"
     inkscape:window-width="1920"
     inkscape:window-height="1137"
     id="namedview19"
     showgrid="false"
     inkscape:zoom="1.3906433"
     inkscape:cx="117.8301"
     inkscape:cy="132.93103"
     inkscape:window-x="-8"
     inkscape:window-y="-8"
     inkscape:window-maximized="1"
     inkscape:current-layer="svg2" />
  <metadata
     id="metadata14">
    <rdf:RDF>
      <cc:Work
         rdf:about="">
        <dc:format>image/svg+xml</dc:format>
        <dc:type
           rdf:resource="http://purl.org/dc/dcmitype/StillImage" />
        <dc:title />
      </cc:Work>
    </rdf:RDF>
  </metadata>
  <defs
     id="defs12" />
  <path
     style="fill:#000000"
     d="M 11.712772,29.832045 C 7.5889506,28.898137 4.2479045,26.6958 2.6206015,23.838705 0.17248246,19.540483 0.56095646,14.094922 3.5977265,10.141468 c 0.890517,-1.159326 0.973663,-1.4787454 0.973663,-3.7404296 0,-3.119135 0.424202,-4.3225087 1.5237378,-4.3225087 1.1014047,0 2.6762593,0.7518773 4.0611007,1.9388819 1.068242,0.9156322 1.247235,0.9704188 2.292874,0.7018128 1.494597,-0.3839411 6.382357,-0.3701123 7.96093,0.022524 1.185023,0.2947454 1.315453,0.2566332 2.55537,-0.7467234 1.584978,-1.2825875 3.468859,-2.1388695 3.854612,-1.7520387 0.784247,0.786439 1.357472,2.9557706 1.357472,5.137266 0,1.9299954 0.147889,2.614567 0.822388,3.8068014 1.78643,3.15767 2.305142,7.42489 1.286971,10.587323 -0.592605,1.840621 -2.679348,4.737003 -4.297772,5.965274 -2.09408,1.589262 -4.766064,2.326623 -8.794979,2.427066 -2.376632,0.05925 -4.245825,-0.05487 -5.481322,-0.334672 z m 9.087809,-1.134333 c 5.080835,-1.212691 7.849716,-4.033055 8.721682,-8.883845 0.46166,-2.568235 -0.132,-5.628031 -1.659043,-8.550905 C 27.03285,9.6735678 26.863561,8.9790702 26.85125,7.1113264 26.84315,5.8777021 26.655778,4.4894588 26.434947,4.026342 l -0.401514,-0.8420303 -1.63284,1.1128888 c -0.898061,0.6120914 -1.780375,1.284141 -1.960699,1.4934497 -0.24253,0.2815157 -0.669187,0.312618 -1.639313,0.1195051 C 18.215097,5.395494 15.189134,5.2705824 13.000661,5.5881752 L 10.774407,5.9112536 9.2302432,4.764226 C 7.0149192,3.1186506 6.3349259,2.8447997 6.0384693,3.4788281 5.9076883,3.758526 5.769232,5.1879649 5.7307901,6.6553575 5.6657351,9.1383379 5.5866323,9.4200181 4.5900645,10.717412 c -3.447018,4.487541 -3.267133,10.287641 0.445618,14.368118 2.4492701,2.691854 5.9744405,3.969405 11.0108935,3.990441 1.713081,0.0072 3.852384,-0.163062 4.754005,-0.378259 z M 4.5713895,20.924447 c 0,-0.402043 1.4141268,-1.459616 2.3983469,-1.793634 1.2738342,-0.432305 1.8638654,-0.392014 1.8638654,0.127273 0,0.242276 -0.1963011,0.440502 -0.4362276,0.440502 -0.2399265,0 -1.1620397,0.329823 -2.0491404,0.732938 -1.8333313,0.833106 -1.7768443,0.817433 -1.7768443,0.492921 z M 26.538174,19.829102 c -0.631135,-0.208724 -1.470771,-0.389553 -1.865858,-0.40184 -0.8542,-0.02658 -1.293949,-0.539902 -0.823489,-0.961294 0.399307,-0.357661 3.416887,0.455598 3.991486,1.075736 0.549382,0.592927 -0.007,0.715724 -1.302139,0.287398 z M 12.541182,19.054146 c -0.395212,-0.171065 -0.805778,-0.514594 -0.912372,-0.763401 -0.285169,-0.66563 0.306672,-1.045598 0.799748,-0.513443 0.84002,0.906599 2.962293,0.319017 2.962293,-0.820155 0,-0.365807 -0.167128,-0.814801 -0.371396,-0.997765 -0.204268,-0.182964 -0.28267,-0.53977 -0.174223,-0.792903 0.259349,-0.605357 1.975162,-0.599983 2.538452,0.008 0.368183,0.397362 0.329492,0.541755 -0.255726,0.95442 -1.417579,0.999594 0.506741,2.618097 2.166705,1.822366 0.973821,-0.466817 0.93771,0.381639 -0.04242,0.996546 -0.917765,0.575783 -2.022062,0.586372 -2.54278,0.02437 -0.353249,-0.381245 -0.512222,-0.381245 -1.335315,0 -1.077303,0.498991 -1.819915,0.520485 -2.832971,0.08199 z M 3.6057435,18.064051 c 1.00918,-1.089163 4.5061116,-1.874061 4.1659281,-0.935055 -0.1374432,0.379383 -2.8944811,1.329818 -3.9781161,1.371378 -0.520613,0.01997 -0.549153,-0.04634 -0.187812,-0.436323 z M 27.35783,17.936582 c -0.360649,-0.138814 -1.282762,-0.261676 -2.04914,-0.273026 -1.009773,-0.01495 -1.393415,-0.141924 -1.393415,-0.461143 0,-0.303917 0.340642,-0.440502 1.098595,-0.440502 1.498934,0 3.163616,0.55596 3.163616,1.056566 0,0.226474 -0.03688,0.402484 -0.08196,0.39113 -0.04508,-0.01136 -0.377042,-0.134212 -0.737691,-0.273025 z M 7.5221519,13.729591 c 0,-0.463637 1.2217205,-1.498093 2.0991788,-1.777418 0.8787963,-0.279751 2.7561233,0.338508 3.1795113,1.047107 0.590202,0.987784 -0.115653,1.229346 -1.482099,0.507208 L 10.10101,12.862942 9.1527201,13.490924 C 8.0665347,14.210219 7.5221519,14.289903 7.5221519,13.729591 Z M 19.096307,13.63266 c -0.30568,-0.713504 1.050831,-1.569431 2.487302,-1.569431 1.32,0 2.659528,0.673991 2.659528,1.338156 0,0.480922 -0.839773,0.576193 -1.147518,0.130183 -0.302486,-0.438387 -1.916104,-0.354419 -2.642201,0.137495 -0.829728,0.562121 -1.103844,0.554767 -1.357111,-0.0364 z"
     id="path4184"
     inkscape:connector-curvature="0"
     sodipodi:nodetypes="ssssssssssssssssssssscsssscsssssssssssssscssscsssssssssssccssssssssscssssscssssssss" />
  <path
     style="fill:#000000"
     d="m 5.7054398,19.405381 c -0.4179492,-0.02435 -0.7881613,-0.07525 -0.9295423,-0.12781 -0.507108,-0.188514 -1.10472,-0.773427 -1.35582,-1.327011 -0.290407,-0.640236 -0.286191,-0.579197 -0.283791,-4.109945 l 0.0023,-3.215881 -1.108083,-0.02702 C 1.0059755,10.572726 0.91472146,10.562562 0.82032046,10.462765 0.55470546,10.181966 0.50566746,9.6946654 0.71396546,9.4058165 0.93730846,9.0960999 1.0018115,9.084826 2.5506305,9.084826 l 1.409157,0 0.235526,-0.184943 c 0.129539,-0.1017177 0.355636,-0.241524 0.502439,-0.3106828 l 0.26691,-0.1257396 3.9591294,0 3.9591261,0 0.285791,0.1430866 c 0.157187,0.078697 0.379734,0.2185063 0.494551,0.3106827 l 0.208763,0.1675961 2.224337,0 2.22434,0 0.282314,-0.2129183 C 19.17882,8.4376525 18.881917,8.4634601 23.30167,8.4634601 l 3.935976,0 0.266912,0.1257396 c 0.146801,0.069159 0.372898,0.2089651 0.502437,0.3106828 l 0.235529,0.184943 1.501765,0 c 1.649515,0 1.704389,0.00913 1.929277,0.3209905 0.208301,0.2888518 0.159259,0.776167 -0.106365,1.056948 -0.09502,0.10044 -0.185551,0.109814 -1.30349,0.134952 l -1.201383,0.02702 0.0033,3.214889 c 0.0026,2.801236 -0.0064,3.253126 -0.07126,3.512065 -0.247254,0.987213 -0.99239,1.793942 -1.849216,2.00207 -0.197485,0.04797 -0.91392,0.06903 -2.477348,0.07282 -1.881521,0.0046 -2.268064,-0.0081 -2.673656,-0.08772 -1.43447,-0.281496 -2.260575,-0.707317 -2.954129,-1.522705 -0.544734,-0.640428 -0.909146,-1.514497 -1.196072,-2.868877 -0.09772,-0.461252 -0.260916,-1.585465 -0.260916,-1.797343 0,-0.05159 -0.335846,-0.06675 -1.478446,-0.06675 l -1.478447,0 -0.03039,0.310683 c -0.107322,1.096875 -0.453283,2.58939 -0.772555,3.332901 -0.628024,1.462524 -1.704534,2.245612 -3.579586,2.603904 -0.526849,0.100672 -3.3067949,0.146443 -4.5379479,0.07472 z m 3.437415,-7.931008 -0.1471185,-0.177114 -1.8753766,2.188288 -1.8753765,2.188284 0.1502725,0.180909 0.1502692,0.180908 1.8722225,-2.192082 1.8722258,-2.192082 -0.1471184,-0.177111 z m 14.4503022,0.0036 c -0.08049,-0.0969 -0.152309,-0.170468 -0.159594,-0.163484 -0.0073,0.007 -0.858928,0.994957 -1.89254,2.1955 l -1.879291,2.182796 0.151544,0.182444 0.151548,0.182444 1.887337,-2.201755 1.887343,-2.201756 -0.146347,-0.176186 z M 10.034673,13.650899 11.909283,11.463005 11.758932,11.287571 11.60858,11.112134 9.7235615,13.311672 7.8385424,15.511213 7.9730218,15.675 c 0.073966,0.09009 0.1463086,0.16379 0.1607608,0.16379 0.014459,0 0.8698552,-0.984549 1.9008904,-2.187891 z m 14.431853,-0.03757 1.859547,-2.170941 -0.145426,-0.179904 -0.145424,-0.179904 -1.886789,2.201113 -1.886786,2.201109 0.146348,0.176185 c 0.08049,0.0969 0.15819,0.164281 0.172666,0.149733 0.01449,-0.01454 0.863114,-1.003377 1.885864,-2.197391 z m -6.975805,-2.353729 c 2.53e-4,-0.14116 0.01341,-0.347829 0.02921,-0.45927 l 0.02869,-0.202619 -1.447827,0 -1.447824,0 0.02944,0.250684 c 0.0162,0.137877 0.02944,0.344548 0.02944,0.45927 l 0,0.208586 1.389166,0 1.389166,0 6.56e-4,-0.256651 z"
     id="path4182"
     inkscape:connector-curvature="0" />
</svg>
