<?xml version="1.0" encoding="UTF-8" standalone="no"?>
<svg
   xmlns:dc="http://purl.org/dc/elements/1.1/"
   xmlns:cc="http://creativecommons.org/ns#"
   xmlns:rdf="http://www.w3.org/1999/02/22-rdf-syntax-ns#"
   xmlns:svg="http://www.w3.org/2000/svg"
   xmlns="http://www.w3.org/2000/svg"
   xmlns:sodipodi="http://sodipodi.sourceforge.net/DTD/sodipodi-0.dtd"
   xmlns:inkscape="http://www.inkscape.org/namespaces/inkscape"
   viewBox="0 0 30 30"
   id="svg2"
   version="1.1"
   inkscape:version="0.91 r13725"
   sodipodi:docname="category_adhesion.svg">
  <metadata
     id="metadata16">
    <rdf:RDF>
      <cc:Work
         rdf:about="">
        <dc:format>image/svg+xml</dc:format>
        <dc:type
           rdf:resource="http://purl.org/dc/dcmitype/StillImage" />
      </cc:Work>
    </rdf:RDF>
  </metadata>
  <defs
     id="defs14" />
  <sodipodi:namedview
     pagecolor="#ffffff"
     bordercolor="#666666"
     borderopacity="1"
     objecttolerance="10"
     gridtolerance="10"
     guidetolerance="10"
     inkscape:pageopacity="0"
     inkscape:pageshadow="2"
     inkscape:window-width="1920"
     inkscape:window-height="1137"
     id="namedview12"
     showgrid="false"
     inkscape:zoom="7.8666667"
     inkscape:cx="15"
     inkscape:cy="15"
     inkscape:window-x="-8"
     inkscape:window-y="-8"
     inkscape:window-maximized="1"
     inkscape:current-layer="svg2" />
  <path
     style="fill:#000000"
     d="M 10.908202,27.730583 C 8.5877311,27.199778 6.8770852,26.384484 5.5739493,25.188275 L 4.5753398,24.271608 3.3821767,24.750761 c -1.0662006,0.42817 -1.2408902,0.431258 -1.64166,0.02901 -0.4007674,-0.402232 -0.2993144,-0.51431 0.9534231,-1.053259 1.6184794,-0.69628 1.5545354,-1.201746 -0.1520309,-1.201746 -1.2291252,0 -2.32975185,-0.417146 -2.32975185,-0.882994 0,-0.147551 0.59906064,-0.358437 1.33124655,-0.468636 1.7437813,-0.262451 1.7928719,-0.955943 0.076508,-1.080834 C 0.72556883,20.027222 0.33807886,19.857545 0.27083879,19.501548 0.20042729,19.128744 0.4248226,18.978167 1.1557836,18.907721 l 0.9792822,-0.09438 -0.099483,-3.859875 C 1.8892163,9.2743897 3.0364933,2.3371625 4.3381121,1.0307875 L 4.9397079,0.42699301 6.1485888,1.603504 c 0.6648839,0.6470814 1.9027795,2.2153134 2.7508784,3.4849602 l 1.5419938,2.3084463 4.719582,0.03494 4.719583,0.03494 0.889695,-1.5118748 c 1.256055,-2.1344398 3.63389,-4.8079264 4.276234,-4.8079264 0.697162,0 1.654326,2.0185874 2.444796,5.1559035 0.509228,2.0210784 0.579121,3.0737884 0.479388,7.2203112 l -0.11676,4.854268 1.044673,-0.07898 c 0.766349,-0.05794 1.044671,0.03968 1.044671,0.366391 0,0.296914 -0.394443,0.494857 -1.183331,0.593827 -0.946897,0.118795 -1.202219,0.281934 -1.277862,0.816512 -0.07271,0.513845 0.05129,0.668056 0.537154,0.668056 0.790436,0 1.776122,0.513722 1.776122,0.925684 0,0.186266 -0.551911,0.271376 -1.376296,0.21224 -1.549144,-0.111125 -2.10864,0.446528 -0.783029,0.780449 0.909853,0.229194 1.56766,0.68536 1.56766,1.087117 0,0.374625 -1.023908,0.320733 -1.94968,-0.102619 -0.735907,-0.336529 -0.861761,-0.286272 -1.714957,0.684809 -1.308999,1.489865 -2.763291,2.489427 -4.470755,3.072828 -2.066684,0.706133 -7.708515,0.887602 -10.160147,0.326792 z m 4.095579,-4.027327 c 0.244062,-0.0024 0.927811,0.07839 1.519441,0.179434 1.303308,0.222593 2.326382,-0.262575 2.326382,-1.103224 0,-0.472567 -0.119995,-0.563643 -0.517706,-0.392932 -1.288599,0.553105 -2.088496,0.501671 -2.439655,-0.156871 -0.29349,-0.550398 -0.245789,-0.760316 0.30695,-1.350829 0.881785,-0.942047 0.581202,-1.620118 -0.718184,-1.620118 -1.913497,0 -2.476686,0.62304 -1.473405,1.629987 0.388822,0.390242 0.418896,0.625926 0.154259,1.208863 -0.375817,0.827839 -1.261285,0.946115 -1.945091,0.259811 -0.917219,-0.920569 -1.433814,0.150116 -0.54697,1.133645 0.4054,0.449602 0.759142,0.531137 1.701038,0.392083 0.654056,-0.09656 1.388879,-0.177491 1.632941,-0.179849 z m -4.935745,-3.58855 c 1.086911,-0.557883 1.66831,-1.527504 1.670479,-2.785928 0.0023,-1.341969 -0.131964,-1.609384 -1.164089,-2.318289 -1.0030996,-0.688973 -2.7121005,-0.640205 -3.6551432,0.104303 -2.5408225,2.005915 0.273935,6.475482 3.1487532,4.999914 z m -2.3131892,-1.85511 c -0.8571185,-1.312904 0.3766894,-2.908262 1.8790543,-2.429688 0.3007257,0.0958 0.7046929,0.522045 0.8977129,0.94722 0.79985,1.761896 -1.7170922,3.105647 -2.7767672,1.482468 z m 15.5550002,1.318872 c 0.936793,-0.940215 1.117871,-2.109532 0.527919,-3.409066 -0.339754,-0.748403 -1.853571,-1.661303 -2.754859,-1.661303 -0.958084,0 -2.173075,0.883981 -2.497061,1.816767 -0.516905,1.488211 -0.39853,2.03161 0.677924,3.111998 1.340791,1.34569 2.795646,1.396607 4.046077,0.141604 z M 19.90615,18.792137 c -0.550148,-0.552158 -0.612507,-1.938711 -0.109881,-2.443173 0.530498,-0.532438 1.853562,-0.429935 2.409558,0.186681 0.650642,0.721577 0.617799,1.406749 -0.102065,2.129244 -0.710673,0.713269 -1.564469,0.762709 -2.197612,0.127248 z M 4.7738172,9.2022157 c 0.087498,-0.142094 0.9586955,-0.558479 1.9359959,-0.925298 L 8.4867192,7.60997 7.8493039,6.6795587 C 7.4987238,6.1678337 6.7437829,5.1619354 6.1716519,4.4442271 L 5.1314161,3.1393041 4.7254954,4.2957704 C 4.172875,5.8701868 3.8725277,9.4605687 4.2934476,9.4605687 c 0.1767036,0 0.3928681,-0.116259 0.4803696,-0.258353 z M 26.245577,7.383027 C 25.725189,4.6290083 25.338788,3.479564 24.971575,3.5931987 24.584622,3.712941 22.103762,7.2708198 22.103762,7.7060184 c 0,0.1484893 0.29953,0.2758323 0.665623,0.2829793 0.366092,0.0072 1.331246,0.246186 2.144785,0.531196 0.81354,0.28501 1.513082,0.501205 1.554543,0.480433 0.04146,-0.02079 -0.05894,-0.748694 -0.223136,-1.6175997 z"
     id="path4155"
     inkscape:connector-curvature="0"
     sodipodi:nodetypes="sscscssssssscsscsscccsssscssssssssssssscssssssssssscscsssssssssssssssssscscsscsscssscscs" />
</svg>
