<?xml version="1.0" encoding="UTF-8" standalone="no"?>
<svg
   xmlns:dc="http://purl.org/dc/elements/1.1/"
   xmlns:cc="http://creativecommons.org/ns#"
   xmlns:rdf="http://www.w3.org/1999/02/22-rdf-syntax-ns#"
   xmlns:svg="http://www.w3.org/2000/svg"
   xmlns="http://www.w3.org/2000/svg"
   xmlns:sodipodi="http://sodipodi.sourceforge.net/DTD/sodipodi-0.dtd"
   xmlns:inkscape="http://www.inkscape.org/namespaces/inkscape"
   viewBox="0 0 30 30"
   id="svg2"
   version="1.1"
   inkscape:version="0.91 r13725"
   sodipodi:docname="category_infill.svg">
  <metadata
     id="metadata14">
    <rdf:RDF>
      <cc:Work
         rdf:about="">
        <dc:format>image/svg+xml</dc:format>
        <dc:type
           rdf:resource="http://purl.org/dc/dcmitype/StillImage" />
      </cc:Work>
    </rdf:RDF>
  </metadata>
  <defs
     id="defs12" />
  <sodipodi:namedview
     pagecolor="#ffffff"
     bordercolor="#666666"
     borderopacity="1"
     objecttolerance="10"
     gridtolerance="10"
     guidetolerance="10"
     inkscape:pageopacity="0"
     inkscape:pageshadow="2"
     inkscape:window-width="1920"
     inkscape:window-height="1137"
     id="namedview10"
     showgrid="false"
     inkscape:zoom="5.5625733"
     inkscape:cx="15"
     inkscape:cy="15"
     inkscape:window-x="-8"
     inkscape:window-y="-8"
     inkscape:window-maximized="1"
     inkscape:current-layer="svg2" />
  <switch
     id="switch4">
    <g
       id="g6" />
  </switch>
  <path
     style="fill:#000000"
     d="m 13.910416,28.563959 c -0.582248,-0.203501 -1.244809,-0.527089 -1.472355,-0.71908 -0.300767,-0.253771 -0.571937,-0.262996 -0.993207,-0.03378 -0.318715,0.17341 -0.946941,0.314799 -1.39606,0.314191 -0.8885988,-0.0012 -2.7016117,-0.98685 -2.7016117,-1.46874 0,-0.164545 -0.4929709,-0.29917 -1.0954912,-0.29917 -1.4554628,0 -2.2914893,-0.647662 -2.7220742,-2.108767 C 3.3346406,23.587003 2.8088093,22.673276 2.3610996,22.218109 1.4821175,21.324489 1.2651705,19.778092 1.8601999,18.647745 2.1002023,18.191829 2.0716195,17.938174 1.7377947,17.561495 1.0326213,16.765805 0.86777946,15.564238 1.3335653,14.615 1.605709,14.060391 1.6643509,13.587183 1.4983172,13.285558 1.1553282,12.662461 1.4694909,11.483561 2.1438423,10.863104 2.581222,10.460686 2.6260482,10.243525 2.3715339,9.7600393 1.70204,8.4882424 2.8450831,3.4603964 4.0312385,2.4595771 c 0.477473,-0.4028662 3.0698281,0.9317833 3.904016,2.0099433 0.5224412,0.675241 0.5420223,0.677789 0.8411976,0.109458 0.4121058,-0.782853 2.0518889,-1.3158449 2.9638189,-0.963354 0.493253,0.190658 0.921749,0.151976 1.419299,-0.128121 0.938955,-0.52859 2.897731,-0.5296396 3.638769,-0.0021 0.38454,0.273829 0.735293,0.326749 1.007045,0.151932 0.768299,-0.4942389 2.468883,-0.3146222 3.034222,0.320477 0.53092,0.596429 0.534374,0.595494 1.567474,-0.424702 1.150421,-1.1360479 2.390335,-1.7223784 3.076353,-1.4547445 0.248039,0.096768 0.800144,0.855934 1.226901,1.6870335 0.648213,1.262377 0.784116,1.930548 0.825691,4.059516 0.04193,2.1473489 0.144745,2.6449866 0.653271,3.1619836 0.799546,0.812864 1.068892,2.012591 0.68436,3.048304 -0.240067,0.646598 -0.217144,1.027322 0.09894,1.643307 0.559503,1.090366 0.520156,2.406146 -0.09255,3.094445 -0.340376,0.382376 -0.507508,1.053822 -0.507508,2.038882 0,1.243723 -0.124665,1.577771 -0.813685,2.180312 -0.447527,0.391358 -1.067412,0.711562 -1.377524,0.711562 -0.37468,0 -0.563839,0.202322 -0.563839,0.603071 0,1.007317 -1.31461,2.101313 -2.397373,1.995054 -0.753782,-0.07398 -1.09844,0.09411 -1.757352,0.857058 -0.934597,1.082155 -2.268782,1.45501 -3.501484,0.978529 -0.651018,-0.251639 -0.937966,-0.232625 -1.302004,0.08628 -0.72588,0.635874 -1.594978,0.743407 -2.74887,0.34011 z m 2.304326,-1.343474 c 0.577605,-0.551672 0.753061,-0.576574 1.80495,-0.25617 1.576662,0.480248 2.498994,0.182473 3.24723,-1.048368 0.579518,-0.953294 0.709724,-1.018709 1.705479,-0.85683 1.241692,0.201862 1.672155,-0.153173 1.821922,-1.502676 0.08432,-0.759774 0.240864,-0.905295 1.110076,-1.031924 1.305988,-0.190261 1.85914,-1.216173 1.444657,-2.679362 -0.255773,-0.902913 -0.210474,-1.061514 0.441747,-1.546636 0.849863,-0.632125 0.901318,-1.215218 0.252673,-2.863339 -0.353565,-0.898373 -0.390425,-1.289599 -0.145003,-1.53911 0.548165,-0.557295 0.374327,-1.323041 -0.540943,-2.382839 -0.478509,-0.554067 -0.870016,-1.161758 -0.870016,-1.350421 0,-0.6136227 -1.405225,-1.7903966 -2.137971,-1.7903966 -0.537618,0 -0.845757,-0.273489 -1.245702,-1.105633 -0.298993,-0.622091 -0.785059,-1.150612 -1.111405,-1.208483 -0.319005,-0.05657 -0.931533,-0.487764 -1.361176,-0.958215 -0.83656,-0.916018 -1.522953,-1.051602 -2.659207,-0.525267 -0.569034,0.263589 -0.847731,0.233884 -1.383196,-0.147418 -0.893553,-0.636293 -2.261007,-0.593722 -3.14646,0.09795 -0.411772,0.321657 -0.846217,0.457361 -1.015017,0.317049 -0.310213,-0.257854 -1.105313,-0.393865 -1.968862,-0.336794 -0.282549,0.01866 -0.6623766,0.365641 -0.8440616,0.771039 -0.200936,0.448348 -0.5708376,0.737089 -0.944274,0.737089 -0.9463155,0 -1.9030102,0.828278 -1.9030102,1.647566 0,0.74135 -0.1032273,0.817968 -1.5313223,1.136606 -0.611757,0.136497 -0.8497931,0.400935 -0.986516,1.0959359 -0.1142648,0.5808407 -0.4807935,1.0904167 -1.0016802,1.3926047 -1.03883,0.602676 -1.2551389,1.163471 -0.6925466,1.795484 0.5693756,0.639633 0.5601215,1.09069 -0.029258,1.426019 -0.6744966,0.383752 -0.5813325,1.736858 0.1760157,2.556444 0.6074039,0.657321 0.6185662,0.742134 0.1812531,1.376888 -0.8381407,1.216541 -0.4934203,2.670977 0.806301,3.401918 0.3254089,0.183004 0.5767243,0.687957 0.6198597,1.245462 0.096026,1.240998 0.8906751,2.089378 1.9570467,2.089378 0.5412249,0 1.2260573,0.327394 1.8501771,0.884507 1.0579066,0.944325 1.7985534,1.074339 3.2300506,0.567004 0.778872,-0.27604 1.039488,-0.218285 1.995629,0.442253 1.330911,0.919441 2.027801,0.955511 2.872561,0.148685 z M 10.72135,21.323775 C 9.9023384,20.66881 9.7020984,19.870997 10.356726,19.870997 c 0.219723,0 0.551332,0.185997 0.736906,0.413327 0.480921,0.589123 1.603111,0.813472 2.443716,0.488551 0.964382,-0.372763 1.255754,-1.372583 0.611067,-2.09682 -0.409519,-0.460049 -0.434323,-0.644899 -0.135633,-1.010793 0.628494,-0.769901 2.614561,-0.494878 2.614561,0.362055 0,0.248552 -0.193465,0.599215 -0.429921,0.779253 -0.357582,0.272257 -0.368657,0.451367 -0.06583,1.064427 0.452828,0.916741 2.206855,1.16478 3.262769,0.461394 0.891432,-0.593816 1.003052,-0.581401 1.003052,0.11156 0,1.319203 -2.896112,2.02133 -4.278158,1.037184 -0.573505,-0.408388 -0.723353,-0.408388 -1.500153,0 -1.233503,0.648497 -2.97813,0.57806 -3.897748,-0.15736 z M 6.9328898,16.459329 C 6.1871533,15.701174 6.3848556,14.59884 7.4631843,13.502551 c 1.7979561,-1.827904 4.4035527,-1.137148 5.1402547,1.362706 0.52089,1.767524 0.125555,2.057385 -2.8060106,2.057385 -1.8031608,0 -2.5233999,-0.116492 -2.8645386,-0.463313 z m 4.8139582,-1.158282 c -0.187955,-1.161619 -0.898087,-1.916431 -1.8029926,-1.916431 -0.8567211,0 -0.8628982,0.01103 -0.40427,0.722654 0.282193,0.437854 0.389036,0.968355 0.271105,1.346107 -0.17799,0.570147 -0.09946,0.615498 0.9184666,0.530397 0.928576,-0.07763 1.097286,-0.190812 1.017691,-0.682727 z m 7.008535,1.344618 c -1.418131,-0.620868 -1.023553,-2.556598 0.772011,-3.787356 1.280293,-0.877572 2.446952,-0.703446 3.552562,0.530226 0.90309,1.007697 1.109075,2.759798 0.358861,3.052479 -0.857554,0.334555 -4.066443,0.474773 -4.683434,0.204651 z m 4.252071,-1.618054 c 0,-0.736921 -1.192428,-1.93783 -1.924143,-1.93783 -0.460647,0 -0.5284,0.471616 -0.105892,0.737089 0.159503,0.10022 0.290005,0.572417 0.290005,1.049325 0,0.766894 0.100547,0.867105 0.870015,0.867105 0.727742,0 0.870015,-0.117035 0.870015,-0.715689 z"
     id="path4153"
     inkscape:connector-curvature="0"
     sodipodi:nodetypes="csscssssssssssssssscssssssssssssssssssccsssssssssssssssssssscsssssssssssssssssssssssscssssssssssssssssssssssssssss" />
</svg>
