<?xml version="1.0" encoding="UTF-8" standalone="no"?>
<svg
   xmlns:dc="http://purl.org/dc/elements/1.1/"
   xmlns:cc="http://creativecommons.org/ns#"
   xmlns:rdf="http://www.w3.org/1999/02/22-rdf-syntax-ns#"
   xmlns:svg="http://www.w3.org/2000/svg"
   xmlns="http://www.w3.org/2000/svg"
   xmlns:sodipodi="http://sodipodi.sourceforge.net/DTD/sodipodi-0.dtd"
   xmlns:inkscape="http://www.inkscape.org/namespaces/inkscape"
   version="1.1"
   id="svg2"
   viewBox="0 0 30 30"
   inkscape:version="0.91 r13725"
   sodipodi:docname="category_fixes.svg">
  <sodipodi:namedview
     pagecolor="#ffffff"
     bordercolor="#666666"
     borderopacity="1"
     objecttolerance="10"
     gridtolerance="10"
     guidetolerance="10"
     inkscape:pageopacity="0"
     inkscape:pageshadow="2"
     inkscape:window-width="1920"
     inkscape:window-height="1137"
     id="namedview8"
     showgrid="false"
     inkscape:zoom="1.3906433"
     inkscape:cx="-16.536767"
     inkscape:cy="15"
     inkscape:window-x="-8"
     inkscape:window-y="-8"
     inkscape:window-maximized="1"
     inkscape:current-layer="svg2" />
  <metadata
     id="metadata14">
    <rdf:RDF>
      <cc:Work
         rdf:about="">
        <dc:format>image/svg+xml</dc:format>
        <dc:type
           rdf:resource="http://purl.org/dc/dcmitype/StillImage" />
        <dc:title />
      </cc:Work>
    </rdf:RDF>
  </metadata>
  <defs
     id="defs12" />
  <path
     style="fill:#000000"
     d="M 11.131979,28.156791 C 9.0983653,27.728105 6.2632606,26.559742 4.8680305,25.575379 3.56064,24.652985 1.9692573,22.36843 1.3480175,20.522121 0.62493139,18.373114 0.68491158,15.77047 1.5091012,13.532474 2.1204547,11.87241 2.137784,11.68553 1.7454341,10.983722 1.0659001,9.7682237 1.4088825,7.3700602 2.5917644,5.0660971 3.1357665,4.0065116 3.6581215,3.1395753 3.7525499,3.1395753 c 0.3872918,0 2.83465,1.6941151 3.7534371,2.5982111 L 8.4919702,6.7080039 10.234509,6.206349 c 2.392516,-0.6887753 7.189912,-0.6952527 9.848712,-0.013285 l 1.90401,0.4883601 1.425845,-1.3508866 c 1.582591,-1.4993888 2.45951,-1.8928077 3.108506,-1.3945935 0.7083,0.5437415 1.696717,2.592756 2.048458,4.2465102 0.287794,1.3530952 0.270392,1.6837511 -0.129654,2.4635478 -0.423922,0.826332 -0.425981,0.980565 -0.02496,1.868345 1.766678,3.911077 0.716003,8.981842 -2.52517,12.186988 -2.502699,2.47488 -5.403211,3.545086 -10.080221,3.719319 -1.945128,0.07247 -3.498172,-0.01513 -4.678056,-0.263853 z m 7.173886,-0.918354 C 24.489436,26.326315 28.550201,21.887749 28.236369,16.384028 27.964531,11.616817 24.64934,8.1962191 19.010216,6.8645434 15.473203,6.0292791 11.553167,6.4814139 7.8553588,8.1511415 0.35908397,11.536055 -0.22800462,21.435231 6.8200276,25.608323 9.6130886,27.262075 13.961651,27.87924 18.305865,27.238437 Z M 12.597794,25.105302 C 12.127507,24.908389 11.126219,24.243039 10.372711,23.626748 9.6192033,23.010458 8.3958946,22.220267 7.6542476,21.870768 5.1683371,20.699299 4.1995808,18.257278 5.0930214,15.414491 5.8684701,12.947141 8.1525568,10.688839 10.50989,10.05878 c 3.484051,-0.9312076 7.735745,-0.8193334 10.162717,0.267413 2.442691,1.093782 4.849988,4.335272 4.837342,6.513608 -0.0122,2.100317 -1.927967,4.482432 -4.355432,5.415643 -0.575361,0.221189 -1.701461,0.999202 -2.502448,1.728923 -1.433177,1.305658 -1.486102,1.327969 -3.327772,1.402861 -1.17555,0.0478 -2.189386,-0.05703 -2.726503,-0.281926 z m 1.880095,-3.178379 c 0.415159,-0.329248 0.561705,-0.313904 1.247914,0.130672 0.427636,0.277052 0.933507,0.452855 1.124162,0.390673 0.576068,-0.187884 0.3904,-0.739049 -0.354747,-1.053094 -0.385764,-0.162579 -0.812928,-0.556256 -0.949253,-0.874836 -0.197972,-0.46264 -0.114844,-0.682798 0.412985,-1.093718 0.945315,-0.73594 0.517202,-1.206359 -1.005949,-1.105358 -0.896941,0.05947 -1.242305,0.199105 -1.310095,0.529664 -0.05606,0.273388 0.07853,0.448895 0.344252,0.448895 0.298045,0 0.436304,0.239262 0.436304,0.755033 0,0.566901 -0.207294,0.8683 -0.831942,1.209609 -0.793386,0.433508 -1.026924,0.847644 -0.666174,1.18133 0.216126,0.199915 0.959464,-0.04851 1.552543,-0.51887 z m -3.282765,-3.687727 c 0.652861,-0.663291 0.765315,-0.961608 0.637379,-1.690851 -0.201871,-1.150654 -0.580219,-1.545118 -1.774588,-1.850158 -1.2233367,-0.312442 -2.3715295,0.172719 -2.9785901,1.258585 -0.5377959,0.961966 -0.5314204,1.543567 0.024986,2.278346 0.9788784,1.292707 2.8206511,1.294543 4.0908211,0.0041 z M 8.9705732,17.956035 C 8.2666633,17.658212 8.041373,17.060448 8.3459752,16.298798 c 0.4092412,-1.023302 2.1444278,-0.981161 2.5774358,0.06259 0.394202,0.950214 -0.9266773,2.028814 -1.9528378,1.594644 z m 13.5163388,0.33747 c 1.67993,-1.553907 0.510677,-3.610896 -2.052534,-3.610896 -1.183251,0 -2.041333,0.587978 -2.271269,1.556331 -0.5589,2.353771 2.453057,3.784979 4.323803,2.054565 z m -3.181534,-0.828926 c -0.521215,-0.688318 -0.170467,-1.413565 0.858677,-1.775493 1.351747,-0.47538 2.314949,1.003614 1.239762,1.903652 -0.700103,0.586055 -1.599192,0.531146 -2.098439,-0.128159 z"
     id="path4147"
     inkscape:connector-curvature="0"
     sodipodi:nodetypes="cssssssscsscsssssssccsssssssssssssssssssssssscssssscssssccssssssssssss" />
</svg>
