<?xml version="1.0" encoding="UTF-8" standalone="no"?>
<svg
   xmlns:dc="http://purl.org/dc/elements/1.1/"
   xmlns:cc="http://creativecommons.org/ns#"
   xmlns:rdf="http://www.w3.org/1999/02/22-rdf-syntax-ns#"
   xmlns:svg="http://www.w3.org/2000/svg"
   xmlns="http://www.w3.org/2000/svg"
   xmlns:sodipodi="http://sodipodi.sourceforge.net/DTD/sodipodi-0.dtd"
   xmlns:inkscape="http://www.inkscape.org/namespaces/inkscape"
   version="1.1"
   id="svg2"
   viewBox="0 0 30 30"
   inkscape:version="0.91 r13725"
   sodipodi:docname="category_blackmagic.svg">
  <sodipodi:namedview
     pagecolor="#ffffff"
     bordercolor="#666666"
     borderopacity="1"
     objecttolerance="10"
     gridtolerance="10"
     guidetolerance="10"
     inkscape:pageopacity="0"
     inkscape:pageshadow="2"
     inkscape:window-width="1657"
     inkscape:window-height="889"
     id="namedview23"
     showgrid="false"
     inkscape:zoom="6.781603"
     inkscape:cx="-21.507008"
     inkscape:cy="4.1559778"
     inkscape:window-x="192"
     inkscape:window-y="96"
     inkscape:window-maximized="0"
     inkscape:current-layer="svg2" />
  <metadata
     id="metadata20">
    <rdf:RDF>
      <cc:Work
         rdf:about="">
        <dc:format>image/svg+xml</dc:format>
        <dc:type
           rdf:resource="http://purl.org/dc/dcmitype/StillImage" />
        <dc:title />
      </cc:Work>
    </rdf:RDF>
  </metadata>
  <defs
     id="defs18" />
  <g
     transform="matrix(1.5656028,0,0,1.5656028,-9.5437176,-7.5546646)"
     id="g21608">
    <path
       style="opacity:1;fill:#000000;fill-opacity:1;fill-rule:nonzero;stroke:none;stroke-width:2.5;stroke-linecap:butt;stroke-linejoin:miter;stroke-miterlimit:10;stroke-dasharray:none;stroke-dashoffset:825.36413574;stroke-opacity:1"
       d="M 15.775391,0.32421875 C 13.811831,0.2596954 11.924497,0.65594704 10.951172,1.6367188 l -0.447266,7.65625 c 1.060211,-1.2939997 7.000338,-2.0508761 10.324219,1.4179692 -0.01739,-0.0026 -0.05056,-0.0071 -0.06836,-0.0098 C 19.328888,10.11935 17.540995,9.6709872 15.550781,9.4726562 -25.6034,7.913541 51.106031,25.017902 21.269531,10.923828 l 0.6875,-8.3378905 C 20.951996,1.2499716 18.299967,0.40717735 15.775391,0.32421875 Z m 0.816406,9.85937325 c -11.061198,13.210939 -5.530599,6.605469 0,0 z"
       transform="matrix(0.63873161,0,0,0.63873161,6.001688,4.6370312)"
       id="path17124"
       inkscape:connector-curvature="0"
       sodipodi:nodetypes="scccccccscc" />
    <g
       id="g43287"
       transform="matrix(0.21167148,0,0,0.21167148,-207.41385,-2.7825191)">
      <g
         transform="translate(140.29418,-30.229133)"
         id="g43291" />
    </g>
    <g
       style="font-style:normal;font-weight:normal;font-size:40px;line-height:125%;font-family:sans-serif;letter-spacing:0px;word-spacing:0px;fill:#000000;fill-opacity:1;stroke:none;stroke-width:1px;stroke-linecap:butt;stroke-linejoin:miter;stroke-opacity:1"
       id="flowRoot17113"
       transform="matrix(0.25288467,-0.06867211,0,0.25288467,0.10184503,22.309531)" />
  </g>
  <path
     style="fill:#000000"
     d="M 11.284404,28.945348 C 8.5492214,28.344829 6.3332262,26.928686 5.2538951,25.091522 3.6301459,22.327687 3.887807,18.826094 5.901987,16.283951 c 0.5906477,-0.745467 0.6457954,-0.950859 0.6457954,-2.405163 0,-2.00566 0.2813576,-2.779451 1.01064,-2.779451 0.7305219,0 1.775066,0.48347 2.6935816,1.246736 0.708527,0.588767 0.827246,0.623996 1.520781,0.451277 0.991311,-0.24688 4.233186,-0.237988 5.280196,0.01448 0.785983,0.189526 0.872492,0.16502 1.694885,-0.480159 1.051259,-0.824725 2.300769,-1.37533 2.556625,-1.12659 0.520163,0.505694 0.900362,1.900614 0.900362,3.303354 0,1.241022 0.09809,1.681214 0.54546,2.447843 1.184875,2.030439 1.528917,4.774338 0.853602,6.80784 -0.393053,1.183552 -1.777115,3.045978 -2.850557,3.835778 -1.388928,1.021924 -3.161158,1.496061 -5.833392,1.560648 -1.576335,0.0381 -2.816102,-0.03528 -3.635562,-0.215201 z m 6.027614,-0.729396 c 3.369935,-0.779783 5.206433,-2.593328 5.784778,-5.712473 0.306201,-1.651421 -0.08755,-3.618926 -1.100384,-5.498387 -0.550755,-1.022009 -0.663038,-1.468584 -0.671204,-2.669577 -0.0054,-0.793242 -0.129649,-1.685907 -0.276119,-1.9837 l -0.266309,-0.541441 -1.083004,0.715608 c -0.595652,0.393583 -1.180859,0.825726 -1.300461,0.960315 -0.160861,0.181017 -0.443847,0.201019 -1.087297,0.07684 -1.714857,-0.330937 -3.72187,-0.411257 -5.173404,-0.20704 L 10.66202,13.563846 9.6378313,12.826287 c -1.4693442,-1.058136 -1.9203592,-1.234225 -2.116988,-0.826533 -0.086743,0.179851 -0.1785754,1.099005 -0.2040725,2.042565 -0.043149,1.596602 -0.095615,1.777727 -0.756602,2.611975 -2.2862824,2.88557 -2.1669711,6.615139 0.2955621,9.23896 1.6245124,1.730911 3.9626311,2.552399 7.3031271,2.565925 1.136226,0.0046 2.555148,-0.104852 3.15316,-0.243227 z M 6.5477824,23.217602 c 0,-0.258521 0.937939,-0.938559 1.5907367,-1.153339 0.8448881,-0.27798 1.2362344,-0.252072 1.2362344,0.08183 0,0.155787 -0.1301994,0.28325 -0.2893339,0.28325 -0.1591346,0 -0.770739,0.212083 -1.3591208,0.471293 -1.2159825,0.535708 -1.1785164,0.525629 -1.1785164,0.316962 z M 21.117557,22.513275 c -0.418609,-0.134213 -0.97551,-0.250489 -1.237557,-0.25839 -0.56656,-0.01709 -0.858229,-0.347167 -0.54619,-0.61813 0.264846,-0.229982 2.266298,0.292958 2.647408,0.691718 0.364386,0.381263 -0.0046,0.460224 -0.863661,0.184802 z m -9.283699,-0.498311 c -0.26213,-0.109997 -0.534444,-0.330893 -0.605144,-0.49088 -0.189141,-0.428012 0.203405,-0.672338 0.530444,-0.330153 0.557155,0.582959 1.964782,0.205134 1.964782,-0.527374 0,-0.235221 -0.11085,-0.523932 -0.246334,-0.641581 -0.135483,-0.117649 -0.187485,-0.347083 -0.115556,-0.509851 0.172017,-0.389258 1.310053,-0.385801 1.683664,0.0051 0.244202,0.255511 0.21854,0.348359 -0.169613,0.613709 -0.94023,0.642758 0.336102,1.683484 1.437096,1.171815 0.6459,-0.300172 0.621949,0.2454 -0.02813,0.640797 -0.60872,0.370239 -1.34116,0.377048 -1.686534,0.01567 -0.234297,-0.245147 -0.339738,-0.245147 -0.885665,0 -0.714537,0.320861 -1.207084,0.334681 -1.879007,0.05273 z M 5.9073038,21.378315 c 0.6693529,-0.700351 2.9887413,-1.205054 2.7631099,-0.601257 -0.091161,0.243951 -1.9198048,0.855097 -2.6385405,0.881821 -0.3453036,0.01284 -0.3642334,-0.0298 -0.1245694,-0.280564 z m 15.7539012,-0.08196 c -0.239205,-0.08926 -0.85081,-0.168262 -1.359121,-0.17556 -0.669747,-0.0096 -0.924202,-0.09126 -0.924202,-0.296523 0,-0.195424 0.225936,-0.283251 0.728658,-0.283251 0.994189,0 2.098313,0.357492 2.098313,0.679392 0,0.145625 -0.02446,0.258803 -0.05437,0.251503 -0.0299,-0.0073 -0.250079,-0.0863 -0.489284,-0.175561 z M 8.5049163,18.591179 c 0,-0.298127 0.810323,-0.9633 1.3923092,-1.142911 0.5828745,-0.179885 1.8280375,0.217666 2.1088555,0.673306 0.391459,0.635165 -0.0767,0.790494 -0.983023,0.326147 l -0.807679,-0.413812 -0.6289659,0.403803 c -0.7204274,0.46252 -1.0814968,0.513758 -1.0814968,0.153467 z m 7.6767187,-0.06233 c -0.202746,-0.458795 0.696979,-1.009172 1.649738,-1.009172 0.875508,0 1.763968,0.433389 1.763968,0.860459 0,0.309241 -0.556992,0.370501 -0.761107,0.08371 -0.200628,-0.281892 -1.270883,-0.227898 -1.752477,0.08841 -0.550328,0.361454 -0.73214,0.356726 -0.900122,-0.02341 z"
     id="path4149"
     inkscape:connector-curvature="0"
     sodipodi:nodetypes="ssssssssssssssssssssscsssscsssssssssssssscssscsssssssssssccssssssssscssssscssssssss" />
</svg>
