<?xml version="1.0" encoding="UTF-8" standalone="no"?>
<svg
   xmlns:dc="http://purl.org/dc/elements/1.1/"
   xmlns:cc="http://creativecommons.org/ns#"
   xmlns:rdf="http://www.w3.org/1999/02/22-rdf-syntax-ns#"
   xmlns:svg="http://www.w3.org/2000/svg"
   xmlns="http://www.w3.org/2000/svg"
   xmlns:sodipodi="http://sodipodi.sourceforge.net/DTD/sodipodi-0.dtd"
   xmlns:inkscape="http://www.inkscape.org/namespaces/inkscape"
   version="1.1"
   id="svg2"
   viewBox="0 0 30 30"
   inkscape:version="0.91 r13725"
   sodipodi:docname="category_shield.svg">
  <sodipodi:namedview
     pagecolor="#ffffff"
     bordercolor="#666666"
     borderopacity="1"
     objecttolerance="10"
     gridtolerance="10"
     guidetolerance="10"
     inkscape:pageopacity="0"
     inkscape:pageshadow="2"
     inkscape:window-width="1920"
     inkscape:window-height="1137"
     id="namedview11"
     showgrid="false"
     inkscape:zoom="5.5625733"
     inkscape:cx="15"
     inkscape:cy="15"
     inkscape:window-x="-8"
     inkscape:window-y="-8"
     inkscape:window-maximized="1"
     inkscape:current-layer="svg2" />
  <metadata
     id="metadata16">
    <rdf:RDF>
      <cc:Work
         rdf:about="">
        <dc:format>image/svg+xml</dc:format>
        <dc:type
           rdf:resource="http://purl.org/dc/dcmitype/StillImage" />
        <dc:title />
      </cc:Work>
    </rdf:RDF>
  </metadata>
  <defs
     id="defs14" />
  <g
     id="g4154"
     transform="matrix(0.28973163,0,0,0.29638249,-9.4403265,10.535628)">
    <path
       inkscape:connector-curvature="0"
       id="path4152"
       d="m 48.538686,-29.145288 c 0.719091,0.359546 19.235701,24.8086621 19.235701,24.8086621 l 31.640032,7.1909164 17.258201,-28.9434385 4.49432,4.31455 4.13478,17.9772908 -11.86501,46.7409572 c 0,0 -19.775024,9.88751 -21.572753,9.168418 C 90.066228,51.392976 65.437339,44.20206 65.437339,44.20206 L 40.808451,23.168629 45.302773,14.179984 43.86459,-16.740957 Z"
       style="fill:#000000;fill-opacity:1;fill-rule:evenodd;stroke:#000000;stroke-width:1px;stroke-linecap:butt;stroke-linejoin:miter;stroke-opacity:1" />
    <path
       sodipodi:nodetypes="sscscssssssscsscsscccsssscssssssssssssscssssssssssscscsssssssssssssssssscscsscsscssscscs"
       inkscape:connector-curvature="0"
       id="path4150"
       d="m 69.933644,58.324514 c -7.84387,-1.78774 -13.62635,-4.53364 -18.03133,-8.56245 l -3.37559,-3.08732 -4.03324,1.61378 c -3.60407,1.44207 -4.19457,1.45247 -5.54929,0.0977 -1.35471,-1.35471 -1.01177,-1.73219 3.22285,-3.54736 5.47093,-2.34506 5.25478,-4.04746 -0.51391,-4.04746 -4.1548,0 -7.87524,-1.40494 -7.87524,-2.97391 0,-0.49695 2.025,-1.20721 4.5,-1.57836 5.89449,-0.88393 6.06044,-3.2196 0.25863,-3.64023 -3.02314,-0.21918 -4.33297,-0.790662 -4.56026,-1.989652 -0.23802,-1.2556 0.52051,-1.76274 2.99137,-2 l 3.31026,-0.31785 -0.33628,-13 c -0.49477,-19.1270401 3.38336,-42.49152 7.78321,-46.89137 l 2.03357,-2.03357 4.08637,3.96247 c 2.2475,2.17936 6.43195,7.46114 9.29877,11.73729 l 5.21239,7.77481 15.95356,0.11768 15.953566,0.1176799 3.00743,-5.0919699 c 4.24583,-7.18876 12.28361,-16.19302 14.45492,-16.19302 2.35661,0 5.5921,6.79857 8.26412,17.365 1.72134,6.8069599 1.9576,10.3524699 1.62047,24.31789 l -0.39468,16.3491 3.5313,-0.26599 c 2.59048,-0.19513 3.53129,0.13363 3.53129,1.234 0,1 -1.33333,1.66667 -4,2 -3.20079,0.4001 -4.06385,0.94955 -4.31955,2.750002 -0.24579,1.73062 0.17335,2.25 1.81574,2.25 2.6719,0 6.00381,1.73021 6.00381,3.11769 0,0.62734 -1.86562,0.91399 -4.65228,0.71482 -5.23656,-0.37427 -7.12782,1.5039 -2.64687,2.62854 3.07557,0.77192 5.29915,2.30828 5.29915,3.66139 0,1.26173 -3.46111,1.08022 -6.59049,-0.34562 -2.48758,-1.13342 -2.913,-0.96416 -5.79705,2.30643 -4.4248,5.01784 -9.34073,8.38435 -15.11246,10.34923 -6.985994,2.37825 -26.057026,2.98943 -34.344256,1.10063 z m 13.84425,-13.56397 c 0.825,-0.008 3.136272,0.26402 5.136152,0.60433 4.40556,0.74969 7.86385,-0.88435 7.86385,-3.71564 0,-1.5916 -0.40562,-1.89834 -1.75,-1.32339 -4.35584,1.86285 -7.05972,1.68962 -8.24674,-0.52834 -0.99208,-1.85373 -0.83084,-2.56073 1.03758,-4.54957 2.98069,-3.172802 1.96463,-5.456532 -2.42767,-5.456532 -6.468182,0 -8.371922,2.09839 -4.980542,5.489772 1.31433,1.31433 1.41599,2.10811 0.52144,4.07143 -1.27037,2.78815 -4.26351,3.1865 -6.57497,0.87504 -3.10047,-3.10046 -4.8467,0.50559 -1.84892,3.8181 1.37037,1.51425 2.56612,1.78886 5.75,1.32053 2.2109,-0.32521 4.69482,-0.59779 5.51982,-0.60573 z m -16.68426,-12.08618 c 3.67408,-1.878942 5.63938,-5.144612 5.64671,-9.382962 0.008,-4.51973 -0.44608,-5.42038 -3.93496,-7.80796 -3.39077,-2.32045 -9.16769,-2.1562 -12.35545,0.35129 -8.58872,6.75589 0.92598,21.809322 10.6437,16.839632 z m -7.81925,-6.247982 c -2.89731,-4.42184 1.27332,-9.79498 6.35175,-8.18315 1.01654,0.32264 2.38207,1.75824 3.03453,3.19022 2.70373,5.93404 -5.80427,10.45977 -9.38628,4.99293 z m 52.580436,4.44194 c 3.16663,-3.16663 3.77873,-7.10487 1.78452,-11.48168 -1.14847,-2.52061 -6.26561,-5.59524 -9.31223,-5.59524 -3.2386,0 -7.345624,2.97723 -8.440794,6.11884 -1.74729,5.01227 -1.34715,6.84243 2.29158,10.48116 4.532264,4.532262 9.450104,4.703752 13.676924,0.47692 z m -11.50549,-2.64835 c -1.859664,-1.85966 -2.070454,-6.52955 -0.371434,-8.22857 1.793244,-1.79324 6.265584,-1.44801 8.145014,0.62874 2.19936,2.43026 2.08834,4.73791 -0.34501,7.17126 -2.40228,2.40228 -5.28836,2.56879 -7.42857,0.42857 z M 49.197634,-4.0787281 c 0.29577,-0.47857 3.24067,-1.88095 6.54423,-3.11639 l 6.00646,-2.24627 -2.15465,-3.1336099 c -1.18506,-1.72348 -3.73699,-5.11133 -5.67095,-7.52856 l -3.5163,-4.39496 -1.37213,3.89496 c -1.86802,5.30261 -2.88328,17.3949599 -1.46045,17.3949599 0.59731,0 1.32801,-0.39156 1.62379,-0.87013 z m 72.580806,-6.1269999 c -1.75906,-9.27549 -3.06521,-13.1468 -4.3065,-12.76408 -1.30801,0.40329 -9.69404,12.38617 -9.69404,13.8519099 0,0.50011 1.0125,0.929 2.25,0.95307 1.2375,0.0241 4.5,0.82915 7.25,1.78906 2.75,0.95991 5.11466,1.68805 5.25481,1.61808 0.14015,-0.0699 -0.19927,-2.52158 -0.75427,-5.4480399 z"
       style="fill:#ffffff;fill-opacity:1;stroke:#000000;stroke-opacity:1" />
  </g>
</svg>
