<?xml version="1.0" encoding="UTF-8" standalone="no"?>
<svg
   xmlns:dc="http://purl.org/dc/elements/1.1/"
   xmlns:cc="http://creativecommons.org/ns#"
   xmlns:rdf="http://www.w3.org/1999/02/22-rdf-syntax-ns#"
   xmlns:svg="http://www.w3.org/2000/svg"
   xmlns="http://www.w3.org/2000/svg"
   xmlns:sodipodi="http://sodipodi.sourceforge.net/DTD/sodipodi-0.dtd"
   xmlns:inkscape="http://www.inkscape.org/namespaces/inkscape"
   viewBox="0 0 30 30"
   id="svg2"
   version="1.1"
   inkscape:version="0.91 r13725"
   sodipodi:docname="category_material.svg">
  <metadata
     id="metadata14">
    <rdf:RDF>
      <cc:Work
         rdf:about="">
        <dc:format>image/svg+xml</dc:format>
        <dc:type
           rdf:resource="http://purl.org/dc/dcmitype/StillImage" />
      </cc:Work>
    </rdf:RDF>
  </metadata>
  <defs
     id="defs12" />
  <sodipodi:namedview
     pagecolor="#ffffff"
     bordercolor="#666666"
     borderopacity="1"
     objecttolerance="10"
     gridtolerance="10"
     guidetolerance="10"
     inkscape:pageopacity="0"
     inkscape:pageshadow="2"
     inkscape:window-width="1920"
     inkscape:window-height="1137"
     id="namedview10"
     showgrid="false"
     inkscape:zoom="17.959195"
     inkscape:cx="34.361039"
     inkscape:cy="16.710491"
     inkscape:window-x="-8"
     inkscape:window-y="-8"
     inkscape:window-maximized="1"
     inkscape:current-layer="svg2" />
  <path
     style="fill:#000000;fill-opacity:1;stroke:#000000;stroke-width:0.33365548;stroke-opacity:1"
     d="M 5.4786773,0.76070029 C 5.1878703,0.71393394 5.0160417,0.83575275 4.9004863,1.1002383 4.7645557,1.411374 4.6207348,3.0004097 4.5807807,4.6327395 4.5131573,7.3948117 4.4307654,7.7101589 3.3949223,9.1533832 -0.1879399,14.145331 -0.00159592,20.59648 3.857475,25.135612 c 2.5457932,2.994423 6.21097,4.414536 11.445914,4.437935 1.780596,0.0079 4.003546,-0.180684 4.940699,-0.420069 5.281079,-1.349 8.158795,-4.485398 9.065128,-9.881427 0.479853,-2.85691 -0.13601,-6.262182 -1.723236,-9.5135934 C 26.722886,7.9904126 26.546691,7.2197292 26.533899,5.1420466 26.525379,3.7697611 26.330354,2.2248375 26.100823,1.7096654 L 25.683618,0.771583 23.985325,2.0100261 C 23.051869,2.6909177 22.13434,3.4400562 21.946918,3.6728917 21.69483,3.9860506 21.252447,4.0204792 20.244088,3.8056598 17.556713,3.2331494 14.410531,3.0932428 12.13581,3.4465331 L 9.823046,3.8056598 8.2177155,2.5302158 C 6.7785755,1.3861273 5.9633557,0.83864423 5.4786773,0.76070029 Z M 9.0113109,10.454946 c 0.9914431,-0.06607 2.5331031,0.54655 2.9181631,1.236266 0.613466,1.098814 -0.121536,1.367029 -1.541842,0.56372 L 9.122414,11.538855 8.1360885,12.23752 C 7.00709,13.037665 6.442329,13.126347 6.442329,12.503057 c 0,-0.515751 1.2692226,-1.665563 2.181254,-1.976286 0.1141797,-0.03891 0.2460936,-0.06238 0.3877279,-0.07182 z m 12.0467791,0.19371 c 1.372027,0 2.763981,0.749926 2.763981,1.488743 0,0.534979 -0.872784,0.641971 -1.192662,0.145829 -0.314405,-0.487663 -1.991137,-0.394849 -2.745839,0.152356 -0.862429,0.625304 -1.147078,0.618431 -1.410333,-0.03918 -0.317721,-0.793704 1.091769,-1.74775 2.584853,-1.74775 z m -5.802316,2.951369 c 0.552739,0.0019 1.144794,0.171194 1.437542,0.509308 0.38269,0.442026 0.340725,0.603096 -0.267556,1.062144 -1.473443,1.111952 0.528423,2.913695 2.253812,2.028521 1.012196,-0.519288 0.973384,0.423828 -0.04534,1.107852 -0.953941,0.640503 -2.100299,0.651287 -2.64154,0.02612 -0.367172,-0.424098 -0.53439,-0.424098 -1.389926,0 -1.119758,0.55508 -1.890119,0.579192 -2.943105,0.09141 -0.410782,-0.190293 -0.83698,-0.572072 -0.94778,-0.848845 -0.29641,-0.740449 0.317362,-1.16222 0.829875,-0.57025 0.873121,1.008502 3.07915,0.355254 3.07915,-0.911964 0,-0.406925 -0.173147,-0.9065 -0.385461,-1.110028 -0.212324,-0.20353 -0.294114,-0.602085 -0.181394,-0.88367 0.134787,-0.3367 0.648991,-0.502449 1.201731,-0.500601 z m -9.4914023,2.235293 c 0.6424412,-0.06436 1.0690359,0.05666 0.9364427,0.448364 -0.1428625,0.422027 -3.0071588,1.479513 -4.1334989,1.525744 -0.5411276,0.02222 -0.5705834,-0.05154 -0.1949977,-0.485366 0.6555936,-0.757242 2.3213184,-1.381476 3.3920539,-1.488742 z m 18.8580963,0.04135 c 1.558006,0 3.29002,0.618448 3.29002,1.175324 0,0.25193 -0.03933,0.447936 -0.08616,0.435306 -0.04682,-0.01268 -0.391522,-0.150299 -0.766387,-0.304714 -0.374866,-0.154417 -1.332526,-0.289911 -2.129102,-0.302537 -1.049576,-0.01663 -1.448879,-0.15856 -1.448879,-0.513661 0,-0.338078 0.35268,-0.489718 1.14051,-0.489718 z m -0.936442,1.80434 c 0.886552,-0.08395 3.352421,0.684891 3.875014,1.288504 0.571032,0.659573 -0.0077,0.794242 -1.353648,0.317772 -0.656013,-0.232187 -1.527982,-0.432519 -1.938641,-0.446187 -0.887872,-0.02957 -1.346092,-0.599917 -0.857083,-1.068675 0.05188,-0.04974 0.147707,-0.07942 0.274358,-0.09141 z M 7.3334234,18.185965 c 0.3188261,0.02331 0.4716224,0.179126 0.4716224,0.467954 0,0.269508 -0.2041031,0.489718 -0.4534832,0.489718 -0.2493904,0 -1.2070439,0.365594 -2.1291034,0.81402 -1.9055846,0.926748 -1.8479436,0.909471 -1.8479436,0.548484 0,-0.447233 1.4711539,-1.622134 2.4941573,-1.993697 0.6620191,-0.240449 1.1459242,-0.349779 1.4647505,-0.326479 z"
     id="path4136"
     inkscape:connector-curvature="0"
     sodipodi:nodetypes="scssscssscccccscccssscccssssssscsscsscssscsscsssccsssscsssssscccssssssss" />
</svg>
