<?xml version="1.0" encoding="UTF-8" standalone="no"?>
<svg
   xmlns:dc="http://purl.org/dc/elements/1.1/"
   xmlns:cc="http://creativecommons.org/ns#"
   xmlns:rdf="http://www.w3.org/1999/02/22-rdf-syntax-ns#"
   xmlns:svg="http://www.w3.org/2000/svg"
   xmlns="http://www.w3.org/2000/svg"
   xmlns:sodipodi="http://sodipodi.sourceforge.net/DTD/sodipodi-0.dtd"
   xmlns:inkscape="http://www.inkscape.org/namespaces/inkscape"
   viewBox="0 0 30 30"
   id="svg2"
   version="1.1"
   inkscape:version="0.91 r13725"
   sodipodi:docname="category_unknown.svg">
  <metadata
     id="metadata14">
    <rdf:RDF>
      <cc:Work
         rdf:about="">
        <dc:format>image/svg+xml</dc:format>
        <dc:type
           rdf:resource="http://purl.org/dc/dcmitype/StillImage" />
        <dc:title />
      </cc:Work>
    </rdf:RDF>
  </metadata>
  <defs
     id="defs12" />
  <sodipodi:namedview
     pagecolor="#ffffff"
     bordercolor="#666666"
     borderopacity="1"
     objecttolerance="10"
     gridtolerance="10"
     guidetolerance="10"
     inkscape:pageopacity="0"
     inkscape:pageshadow="2"
     inkscape:window-width="1920"
     inkscape:window-height="1137"
     id="namedview10"
     showgrid="false"
     showguides="true"
     inkscape:guide-bbox="true"
     inkscape:zoom="6.114714"
     inkscape:cx="29.503424"
     inkscape:cy="22.038322"
     inkscape:window-x="-8"
     inkscape:window-y="-8"
     inkscape:window-maximized="1"
     inkscape:current-layer="svg2">
    <sodipodi:guide
       position="18.936083,16.85456"
       orientation="0,1"
       id="guide8083" />
  </sodipodi:namedview>
  <g
     id="g8090"
     transform="translate(-2,2)" />
  <g
     transform="matrix(1.818153,0,0,1.818153,78.259083,15.234747)"
     style="font-style:normal;font-weight:normal;font-size:12.5px;line-height:125%;font-family:sans-serif;letter-spacing:0px;word-spacing:0px;fill:#000000;fill-opacity:1;stroke:none;stroke-width:1px;stroke-linecap:butt;stroke-linejoin:miter;stroke-opacity:1"
     id="flowRoot8098">
    <path
       d="m -31.928906,-0.54453125 c 0,-1.44999995 -0.85,-2.00000005 -2.525,-2.00000005 -0.825,0 -2.0875,0.375 -2.0875,0.375 l 0.0625,0.7625 c 0,0 1.2375,-0.2874999 1.9375,-0.2874999 1.125,0 1.6625,0.3375 1.6625,1.22499995 0,0.7 -0.2125,0.9875 -1.1125,1.76249995 -0.6625,0.5625 -1.1625,1.05 -1.1625,1.6625 0,0.4250001 0.03529,0.7465992 0.03529,0.7465992 l 0.914706,0.015901 0,-0.4375 c 0,-0.5625 0.375,-0.9499999 1.1125,-1.5625 0.975,-0.81249995 1.1625,-1.18749995 1.1625,-2.26249995 z m -3.2,6.76249995 1.025,0 0,-1.3999999 -1.025,0 z"
       style="font-style:normal;font-variant:normal;font-weight:normal;font-stretch:normal;font-family:Titillium;-inkscape-font-specification:Titillium;fill:#000000;fill-opacity:1"
       id="path8107"
       inkscape:connector-curvature="0"
       sodipodi:nodetypes="ssccsscsccscsccccc" />
  </g>
  <path
     style="fill:#000000"
     d="M 14.001546,29.340475 C 11.494752,28.946315 10.255765,28.522345 9.0333876,27.640417 8.285422,27.100771 7.5788562,26.659242 7.4632409,26.659242 c -0.1156062,0 -0.8351172,0.460866 -1.5988942,1.024144 -0.7637783,0.56328 -1.4409076,0.968159 -1.5047306,0.899733 -0.333498,-0.357554 0.7351021,-1.529593 2.2716613,-2.491558 0.4788438,-0.299782 0.1832021,-1.14984 -0.3999035,-1.14984 -0.2444763,0 -1.2828252,0.458046 -2.3074416,1.017877 -1.024615,0.559832 -1.8998745,0.978275 -1.9450213,0.929876 -0.3612391,-0.387296 2.7975571,-2.806515 3.6644926,-2.806515 0.5556857,0 0.584112,-0.118767 0.2085186,-0.871193 -0.2319857,-0.464729 -0.4635971,-0.520094 -1.5352343,-0.366963 -0.694118,0.09919 -1.7125901,0.348226 -2.2632713,0.553424 -0.5506826,0.205195 -1.00124,0.261475 -1.00124,0.125059 0,-0.344929 2.0725884,-1.369123 3.2171834,-1.589814 L 5.217067,21.750745 4.8807015,19.696494 C 4.1935593,15.499986 4.6152799,9.5210572 5.8926771,5.3491908 6.2048982,4.3295069 6.6774565,3.2845711 6.9428043,3.027118 7.3900383,2.5931864 7.4710054,2.5960106 8.0519248,3.0658083 9.0066723,3.8379147 10.42678,5.8256945 11.465072,7.8433185 l 0.934491,1.8159188 1.067989,-0.2445034 c 0.587394,-0.1344823 2.2943,-0.2061023 3.793124,-0.1591711 2.624651,0.082184 2.730603,0.061876 2.873433,-0.5507288 0.265445,-1.1385202 2.055433,-4.9004064 2.568658,-5.3983674 0.430744,-0.4179331 0.562817,-0.4301413 0.951511,-0.08797 1.579261,1.3902476 4.096916,10.5607431 4.09741,14.9246961 2.16e-4,1.918098 0.0056,1.932214 0.736223,1.932214 1.056258,0 2.462266,0.478246 3.032452,1.031475 0.830052,0.805363 0.298281,0.96425 -1.279446,0.382286 -2.07646,-0.765932 -2.41185,-0.724534 -2.626703,0.32423 -0.09907,0.483575 -0.138649,0.902221 -0.08797,0.930326 0.05069,0.02811 0.654769,0.354221 1.342405,0.72471 0.687635,0.370488 1.314646,0.85354 1.393354,1.073452 0.181641,0.507479 -0.364061,0.5154 -1.048958,0.01522 -0.289659,-0.211536 -0.922579,-0.528905 -1.406488,-0.705263 -1.416946,-0.516396 -1.426791,0.301001 -0.02061,1.71208 1.333367,1.338025 1.053986,1.767408 -0.441852,0.679094 -0.550939,-0.400844 -1.119255,-0.728799 -1.262938,-0.728799 -0.143681,0 -0.670927,0.385652 -1.171653,0.857003 -1.179359,1.110175 -2.656663,1.908124 -4.470308,2.414588 -1.594472,0.445259 -5.1727,0.753554 -6.437656,0.554656 z m 6.551791,-1.708396 c 4.566148,-1.451401 6.234641,-3.887314 6.25438,-9.131067 0.0096,-2.559508 -0.242853,-4.175026 -1.252685,-8.015102 -0.675764,-2.5697202 -2.058476,-6.4407077 -2.300616,-6.4407077 -0.102694,0 -0.814137,1.3525488 -1.58098,3.0056633 l -1.394259,3.0056634 -2.871821,0.01706 c -1.579496,0.0094 -3.41987,0.114091 -4.08971,0.23268 -0.669843,0.118585 -1.36465,0.163171 -1.544019,0.09906 -0.179368,-0.0641 -0.748272,-1.0323385 -1.264235,-2.1516427 -0.9095532,-1.9731351 -2.6057102,-4.494749 -3.0233821,-4.494749 -0.6386306,0 -1.8948791,7.4095017 -1.8948791,11.1762077 0,8.031546 2.2664807,12.211843 7.1372392,13.163908 1.76975,0.345927 6.076042,0.08892 7.824967,-0.466985 z"
     id="path4149"
     inkscape:connector-curvature="0"
     sodipodi:nodetypes="sssssssscsssssscssssscsssssssssscscssssssssssssscssssssss" />
</svg>
