<?xml version="1.0" encoding="UTF-8" standalone="no"?>
<svg
   xmlns:dc="http://purl.org/dc/elements/1.1/"
   xmlns:cc="http://creativecommons.org/ns#"
   xmlns:rdf="http://www.w3.org/1999/02/22-rdf-syntax-ns#"
   xmlns:svg="http://www.w3.org/2000/svg"
   xmlns="http://www.w3.org/2000/svg"
   xmlns:sodipodi="http://sodipodi.sourceforge.net/DTD/sodipodi-0.dtd"
   xmlns:inkscape="http://www.inkscape.org/namespaces/inkscape"
   version="1.1"
   id="svg2"
   viewBox="0 0 30 30"
   inkscape:version="0.91 r13725"
   sodipodi:docname="category_dual.svg">
  <sodipodi:namedview
     pagecolor="#ffffff"
     bordercolor="#666666"
     borderopacity="1"
     objecttolerance="10"
     gridtolerance="10"
     guidetolerance="10"
     inkscape:pageopacity="0"
     inkscape:pageshadow="2"
     inkscape:window-width="1920"
     inkscape:window-height="1137"
     id="namedview8"
     showgrid="false"
     inkscape:zoom="7.8666667"
     inkscape:cx="39.40678"
     inkscape:cy="18.813559"
     inkscape:window-x="-8"
     inkscape:window-y="-8"
     inkscape:window-maximized="1"
     inkscape:current-layer="svg2" />
  <metadata
     id="metadata14">
    <rdf:RDF>
      <cc:Work
         rdf:about="">
        <dc:format>image/svg+xml</dc:format>
        <dc:type
           rdf:resource="http://purl.org/dc/dcmitype/StillImage" />
        <dc:title />
      </cc:Work>
    </rdf:RDF>
  </metadata>
  <defs
     id="defs12" />
  <path
     sodipodi:nodetypes="cssssssssssssccsscsssssssssssccssssssssssssssssssssssssssscss"
     inkscape:connector-curvature="0"
     id="path4151"
     d="M 4.8562654,16.465926 C 2.4567629,15.83209 0.79562608,14.01817 0.2126488,11.395218 -0.18487963,9.6066416 0.06187668,4.3459853 0.62834686,2.5328425 1.0001875,1.3426619 1.7186514,0.57049717 2.3195544,0.71522781 2.8151461,0.83459363 3.5798324,1.8809646 4.2015871,3.29054 4.5607581,4.1048126 4.620504,4.1580166 5.0466742,4.0431181 5.6250609,3.8871807 8.813074,3.8812182 9.5259301,4.0347398 c 0.4920549,0.1059714 0.5524939,0.06939 0.7495999,-0.4537006 0.318206,-0.8444678 1.542455,-2.5325173 2.125776,-2.93111633 0.695547,-0.47528484 1.125926,-0.30249598 1.63155,0.65503553 0.92687,1.7552714 1.057653,2.5256859 1.05422,6.2101672 -0.0026,2.8557674 -0.05756,3.6034284 -0.328696,4.4762344 -0.701297,2.257553 -2.485001,3.763131 -5.2824364,4.458765 -1.2557837,0.312272 -3.4686712,0.319841 -4.6196782,0.0158 z M 9.0671132,14.735318 C 10.530816,13.982007 10.717226,11.699443 9.4052969,10.594317 7.5212787,9.0072816 4.3717872,10.188771 4.3727631,12.482201 c 3.485e-4,0.975297 0.4924912,1.749417 1.3872704,2.182419 0.9828844,0.475638 2.4589602,0.507193 3.3070797,0.0707 z M 7.643059,12.960772 C 7.3665097,12.822328 7.1246662,12.787691 7.0663876,12.878183 6.9033714,13.131304 5.814576,13.056112 5.5177143,12.771229 5.1484775,12.416894 5.1667811,12.130961 5.5488334,12.285071 c 0.7837753,0.316151 1.0581601,0.280945 1.370004,-0.175781 0.305176,-0.446959 0.3033094,-0.462809 -0.090538,-0.768857 -0.6038869,-0.469262 -0.3586032,-0.814992 0.578213,-0.814992 0.907939,0 1.2034899,0.286759 0.6554556,0.635955 -0.4941398,0.314855 -0.5187909,1.138348 -0.038457,1.284648 0.1869097,0.05693 0.5790229,-0.01519 0.8713637,-0.160266 0.4029661,-0.19997 0.5308839,-0.212169 0.5288604,-0.05042 -0.00388,0.309704 -0.2066547,0.555061 -0.6393982,0.773647 -0.4836378,0.244293 -0.5637126,0.24091 -1.1412794,-0.04822 z M 3.6154241,9.3140041 c 0.2126128,-0.049193 0.5908666,0.049199 0.8713638,0.2266717 0.6260524,0.3961016 0.757069,0.3949716 0.757069,-0.00653 0,-0.4078653 -0.7912801,-1.0155757 -1.3223488,-1.0155757 -0.6242241,0 -1.2333859,0.3294037 -1.4490119,0.7835525 C 2.1962686,9.8839039 2.4134213,10.117221 2.8659919,9.7249062 3.0715415,9.5467198 3.4087872,9.3618153 3.6154241,9.3140047 Z M 11.960725,8.9003238 C 11.338409,8.386631 10.48387,8.398319 9.887534,8.9286753 9.6339127,9.1542388 9.4264045,9.4131989 9.4264045,9.5041437 c 0,0.3093648 0.3695496,0.3859105 0.6645045,0.1376399 0.544887,-0.4586398 0.989854,-0.478208 1.615244,-0.071039 0.585349,0.3811026 0.596812,0.3819684 0.656405,0.049601 C 12.400048,9.411259 12.246587,9.1362807 11.960725,8.9003171 Z M 13.896951,4.2136469 C 13.476708,2.0973242 13.05521,1.4464561 12.47323,2.0151644 c -0.337194,0.3295003 -1.47837,2.1832521 -1.47837,2.4014931 0,0.1003071 0.370924,0.2874764 0.824274,0.4159332 0.471967,0.1337314 1.123724,0.5026402 1.524886,0.8631202 0.692926,0.6226561 0.701217,0.6250974 0.755607,0.2225538 0.03025,-0.2238548 -0.06096,-0.9909329 -0.202676,-1.7046178 z M 3.0657626,4.6414879 C 3.5814741,4.4159972 3.5853691,4.3843538 3.2108464,3.4629537 2.7549645,2.3413967 2.2931556,1.7785204 2.0123516,2.002163 1.6476457,2.2926265 1.2532943,3.6266344 1.1242174,5.0065352 L 1.00689,6.2608314 1.8186422,5.5463405 C 2.2651064,5.1533696 2.82631,4.7461865 3.0657626,4.6414879 Z"
     style="fill:#000000;fill-opacity:1;stroke:#000000;stroke-width:0.17071995;stroke-opacity:1" />
  <path
     style="fill:#000000;fill-opacity:1;stroke:#000000;stroke-width:0.17071995;stroke-opacity:1"
     d="m 18.076604,28.923553 c -2.399502,-0.633836 -4.060639,-2.447756 -4.643616,-5.070708 -0.397529,-1.788576 -0.150772,-7.049233 0.415698,-8.862375 0.37184,-1.190181 1.090304,-1.962346 1.691207,-1.817615 0.495592,0.119366 1.260278,1.165737 1.882033,2.575312 0.359171,0.814273 0.418917,0.867477 0.845087,0.752578 0.578387,-0.155937 3.7664,-0.1619 4.479256,-0.0084 0.492055,0.105971 0.552494,0.06939 0.7496,-0.453701 0.318206,-0.844467 1.542455,-2.532517 2.125776,-2.931116 0.695547,-0.475285 1.125926,-0.302496 1.63155,0.655036 0.92687,1.755271 1.057653,2.525685 1.05422,6.210167 -0.0026,2.855767 -0.05756,3.603428 -0.328696,4.476234 -0.701297,2.257553 -2.485001,3.763131 -5.282436,4.458765 -1.255784,0.312272 -3.468672,0.319841 -4.619679,0.0158 z m 4.210848,-1.730608 c 1.463703,-0.753311 1.650113,-3.035875 0.338184,-4.141001 -1.884018,-1.587035 -5.03351,-0.405546 -5.032534,1.887884 3.49e-4,0.975297 0.492491,1.749417 1.38727,2.182419 0.982885,0.475638 2.458961,0.507193 3.30708,0.0707 z m -1.424054,-1.774546 c -0.276549,-0.138444 -0.518393,-0.173081 -0.576671,-0.08259 -0.163017,0.253121 -1.251812,0.177929 -1.548674,-0.106954 -0.369237,-0.354335 -0.350933,-0.640268 0.03112,-0.486158 0.783776,0.316151 1.05816,0.280945 1.370004,-0.175781 0.305176,-0.446959 0.30331,-0.462809 -0.09054,-0.768857 -0.603887,-0.469262 -0.358603,-0.814992 0.578213,-0.814992 0.907939,0 1.20349,0.286759 0.655456,0.635955 -0.49414,0.314855 -0.518791,1.138348 -0.03846,1.284648 0.18691,0.05693 0.579023,-0.01519 0.871364,-0.160266 0.402966,-0.19997 0.530884,-0.212169 0.52886,-0.05042 -0.0039,0.309704 -0.206655,0.555061 -0.639398,0.773647 -0.483638,0.244293 -0.563713,0.24091 -1.14128,-0.04822 z m -4.027635,-3.646768 c 0.212613,-0.04919 0.590867,0.0492 0.871364,0.226672 0.626052,0.396102 0.757069,0.394972 0.757069,-0.0065 0,-0.407865 -0.79128,-1.015576 -1.322349,-1.015576 -0.624224,0 -1.233386,0.329404 -1.449012,0.783553 -0.276227,0.581781 -0.05907,0.815098 0.393496,0.422783 0.205549,-0.178186 0.542795,-0.363091 0.749432,-0.410901 z m 8.345301,-0.41368 c -0.622316,-0.513693 -1.476855,-0.502005 -2.073191,0.02835 -0.253621,0.225564 -0.46113,0.484524 -0.46113,0.575469 0,0.309365 0.36955,0.38591 0.664505,0.13764 0.544887,-0.45864 0.989854,-0.478208 1.615244,-0.07104 0.585349,0.381102 0.596812,0.381968 0.656405,0.0496 0.03749,-0.209087 -0.115971,-0.484065 -0.401833,-0.720029 z m 1.936226,-4.686677 c -0.420243,-2.116323 -0.841741,-2.767191 -1.423721,-2.198482 -0.337194,0.3295 -1.47837,2.183252 -1.47837,2.401493 0,0.100307 0.370924,0.287476 0.824274,0.415933 0.471967,0.133731 1.123724,0.50264 1.524886,0.86312 0.692926,0.622656 0.701217,0.625097 0.755607,0.222554 0.03025,-0.223855 -0.06096,-0.990933 -0.202676,-1.704618 z m -10.831188,0.427841 c 0.515711,-0.225491 0.519606,-0.257134 0.145083,-1.178534 -0.455882,-1.121557 -0.91769,-1.684433 -1.198494,-1.460791 -0.364706,0.290464 -0.759058,1.624472 -0.888135,3.004372 l -0.117327,1.254297 0.811752,-0.714491 c 0.446464,-0.392971 1.007668,-0.800154 1.247121,-0.904853 z"
     id="path4135"
     inkscape:connector-curvature="0"
     sodipodi:nodetypes="cssssssssssssccsscsssssssssssccssssssssssssssssssssssssssscss" />
</svg>
