<?xml version="1.0" encoding="UTF-8" standalone="no"?>
<svg
   xmlns:dc="http://purl.org/dc/elements/1.1/"
   xmlns:cc="http://creativecommons.org/ns#"
   xmlns:rdf="http://www.w3.org/1999/02/22-rdf-syntax-ns#"
   xmlns:svg="http://www.w3.org/2000/svg"
   xmlns="http://www.w3.org/2000/svg"
   xmlns:sodipodi="http://sodipodi.sourceforge.net/DTD/sodipodi-0.dtd"
   xmlns:inkscape="http://www.inkscape.org/namespaces/inkscape"
   viewBox="0 0 30 30"
   id="svg2"
   version="1.1"
   inkscape:version="0.91 r13725"
   sodipodi:docname="category_speed.svg">
  <metadata
     id="metadata16">
    <rdf:RDF>
      <cc:Work
         rdf:about="">
        <dc:format>image/svg+xml</dc:format>
        <dc:type
           rdf:resource="http://purl.org/dc/dcmitype/StillImage" />
      </cc:Work>
    </rdf:RDF>
  </metadata>
  <defs
     id="defs14" />
  <sodipodi:namedview
     pagecolor="#ffffff"
     bordercolor="#666666"
     borderopacity="1"
     objecttolerance="10"
     gridtolerance="10"
     guidetolerance="10"
     inkscape:pageopacity="0"
     inkscape:pageshadow="2"
     inkscape:window-width="1920"
     inkscape:window-height="1137"
     id="namedview12"
     showgrid="false"
     showguides="false"
     inkscape:zoom="15.733333"
     inkscape:cx="-4.449153"
     inkscape:cy="15"
     inkscape:window-x="-8"
     inkscape:window-y="-8"
     inkscape:window-maximized="1"
     inkscape:current-layer="svg2" />
  <path
     style="fill:#000000"
     d="M 10.786471,28.709949 C 8.7038777,28.232908 5.8004926,26.932752 4.3716568,25.83735 3.0327772,24.81091 1.4030674,22.26865 0.76686494,20.214077 0.02636346,17.822658 0.08778992,14.926432 0.9318192,12.435984 1.5578973,10.588663 1.5756438,10.380701 1.1738443,9.5997265 0.47794435,8.2471199 0.82918765,5.5784419 2.0405571,3.0145848 2.5976634,1.8354758 3.1325989,0.87074853 3.2293006,0.87074853 c 0.3966207,0 2.9029218,1.88521317 3.8438382,2.89129497 L 8.0828674,4.841702 9.8673766,4.2834602 C 12.317516,3.5169892 17.230454,3.5097812 19.95329,4.2687526 l 1.949868,0.5434516 1.460185,-1.5032706 c 1.62071,-1.6685258 2.518748,-2.1063214 3.183373,-1.551905 0.725359,0.6050746 1.737584,2.8852213 2.097795,4.725522 0.294726,1.5057262 0.276904,1.8736818 -0.132785,2.7414396 -0.434133,0.9195448 -0.436243,1.0911738 -0.02556,2.0790978 1.80923,4.352255 0.733249,9.995011 -2.585986,13.561704 -2.562976,2.754051 -5.533345,3.944975 -10.323,4.138865 -1.991974,0.08063 -3.582423,-0.01681 -4.790723,-0.293618 z m 7.346666,-1.021943 C 24.465635,26.672993 28.624202,21.73375 28.302813,15.609201 28.02443,10.304239 24.629393,6.4977892 18.854451,5.0158986 15.23225,4.0864153 11.217803,4.5895517 7.4309346,6.4476293 -0.24588609,10.214364 -0.84711528,21.230188 6.3706664,25.87401 9.230998,27.714311 13.684294,28.401091 18.133137,27.688006 Z M 12.287588,25.31425 C 11.805976,25.095123 10.780572,24.354719 10.008916,23.668911 9.2372615,22.983102 7.9844886,22.103777 7.2249793,21.714852 4.6791958,20.411239 3.6871064,17.693755 4.6020659,14.530297 5.3961903,11.784626 7.735289,9.271583 10.1494,8.5704506 c 3.567963,-1.0362503 7.922056,-0.9117539 10.407481,0.2975779 2.501521,1.2171625 4.966799,4.8242985 4.953848,7.2483565 -0.01249,2.337235 -1.974403,4.988056 -4.460333,6.026534 -0.589218,0.246143 -1.742438,1.111916 -2.562715,1.923951 -1.467696,1.452938 -1.521897,1.477767 -3.407923,1.561104 -1.203862,0.05322 -2.242116,-0.06347 -2.79217,-0.313724 z m 1.925379,-3.536907 c 0.425157,-0.366388 0.575233,-0.349313 1.277967,0.145405 0.437939,0.308304 0.955992,0.503937 1.151237,0.434742 0.589943,-0.209078 0.399804,-0.822416 -0.36329,-1.171885 -0.395055,-0.180918 -0.832506,-0.619002 -0.972115,-0.97352 -0.202739,-0.514825 -0.117609,-0.759819 0.422931,-1.217089 0.968082,-0.818956 0.52966,-1.342441 -1.030177,-1.230047 -0.918544,0.06618 -1.272225,0.221566 -1.341647,0.589412 -0.05741,0.304226 0.08042,0.499532 0.352543,0.499532 0.305222,0 0.446811,0.26625 0.446811,0.840201 0,0.630849 -0.212286,0.966245 -0.851977,1.346055 -0.812495,0.482409 -1.051658,0.943259 -0.68222,1.314586 0.221331,0.222467 0.982574,-0.05399 1.589937,-0.577399 z m -3.361829,-4.103709 c 0.668582,-0.738113 0.783746,-1.070081 0.652729,-1.881583 -0.206734,-1.280448 -0.594194,-1.719408 -1.8173276,-2.058859 -1.2528015,-0.347684 -2.4286467,0.192203 -3.0503293,1.400556 -0.5507484,1.070477 -0.5442182,1.717687 0.025587,2.535347 1.0024533,1.438528 2.888585,1.440571 4.1893479,0.0047 z M 8.5730092,17.358533 C 7.8521453,17.027114 7.6214291,16.361921 7.9333688,15.514354 c 0.4190957,-1.13873 2.1960742,-1.091836 2.6395102,0.06966 0.403698,1.0574 -0.9489962,2.257667 -1.9998698,1.774522 z m 13.8418728,0.375538 c 1.72039,-1.729193 0.522978,-4.018215 -2.101968,-4.018215 -1.21175,0 -2.090499,0.654305 -2.325971,1.731891 -0.572362,2.61928 2.512138,4.211929 4.427939,2.286324 z m -3.258158,-0.922433 c -0.533769,-0.765962 -0.174568,-1.573017 0.879356,-1.97577 1.384304,-0.529005 2.370703,1.116822 1.269621,2.118386 -0.716962,0.652163 -1.637707,0.591061 -2.148977,-0.142622 z"
     id="path4155"
     inkscape:connector-curvature="0"
     sodipodi:nodetypes="cssssssscsscsssssssccsssssssssssssssssssssssscssssscssssccssssssssssss" />
</svg>
