<?xml version="1.0" encoding="UTF-8" standalone="no"?>
<svg
   xmlns:dc="http://purl.org/dc/elements/1.1/"
   xmlns:cc="http://creativecommons.org/ns#"
   xmlns:rdf="http://www.w3.org/1999/02/22-rdf-syntax-ns#"
   xmlns:svg="http://www.w3.org/2000/svg"
   xmlns="http://www.w3.org/2000/svg"
   xmlns:sodipodi="http://sodipodi.sourceforge.net/DTD/sodipodi-0.dtd"
   xmlns:inkscape="http://www.inkscape.org/namespaces/inkscape"
   viewBox="0 0 30 30"
   id="svg2"
   version="1.1"
   inkscape:version="0.91 r13725"
   sodipodi:docname="category_travel.svg">
  <metadata
     id="metadata14">
    <rdf:RDF>
      <cc:Work
         rdf:about="">
        <dc:format>image/svg+xml</dc:format>
        <dc:type
           rdf:resource="http://purl.org/dc/dcmitype/StillImage" />
        <dc:title />
      </cc:Work>
    </rdf:RDF>
  </metadata>
  <defs
     id="defs12" />
  <sodipodi:namedview
     pagecolor="#ffffff"
     bordercolor="#666666"
     borderopacity="1"
     objecttolerance="10"
     gridtolerance="10"
     guidetolerance="10"
     inkscape:pageopacity="0"
     inkscape:pageshadow="2"
     inkscape:window-width="1920"
     inkscape:window-height="1137"
     id="namedview10"
     showgrid="false"
     showguides="true"
     inkscape:guide-bbox="true"
     inkscape:zoom="1.5286785"
     inkscape:cx="-4.0443417"
     inkscape:cy="10.756602"
     inkscape:window-x="-8"
     inkscape:window-y="-8"
     inkscape:window-maximized="1"
     inkscape:current-layer="svg2">
    <sodipodi:guide
       position="18.936083,16.85456"
       orientation="0,1"
       id="guide8083" />
  </sodipodi:namedview>
  <path
     style="fill:#000000"
     d="M 10.737432,28.16662 C 6.7600589,27.099379 4.0065882,24.04514 3.0402554,19.628664 2.3813194,16.617097 2.7903383,7.7593124 3.7293092,4.7063804 4.3456655,2.7023786 5.5365814,1.4022227 6.5326247,1.6459174 c 0.8214839,0.2009853 2.0890145,1.962844 3.1196269,4.336257 0.5953554,1.371056 0.6943864,1.46064 1.4007984,1.267176 0.958727,-0.262564 6.243116,-0.272603 7.424733,-0.01411 0.81562,0.178432 0.915803,0.116836 1.242523,-0.763932 0.527453,-1.421897 2.556746,-4.2642003 3.523648,-4.9353528 1.152927,-0.80027493 1.866316,-0.509337 2.70443,1.1029355 1.536363,2.9554903 1.753146,4.2526973 1.747456,10.4565519 -0.0044,4.808483 -0.09541,6.067377 -0.544841,7.536991 -1.162456,3.801223 -4.119094,6.336283 -8.756073,7.507576 -2.081561,0.525799 -5.749605,0.538544 -7.657494,0.02661 z m 6.979825,-2.913963 c 2.426205,-1.268409 2.735196,-5.111744 0.560566,-6.972533 -3.122914,-2.672217 -8.3434537,-0.682849 -8.3418331,3.178781 5.777e-4,1.642186 0.8163421,2.945634 2.2995121,3.674713 1.629215,0.800869 4.075927,0.854001 5.481755,0.119039 z m -2.360484,-2.987944 c -0.458405,-0.23311 -0.85928,-0.291431 -0.955882,-0.139063 -0.270213,0.426202 -2.074978,0.299594 -2.567053,-0.180085 -0.612041,-0.596623 -0.581701,-1.078071 0.05158,-0.818584 1.29917,0.532329 1.753987,0.473051 2.270893,-0.295976 0.505855,-0.752581 0.502761,-0.779268 -0.150074,-1.294586 -1.000992,-0.790134 -0.594414,-1.372266 0.958435,-1.372266 1.504983,0 1.994882,0.482839 1.086471,1.070808 -0.819074,0.530147 -0.859938,1.916727 -0.06375,2.163063 0.309821,0.09586 0.959779,-0.02557 1.444358,-0.269852 0.667948,-0.336705 0.879983,-0.357245 0.876629,-0.08491 -0.0064,0.521473 -0.342546,0.934601 -1.059855,1.30265 -0.80167,0.411337 -0.934401,0.40564 -1.891761,-0.0812 z M 8.6806354,16.12436 c 0.3524232,-0.08283 0.9794129,0.08285 1.4443576,0.381665 1.037733,0.666948 1.254904,0.665045 1.254904,-0.01101 0,-0.686756 -1.311613,-1.710006 -2.1918993,-1.710006 -1.0347058,0 -2.0444417,0.554643 -2.4018595,1.31933 -0.4578699,0.979597 -0.097922,1.372452 0.6522516,0.711879 0.3407152,-0.300024 0.8997278,-0.611364 1.2422456,-0.691866 z M 22.513655,15.427814 c -1.03154,-0.864946 -2.448009,-0.845266 -3.436484,0.04774 -0.420397,0.379798 -0.76436,0.81583 -0.76436,0.968961 0,0.520902 0.612558,0.649788 1.10147,0.231755 0.903194,-0.772247 1.640764,-0.805197 2.677399,-0.119612 0.970265,0.641692 0.989267,0.64315 1.088046,0.08352 0.06214,-0.352055 -0.192232,-0.815058 -0.666071,-1.212368 z M 25.72311,7.5364834 c -0.696587,-3.563421 -1.395254,-4.659339 -2.359936,-3.70176 -0.558926,0.554807 -2.450519,3.676116 -2.450519,4.043585 0,0.168895 0.614836,0.484047 1.366301,0.70034 0.782324,0.225174 1.862667,0.846335 2.527626,1.4533036 1.148582,1.048416 1.162323,1.052527 1.25248,0.374732 0.05013,-0.376923 -0.101044,-1.6685126 -0.335952,-2.8702006 z M 7.769526,8.2568734 C 8.6243603,7.8771964 8.6308166,7.8239154 8.0100144,6.2724814 7.2543527,4.3840274 6.4888693,3.4362674 6.0234107,3.8128324 5.4188808,4.3019094 4.7652109,6.5480844 4.5512553,8.8715324 L 4.3567755,10.983491 5.7023214,9.7804464 C 6.4423725,9.1187694 7.3726166,8.4331624 7.769526,8.2568734 Z"
     id="path4148"
     inkscape:connector-curvature="0"
     sodipodi:nodetypes="cssssssssssssccsscsssssssssssccsscsssssccsssssssssssssssssscss" />
</svg>
