<?xml version="1.0" encoding="UTF-8" standalone="no"?>
<svg
   xmlns:dc="http://purl.org/dc/elements/1.1/"
   xmlns:cc="http://creativecommons.org/ns#"
   xmlns:rdf="http://www.w3.org/1999/02/22-rdf-syntax-ns#"
   xmlns:svg="http://www.w3.org/2000/svg"
   xmlns="http://www.w3.org/2000/svg"
   xmlns:sodipodi="http://sodipodi.sourceforge.net/DTD/sodipodi-0.dtd"
   xmlns:inkscape="http://www.inkscape.org/namespaces/inkscape"
   viewBox="0 0 19 19"
   id="svg2"
   version="1.1"
   inkscape:version="0.91 r13725"
   sodipodi:docname="category_machine.svg">
  <metadata
     id="metadata10">
    <rdf:RDF>
      <cc:Work
         rdf:about="">
        <dc:format>image/svg+xml</dc:format>
        <dc:type
           rdf:resource="http://purl.org/dc/dcmitype/StillImage" />
      </cc:Work>
    </rdf:RDF>
  </metadata>
  <defs
     id="defs8" />
  <sodipodi:namedview
     pagecolor="#ffffff"
     bordercolor="#666666"
     borderopacity="1"
     objecttolerance="10"
     gridtolerance="10"
     guidetolerance="10"
     inkscape:pageopacity="0"
     inkscape:pageshadow="2"
     inkscape:window-width="1787"
     inkscape:window-height="840"
     id="namedview6"
     showgrid="false"
     inkscape:zoom="4.6385047"
     inkscape:cx="46.853225"
     inkscape:cy="11.400035"
     inkscape:window-x="71"
     inkscape:window-y="60"
     inkscape:window-maximized="0"
     inkscape:current-layer="svg2" />
  <path
     style="fill:#000000"
     d="M 7.6289944,16.834764 C 5.1949568,16.208848 3.3084262,14.84741 2.5093911,13.140136 0.94690463,9.8016282 1.6152971,4.3855726 3.8909403,1.9452693 4.2651675,1.5439646 4.6779213,1.2156234 4.8081719,1.2156234 c 0.3216921,0 1.5728278,1.4016263 2.0833333,2.3339217 L 7.3071586,4.3086236 9.9448915,4.2629796 12.582624,4.2173417 13.106462,3.2023241 C 13.39457,2.6440659 14.008851,1.8295515 14.471528,1.3922927 L 15.31276,0.59727697 15.692937,1.0389527 c 0.565158,0.6565765 1.711729,3.1104626 2.0524,4.3925435 0.680647,2.5615252 0.492087,5.7253448 -0.457918,7.6833588 -0.520783,1.073362 -1.78905,2.434712 -2.806306,3.01227 -1.685775,0.957117 -4.6796189,1.266301 -6.8521186,0.707639 z M 13.18956,15.871411 c 0.788362,-0.29071 1.391556,-0.692408 2.165194,-1.441917 0.589816,-0.57142 1.019311,-1.090369 0.954436,-1.153221 -0.06488,-0.06285 -0.505816,-0.142872 -0.979868,-0.17782 C 13.392843,12.955687 11.826963,11.745483 11.195863,9.9038698 10.877204,8.9739957 10.560828,6.8522579 10.552349,5.5882083 10.543448,4.26072 10.245143,4.6118021 10.104515,6.1152878 9.9292521,7.9890594 9.5287258,9.7419169 9.0819783,10.5903 8.1584203,12.34416 6.054569,13.526577 4.1811171,13.34471 L 3.1950669,13.248983 4.0899383,14.137 c 1.6276244,1.61516 3.630098,2.307614 6.3656007,2.201213 1.137532,-0.04424 1.976599,-0.187507 2.734021,-0.466806 z M 8.2396151,13.660157 C 7.6691842,13.107517 7.7872425,12.913311 8.441252,13.32847 9.4023095,13.938539 10.286805,12.964627 9.5185826,12.142227 9.1215555,11.7172 9.4698586,11.285819 10.210054,11.285819 c 0.641971,0 0.861394,0.419223 0.449958,0.859676 -0.162608,0.174076 -0.295652,0.487605 -0.295652,0.696734 0,0.465401 0.741501,0.695516 1.360587,0.422239 0.366419,-0.161745 0.410332,-0.143361 0.333904,0.139783 -0.130457,0.483311 -1.011119,0.791392 -1.515166,0.530047 -0.289883,-0.150302 -0.455993,-0.154397 -0.60009,-0.01479 -0.3570585,0.345922 -1.2138244,0.215521 -1.7039799,-0.259346 z m -0.8000832,-2.58432 c 0.3613362,-0.375752 0.510804,-1.027892 0.2350519,-1.025544 -0.075223,7.32e-4 -0.3829513,0.15912 -0.6838417,0.352176 -0.5835776,0.374433 -1.455205,0.46826 -1.6412191,0.17667 -0.1997635,-0.313145 -0.6382522,-0.187859 -0.6382522,0.182362 0,0.745103 2.0832143,0.985118 2.7282611,0.314336 z m 7.6255521,-0.06504 c 0.717896,-0.487152 0.518836,-0.76115 -0.404289,-0.556497 -0.669957,0.148527 -0.890998,0.127797 -1.281656,-0.120188 -0.749318,-0.4756597 -1.130083,-0.01947 -0.524686,0.628624 0.379218,0.405963 1.642723,0.433432 2.210631,0.04806 z"
     id="path4145"
     inkscape:connector-curvature="0"
     sodipodi:nodetypes="ssssscccsscsssssssssssssscssscsssssssscccscsssssssss" />
</svg>
