<?xml version="1.0" encoding="UTF-8" standalone="no"?>
<svg
   xmlns:dc="http://purl.org/dc/elements/1.1/"
   xmlns:cc="http://creativecommons.org/ns#"
   xmlns:rdf="http://www.w3.org/1999/02/22-rdf-syntax-ns#"
   xmlns:svg="http://www.w3.org/2000/svg"
   xmlns="http://www.w3.org/2000/svg"
   xmlns:sodipodi="http://sodipodi.sourceforge.net/DTD/sodipodi-0.dtd"
   xmlns:inkscape="http://www.inkscape.org/namespaces/inkscape"
   viewBox="0 0 30 30"
   id="svg2"
   version="1.1"
   inkscape:version="0.91 r13725"
   sodipodi:docname="category_layer_height.svg">
  <metadata
     id="metadata14">
    <rdf:RDF>
      <cc:Work
         rdf:about="">
        <dc:format>image/svg+xml</dc:format>
        <dc:type
           rdf:resource="http://purl.org/dc/dcmitype/StillImage" />
      </cc:Work>
    </rdf:RDF>
  </metadata>
  <defs
     id="defs12" />
  <sodipodi:namedview
     pagecolor="#ffffff"
     bordercolor="#666666"
     borderopacity="1"
     objecttolerance="10"
     gridtolerance="10"
     guidetolerance="10"
     inkscape:pageopacity="0"
     inkscape:pageshadow="2"
     inkscape:window-width="1894"
     inkscape:window-height="899"
     id="namedview10"
     showgrid="false"
     inkscape:zoom="9.7234692"
     inkscape:cx="19.951064"
     inkscape:cy="13.726694"
     inkscape:window-x="0"
     inkscape:window-y="31"
     inkscape:window-maximized="0"
     inkscape:current-layer="svg2" />
  <path
     style="fill:#000000"
     d="M 3.3994239,27.424501 C 3.2952008,27.266544 3.6023945,26.679862 4.0820752,26.120762 L 4.9542243,25.104216 4.3758047,24.613902 C 3.8080232,24.132604 3.7790152,24.144308 2.7980276,25.250505 2.2483767,25.870309 1.6810938,26.37742 1.5373956,26.37742 c -0.5240189,0 -0.2387848,-0.690325 0.6884203,-1.666126 L 3.1750576,23.7123 2.3342925,22.12341 C 1.1820574,19.945908 0.77227857,16.738936 1.221031,13.410921 1.7793911,9.2700491 4.1311284,3.1610841 5.1668557,3.1610841 c 0.2792456,0 1.4837618,0.9306549 2.6766999,2.0681219 l 2.1689824,2.0681218 4.392318,-0.094365 4.392319,-0.094365 1.424475,-1.6873419 c 2.851118,-3.3772484 3.462713,-3.1112612 5.540915,2.4097809 1.790132,4.7557463 2.064392,10.7981363 0.614694,13.5426913 l -0.578524,1.095256 1.057541,0.875695 c 0.581645,0.481629 1.153692,0.880689 1.271211,0.886797 0.117519,0.0061 0.213671,0.184148 0.213671,0.395641 0,0.829346 -0.669449,0.693253 -1.74441,-0.354623 -0.619134,-0.603529 -1.229268,-1.097326 -1.355857,-1.097326 -0.126591,0 -0.464755,0.242807 -0.75148,0.539571 -0.509115,0.526942 -0.500144,0.560034 0.383187,1.41369 1.029733,0.995141 1.152694,1.515846 0.357951,1.515846 -0.317319,0 -0.805025,-0.391731 -1.162816,-0.933991 -0.338946,-0.513694 -0.672657,-0.93399 -0.741583,-0.93399 -0.06892,0 -0.60333,0.292085 -1.187567,0.64908 -2.097391,1.281598 -4.405503,1.788747 -8.064367,1.771935 -3.599994,-0.01655 -5.8067593,-0.341598 -7.3707789,-1.085718 L 5.7206062,25.643987 4.9210568,26.67784 c -0.8230817,1.064279 -1.192468,1.245535 -1.5216329,0.746661 z M 18.142138,25.81052 C 26.369513,24.175393 28.69724,16.573599 24.114561,6.3060303 23.54038,5.0195758 22.97991,3.965813 22.869062,3.9643346 c -0.240237,-0.00321 -3.12368,3.348911 -3.597922,4.1827271 -0.182336,0.3205829 -0.331518,1.164475 -0.331518,1.8753163 0,1.431731 -0.595599,2.478611 -1.410151,2.478611 -0.695656,0 -0.869009,-0.510063 -0.869009,-2.5569432 0,-1.638123 -0.03031,-1.7127275 -0.695662,-1.7127275 -0.684128,0 -0.693107,0.029869 -0.541612,1.8012677 0.174512,2.040528 -0.192954,3.268967 -0.977857,3.268967 -0.965193,0 -1.20361,-0.565598 -1.20361,-2.855343 0,-2.184649 -0.0097,-2.2148917 -0.712238,-2.2148917 -0.674409,0 -0.712237,0.078888 -0.712237,1.4852421 0,1.6870276 -0.360458,2.5175746 -1.092624,2.5175746 -0.8709954,0 -1.1865362,-0.589417 -1.1865362,-2.216397 0,-1.3036907 -0.127878,-1.7209069 -0.7402114,-2.4150327 C 7.550299,6.1884889 5.506442,4.2285018 5.2792838,4.2285018 c -0.3373414,0 -2.5275716,6.3362982 -2.8884396,8.3562002 -0.1786634,1.000047 -0.2703483,2.981441 -0.2037484,4.403098 0.1013657,2.163682 0.2507846,2.823965 0.9170743,4.052531 1.4510587,2.675598 3.1631468,3.927482 6.3655693,4.654519 2.0147926,0.457412 6.6423136,0.519133 8.6723986,0.11567 z m -5.755102,-2.456833 c 0,-0.195353 0.322769,-0.51699 0.717263,-0.714748 0.99311,-0.497839 1.36091,-1.84472 0.673894,-2.467795 -0.629459,-0.570877 -0.418479,-1.216243 0.46555,-1.424069 0.778749,-0.183079 1.846928,0.291066 1.846928,0.819814 0,0.206668 -0.267465,0.551235 -0.594365,0.765707 -0.726297,0.476506 -0.447111,1.123841 0.915482,2.122704 0.881585,0.646255 0.91863,1.253576 0.07646,1.253576 -0.232912,0 -0.738157,-0.294754 -1.122765,-0.655008 l -0.699289,-0.655005 -0.699289,0.655005 c -0.75963,0.711531 -1.579871,0.867192 -1.579871,0.299819 z M 7.596432,19.975737 C 6.3428113,19.697808 5.3282402,18.765909 4.9325865,17.528959 4.4132799,15.905427 4.7862074,15.703242 8.3000914,15.703242 c 4.8367196,0 6.0493416,0.905621 4.0157206,2.999057 -1.322636,1.36154 -2.675463,1.726575 -4.71938,1.273438 z m 3.344098,-1.304284 c 1.405493,-0.936466 1.539467,-2.167647 0.235879,-2.167647 -0.470288,0 -0.751003,0.229003 -0.981326,0.800563 -0.2467685,0.612366 -0.5002591,0.800563 -1.0783232,0.800563 -1.114227,0 -1.8578344,-0.469589 -1.8578344,-1.173228 0,-0.518231 -0.1176217,-0.59968 -0.7122376,-0.493211 -0.7230522,0.129467 -0.8968267,0.638508 -0.5265316,1.542373 0.1021377,0.249314 0.7111009,0.678299 1.3532514,0.953303 1.2999419,0.556704 2.4662171,0.470811 3.5671224,-0.262716 z m 8.141539,1.313728 c -1.011531,-0.391903 -1.894033,-1.529567 -2.05421,-2.648157 -0.142381,-0.994305 -0.0901,-1.110576 0.61169,-1.360501 0.422057,-0.150304 1.976955,-0.273281 3.455332,-0.273281 2.308098,0 2.768479,0.07542 3.257746,0.533709 2.017291,1.889549 -2.244727,4.920542 -5.270558,3.74823 z m 3.482318,-1.072406 c 0.906422,-0.51767 1.447993,-1.578337 1.086012,-2.126947 -0.351179,-0.532239 -1.149939,-0.278073 -1.634905,0.520228 -0.736907,1.213021 -2.506082,0.985765 -2.506082,-0.321912 0,-0.336044 -0.21664,-0.480338 -0.721177,-0.480338 -0.915884,0 -1.205995,0.679748 -0.671088,1.572402 0.826207,1.378778 2.835911,1.756823 4.44724,0.836567 z"
     id="path4145"
     inkscape:connector-curvature="0"
     sodipodi:nodetypes="sscsssscsssscccssscscssssssssssscssssssssssssssssssssssssssssssssscsssssssssssssssssssssssssssss" />
</svg>
