<?xml version="1.0" encoding="UTF-8" standalone="no"?>
<svg
   xmlns:dc="http://purl.org/dc/elements/1.1/"
   xmlns:cc="http://creativecommons.org/ns#"
   xmlns:rdf="http://www.w3.org/1999/02/22-rdf-syntax-ns#"
   xmlns:svg="http://www.w3.org/2000/svg"
   xmlns="http://www.w3.org/2000/svg"
   xmlns:sodipodi="http://sodipodi.sourceforge.net/DTD/sodipodi-0.dtd"
   xmlns:inkscape="http://www.inkscape.org/namespaces/inkscape"
   viewBox="0 0 415.582 415.582"
   id="svg2"
   version="1.1"
   inkscape:version="0.91 r13725"
   sodipodi:docname="check.svg">
  <metadata
     id="metadata10">
    <rdf:RDF>
      <cc:Work
         rdf:about="">
        <dc:format>image/svg+xml</dc:format>
        <dc:type
           rdf:resource="http://purl.org/dc/dcmitype/StillImage" />
      </cc:Work>
    </rdf:RDF>
  </metadata>
  <defs
     id="defs8" />
  <sodipodi:namedview
     pagecolor="#ffffff"
     bordercolor="#666666"
     borderopacity="1"
     objecttolerance="10"
     gridtolerance="10"
     guidetolerance="10"
     inkscape:pageopacity="0"
     inkscape:pageshadow="2"
     inkscape:window-width="1920"
     inkscape:window-height="1137"
     id="namedview6"
     showgrid="false"
     inkscape:zoom="0.5678783"
     inkscape:cx="-61.632924"
     inkscape:cy="207.791"
     inkscape:window-x="-8"
     inkscape:window-y="-8"
     inkscape:window-maximized="1"
     inkscape:current-layer="svg2" />
  <path
     style="fill:#000000"
     d="m 108.72345,409.10691 c -16.589155,-3.83262 -31.914888,-17.3903 -39.70596,-35.12527 -4.030804,-9.17538 -4.636677,-12.89915 -4.588431,-28.20089 0.09357,-29.68436 9.559576,-49.58748 37.510471,-78.86934 9.29237,-9.73482 23.26162,-27.53916 33.48844,-42.68224 28.77903,-42.61371 42.06837,-54.21005 64.30717,-56.1148 13.71113,-1.17433 30.32029,3.22116 41.75433,11.04999 9.95322,6.81491 17.66291,16.77998 35.28352,45.60534 8.44841,13.82063 19.49146,28.35061 32.43936,42.68223 30.2071,33.43531 38.21143,49.74247 38.44753,78.32882 0.10974,13.29275 -0.58471,17.41435 -4.41521,26.20321 -6.3803,14.63932 -15.58435,24.71899 -29.011,31.77099 -16.54322,8.68889 -32.16964,8.33743 -65.50345,-1.47325 -21.28598,-6.26482 -26.75565,-7.17493 -43.48036,-7.23486 -16.6322,-0.0596 -22.3121,0.82763 -43.48037,6.79167 -25.67484,7.23373 -42.95034,9.60083 -53.04604,7.2684 z M 43.502899,237.57448 C 20.52537,225.81985 3.4531016,191.01002 6.9266435,162.99665 10.312442,135.69091 25.386336,120.05808 46.838,121.60535 c 5.818246,0.41964 13.709202,2.36283 17.535474,4.31818 10.64561,5.44027 22.990242,19.76098 29.166663,33.83552 4.619649,10.52711 5.601766,15.2389 6.198352,29.73714 0.674011,16.38018 0.434731,17.82221 -4.862375,29.30313 -7.453404,16.15443 -15.246598,21.81103 -31.180029,22.63166 -9.314242,0.47973 -13.148167,-0.25247 -20.193186,-3.8565 z m 293.927271,1.2059 c -14.18907,-7.96742 -22.03109,-23.25788 -22.148,-43.18438 -0.34339,-58.52851 60.16107,-98.284146 88.51709,-58.16189 11.34588,16.05382 11.62277,42.75221 0.68912,66.4497 -6.73763,14.60308 -22.49585,30.717 -34.2004,34.97236 -10.40459,3.78274 -26.05049,3.74666 -32.85781,-0.0757 z m -88.00369,-87.83651 c -15.52988,-8.75817 -24.31375,-26.38159 -25.49742,-51.1566 -0.95655,-20.021014 1.43377,-33.86881 8.42187,-48.790259 11.46483,-24.480442 28.77749,-38.092069 48.5493,-38.170623 17.50075,-0.06954 29.57658,9.007077 38.05071,28.6002 5.89726,13.635125 7.25975,40.613877 2.86562,56.741975 -6.5662,24.100307 -20.61221,44.109517 -36.56283,52.085417 -11.05556,5.52818 -26.71338,5.82968 -35.82725,0.68989 z M 128.72441,148.40652 C 102.20216,135.16974 86.281977,93.671743 93.832934,57.457444 101.23623,21.951378 127.17669,4.6406917 152.87593,18.056633 c 30.41475,15.877609 45.67952,64.071589 32.3164,102.029427 -9.80835,27.86057 -33.54063,39.76307 -56.46792,28.32046 z"
     id="path4144"
     inkscape:connector-curvature="0" />
</svg>
