<?xml version="1.0" encoding="UTF-8" standalone="no"?>
<svg
   xmlns:dc="http://purl.org/dc/elements/1.1/"
   xmlns:cc="http://creativecommons.org/ns#"
   xmlns:rdf="http://www.w3.org/1999/02/22-rdf-syntax-ns#"
   xmlns:svg="http://www.w3.org/2000/svg"
   xmlns="http://www.w3.org/2000/svg"
   width="80mm"
   height="80mm"
   viewBox="0 0 283.46457 283.46457"
   id="svg38008"
   version="1.1">
  <defs
     id="defs38010" />
  <metadata
     id="metadata38013">
    <rdf:RDF>
      <cc:Work
         rdf:about="">
        <dc:format>image/svg+xml</dc:format>
        <dc:type
           rdf:resource="http://purl.org/dc/dcmitype/StillImage" />
        <dc:title></dc:title>
      </cc:Work>
    </rdf:RDF>
  </metadata>
  <g
     id="layer1"
     transform="matrix(1.0618251,0,0,1.0618251,-8.7507316,-824.99385)">
    <g
       id="g37625"
       transform="matrix(1.6443373,0,0,1.6443373,-1658.0256,752.59324)">
      <g
         transform="translate(140.29418,-30.229133)"
         id="g37629">
        <path
           style="color:#000000;font-style:normal;font-variant:normal;font-weight:normal;font-stretch:normal;font-size:medium;line-height:normal;font-family:sans-serif;text-indent:0;text-align:start;text-decoration:none;text-decoration-line:none;text-decoration-style:solid;text-decoration-color:#000000;letter-spacing:normal;word-spacing:normal;text-transform:none;direction:ltr;block-progression:tb;writing-mode:lr-tb;baseline-shift:baseline;text-anchor:start;white-space:normal;clip-rule:nonzero;display:inline;overflow:visible;visibility:visible;opacity:1;isolation:auto;mix-blend-mode:normal;color-interpolation:sRGB;color-interpolation-filters:linearRGB;solid-color:#000000;solid-opacity:1;fill:#000000;fill-opacity:1;fill-rule:nonzero;stroke:none;stroke-width:1;stroke-linecap:butt;stroke-linejoin:miter;stroke-miterlimit:10;stroke-dasharray:none;stroke-dashoffset:0;stroke-opacity:1;color-rendering:auto;image-rendering:auto;shape-rendering:auto;text-rendering:auto;enable-background:accumulate"
           d="m 84.576172,88.236328 -0.710938,0.220703 -65.695312,20.093749 0,70.2207 60.832031,9.65625 50.472657,-8.41406 0,-62.05859 -44.898438,-29.718752 z m -0.503906,3.429688 42.267574,27.974604 0,2.42579 -42.367184,-25.605472 0,4.132812 42.367184,25.60352 0,2.48046 -42.367184,-24.32031 0,4.07617 42.367184,24.32032 0,2.29492 -42.367184,-22.96485 0,4.02149 42.367184,22.96484 0,2.64844 -42.367184,-21.47656 0,3.96679 42.367184,21.47461 0,2.96485 -42.367184,-20.20117 0,3.91601 42.367184,20.19922 0,3.23438 -42.367184,-18.71485 0,3.86328 42.367184,18.7168 0,3.53125 -42.367184,-17.38867 0,3.81445 42.367184,17.39063 0,3.48242 -42.367184,-16.40235 0,3.80274 42.367184,16.40234 0,3.06055 -0.0176,0.002 -42.425786,-14.78711 c 0,0 -48.036834,10.73441 -61.796875,13.65235 l -0.794921,-0.12696 0,-65.23047 62.767578,-19.199214 z"
           transform="matrix(0.60814773,0,0,0.60814773,866.70542,40.144611)"
           id="path37631" />
      </g>
    </g>
    <g
       transform="matrix(-1.6443373,0,0,1.6443373,1941.1059,752.59324)"
       id="g37653">
      <g
         id="g37657"
         transform="translate(140.29418,-30.229133)">
        <path
           style="color:#000000;font-style:normal;font-variant:normal;font-weight:normal;font-stretch:normal;font-size:medium;line-height:normal;font-family:sans-serif;text-indent:0;text-align:start;text-decoration:none;text-decoration-line:none;text-decoration-style:solid;text-decoration-color:#000000;letter-spacing:normal;word-spacing:normal;text-transform:none;direction:ltr;block-progression:tb;writing-mode:lr-tb;baseline-shift:baseline;text-anchor:start;white-space:normal;clip-rule:nonzero;display:inline;overflow:visible;visibility:visible;opacity:1;isolation:auto;mix-blend-mode:normal;color-interpolation:sRGB;color-interpolation-filters:linearRGB;solid-color:#000000;solid-opacity:1;fill:#000000;fill-opacity:1;fill-rule:nonzero;stroke:none;stroke-width:1;stroke-linecap:butt;stroke-linejoin:miter;stroke-miterlimit:10;stroke-dasharray:none;stroke-dashoffset:0;stroke-opacity:1;color-rendering:auto;image-rendering:auto;shape-rendering:auto;text-rendering:auto;enable-background:accumulate"
           d="m 202.86133,88.236328 -44.89844,29.718752 0,62.05859 50.47266,8.41406 60.83203,-9.65625 0,-70.2207 -65.69531,-20.093749 -0.71094,-0.220703 z m 0.5039,3.429688 62.76758,19.199214 0,65.23047 -0.79492,0.12696 c -13.76004,-2.91794 -61.79687,-13.65235 -61.79687,-13.65235 l -42.42579,14.78711 -0.0176,-0.002 0,-3.06055 42.36718,-16.40234 0,-3.80274 -42.36718,16.40235 0,-3.48242 42.36718,-17.39063 0,-3.81445 -42.36718,17.38867 0,-3.53125 42.36718,-18.7168 0,-3.86328 -42.36718,18.71485 0,-3.23438 42.36718,-20.19922 0,-3.91601 -42.36718,20.20117 0,-2.96485 42.36718,-21.47461 0,-3.96679 -42.36718,21.47656 0,-2.64844 42.36718,-22.96484 0,-4.02149 -42.36718,22.96485 0,-2.29492 42.36718,-24.32032 0,-4.07617 -42.36718,24.32031 0,-2.48046 42.36718,-25.60352 0,-4.132812 -42.36718,25.605472 0,-2.42579 42.26757,-27.974604 z"
           transform="matrix(-0.60814773,0,0,0.60814773,1041.5099,40.144611)"
           id="path37659" />
      </g>
    </g>
    <path
       style="color:#000000;font-style:normal;font-variant:normal;font-weight:normal;font-stretch:normal;font-size:medium;line-height:normal;font-family:sans-serif;text-indent:0;text-align:start;text-decoration:none;text-decoration-line:none;text-decoration-style:solid;text-decoration-color:#000000;letter-spacing:normal;word-spacing:normal;text-transform:none;direction:ltr;block-progression:tb;writing-mode:lr-tb;baseline-shift:baseline;text-anchor:start;white-space:normal;clip-rule:nonzero;display:inline;overflow:visible;visibility:visible;opacity:1;isolation:auto;mix-blend-mode:normal;color-interpolation:sRGB;color-interpolation-filters:linearRGB;solid-color:#000000;solid-opacity:1;fill:#000000;fill-opacity:1;fill-rule:nonzero;stroke:none;stroke-width:3.93629193;stroke-linecap:butt;stroke-linejoin:miter;stroke-miterlimit:10;stroke-dasharray:none;stroke-dashoffset:825.36413574;stroke-opacity:1;color-rendering:auto;image-rendering:auto;shape-rendering:auto;text-rendering:auto;enable-background:accumulate"
       d="m 137.85076,857.66602 0,99.875 7.62448,0 0,-99.875 -7.62448,0 z"
       id="path37679" />
  </g>
</svg>
