<?xml version="1.0" encoding="UTF-8" standalone="no"?>
<svg
   xmlns:dc="http://purl.org/dc/elements/1.1/"
   xmlns:cc="http://creativecommons.org/ns#"
   xmlns:rdf="http://www.w3.org/1999/02/22-rdf-syntax-ns#"
   xmlns:svg="http://www.w3.org/2000/svg"
   xmlns="http://www.w3.org/2000/svg"
   width="80mm"
   height="80mm"
   viewBox="0 0 283.46457 283.46457"
   id="svg38008"
   version="1.1">
  <defs
     id="defs38010" />
  <metadata
     id="metadata38013">
    <rdf:RDF>
      <cc:Work
         rdf:about="">
        <dc:format>image/svg+xml</dc:format>
        <dc:type
           rdf:resource="http://purl.org/dc/dcmitype/StillImage" />
        <dc:title></dc:title>
      </cc:Work>
    </rdf:RDF>
  </metadata>
  <g
     id="layer1"
     transform="translate(0,-768.89763)">
    <path
       style="color:#000000;font-style:normal;font-variant:normal;font-weight:normal;font-stretch:normal;font-size:medium;line-height:normal;font-family:sans-serif;text-indent:0;text-align:start;text-decoration:none;text-decoration-line:none;text-decoration-style:solid;text-decoration-color:#000000;letter-spacing:normal;word-spacing:normal;text-transform:none;direction:ltr;block-progression:tb;writing-mode:lr-tb;baseline-shift:baseline;text-anchor:start;white-space:normal;clip-rule:nonzero;display:inline;overflow:visible;visibility:visible;opacity:1;isolation:auto;mix-blend-mode:normal;color-interpolation:sRGB;color-interpolation-filters:linearRGB;solid-color:#000000;solid-opacity:1;fill:#000000;fill-opacity:1;fill-rule:nonzero;stroke:none;stroke-width:1.04889727;stroke-linecap:butt;stroke-linejoin:miter;stroke-miterlimit:10;stroke-dasharray:none;stroke-dashoffset:0;stroke-opacity:1;color-rendering:auto;image-rendering:auto;shape-rendering:auto;text-rendering:auto;enable-background:accumulate"
       d="M 149.41406 19.216797 L 99.357422 99.513672 L 128.48633 99.513672 L 128.48633 135.83594 L 74.039062 152.48828 L 74.039062 241.96875 L 151.55664 254.27344 L 215.87109 243.55273 L 215.87109 164.47461 L 170.02148 134.12695 L 170.02148 99.513672 L 199.13867 99.513672 L 197.57031 96.984375 L 149.41406 19.216797 z M 149.4082 25.492188 L 193.19141 96.199219 L 166.70898 96.199219 L 166.70898 131.93555 L 158.65625 126.60547 L 157.75195 126.88672 L 131.79883 134.82422 L 131.79883 96.199219 L 105.33008 96.199219 L 149.4082 25.492188 z M 158.01758 130.97461 L 211.875 166.62109 L 211.875 169.71289 L 157.89062 137.08398 L 157.89062 142.34961 L 211.875 174.97656 L 211.875 178.13672 L 157.89062 147.14648 L 157.89062 152.33984 L 211.875 183.33008 L 211.875 186.25586 L 157.89062 156.99219 L 157.89062 162.11719 L 211.875 191.37891 L 211.875 194.75391 L 157.89062 167.38672 L 157.89062 172.44141 L 211.875 199.80859 L 211.875 203.58203 L 157.89062 177.84375 L 157.89062 182.83203 L 211.875 208.57031 L 211.875 212.69141 L 157.89062 188.8457 L 157.89062 193.76758 L 211.875 217.61914 L 211.875 222.12109 L 157.89062 199.96094 L 157.89062 204.82227 L 211.875 226.98242 L 211.875 231.41797 L 157.89062 210.51953 L 157.89062 215.36523 L 211.875 236.26367 L 211.875 240.16602 L 211.85742 240.16797 L 157.79102 221.32617 C 157.79102 221.32617 90.680453 236.00366 78.033203 238.53906 L 78.033203 155.4375 L 158.01758 130.97461 z "
       transform="translate(0,768.89763)"
       id="polygon677-4" />
    <g
       id="g37462"
       transform="matrix(2.0953059,0,0,2.0953059,-2059.0856,762.29005)">
      <g
         transform="translate(140.29418,-30.229133)"
         id="g37435" />
    </g>
  </g>
</svg>
