<?xml version="1.0" encoding="UTF-8" standalone="no"?>
<svg
   xmlns:dc="http://purl.org/dc/elements/1.1/"
   xmlns:cc="http://creativecommons.org/ns#"
   xmlns:rdf="http://www.w3.org/1999/02/22-rdf-syntax-ns#"
   xmlns:svg="http://www.w3.org/2000/svg"
   xmlns="http://www.w3.org/2000/svg"
   version="1.1"
   id="svg38008"
   viewBox="0 0 283.46457 283.46457"
   height="80mm"
   width="80mm">
  <defs
     id="defs38010" />
  <metadata
     id="metadata38013">
    <rdf:RDF>
      <cc:Work
         rdf:about="">
        <dc:format>image/svg+xml</dc:format>
        <dc:type
           rdf:resource="http://purl.org/dc/dcmitype/StillImage" />
        <dc:title></dc:title>
      </cc:Work>
    </rdf:RDF>
  </metadata>
  <g
     transform="translate(0,-768.89763)"
     id="layer1">
    <g
       id="g63420"
       transform="matrix(2.0840456,-1.0756926,1.0756926,2.0840456,-2161.659,1799.285)">
      <g
         transform="translate(140.29418,-30.229133)"
         id="g63424">
        <path
           id="path63426"
           transform="matrix(0.37889254,0.19556765,-0.19556765,0.37889254,880.25272,62.573617)"
           d="M 112.55469 24.333984 L 111.79883 25.078125 L 41.679688 93.521484 L 87.617188 182.51953 L 156.4375 159.78516 C 156.48536 159.86342 156.53848 159.94129 156.58594 160.01953 L 156.58789 160.02148 L 156.58789 160.02344 C 165.85016 175.18939 169.37151 192.55766 167.48828 208.97656 L 149.11328 208.97656 L 181.21094 258.92188 L 212.56445 208.65234 L 194.60742 208.65234 C 196.40246 188.26255 194.27399 165.20664 183.05859 145.98047 L 229.5 111.28125 L 188.90234 32.628906 L 112.55469 24.333984 z M 114.16211 29.009766 L 186.0293 36.814453 L 187.61719 39.888672 L 117.16992 35.150391 L 119.875 40.388672 L 190.31836 45.125 L 191.94141 48.269531 L 122.33594 45.160156 L 125.00195 50.324219 L 194.60742 53.433594 L 196.10938 56.34375 L 127.39258 54.953125 L 130.02148 60.048828 L 198.74023 61.439453 L 200.47266 64.794922 L 132.72852 65.291016 L 135.32227 70.318359 L 203.06836 69.822266 L 205.00586 73.576172 L 138.0957 75.691406 L 140.65625 80.654297 L 207.56836 78.539062 L 209.68359 82.638672 L 143.74414 86.634766 L 146.27148 91.53125 L 212.21289 87.539062 L 214.52344 92.015625 L 149.45117 97.689453 L 151.94727 102.52539 L 217.01953 96.851562 L 219.29688 101.26172 L 154.87109 108.19141 L 157.35938 113.01172 L 221.78516 106.08203 L 223.78711 109.96289 L 223.76953 109.97656 L 160.32227 118.99023 C 160.32227 118.99023 106.46427 164.01347 90.931641 176.71484 L 89.839844 177.07617 L 47.167969 94.402344 L 114.16211 29.009766 z M 172.94727 137.15234 C 175.13934 139.94727 177.17829 142.73176 179.16406 145.81836 C 179.16506 145.82036 179.16697 145.82222 179.16797 145.82422 C 190.95736 164.75046 193.26259 188.2543 191.34766 209.00391 L 190.36914 211.9043 L 206.70312 211.9043 L 181.16992 252.8418 L 155.07031 212.22852 L 170.71875 212.22852 L 170.71875 209.33984 C 172.682 192.20884 169.00829 174.12078 159.36328 158.32812 C 157.66044 155.521 155.67849 152.80868 153.70898 150.21875 L 172.94727 137.15234 z "
           style="color:#000000;font-style:normal;font-variant:normal;font-weight:normal;font-stretch:normal;font-size:medium;line-height:normal;font-family:sans-serif;text-indent:0;text-align:start;text-decoration:none;text-decoration-line:none;text-decoration-style:solid;text-decoration-color:#000000;letter-spacing:normal;word-spacing:normal;text-transform:none;direction:ltr;block-progression:tb;writing-mode:lr-tb;baseline-shift:baseline;text-anchor:start;white-space:normal;clip-rule:nonzero;display:inline;overflow:visible;visibility:visible;opacity:1;isolation:auto;mix-blend-mode:normal;color-interpolation:sRGB;color-interpolation-filters:linearRGB;solid-color:#000000;solid-opacity:1;fill:#000000;fill-opacity:1;fill-rule:nonzero;stroke:none;stroke-width:1;stroke-linecap:butt;stroke-linejoin:miter;stroke-miterlimit:10;stroke-dasharray:none;stroke-dashoffset:0;stroke-opacity:1;color-rendering:auto;image-rendering:auto;shape-rendering:auto;text-rendering:auto;enable-background:accumulate" />
      </g>
    </g>
    <path
       id="line63384-8"
       d="m 67.861328,1026.6543 0,5.6133 162.083982,0 0,-5.6133 -162.083982,0 z"
       style="color:#000000;font-style:normal;font-variant:normal;font-weight:normal;font-stretch:normal;font-size:medium;line-height:normal;font-family:sans-serif;text-indent:0;text-align:start;text-decoration:none;text-decoration-line:none;text-decoration-style:solid;text-decoration-color:#000000;letter-spacing:normal;word-spacing:normal;text-transform:none;direction:ltr;block-progression:tb;writing-mode:lr-tb;baseline-shift:baseline;text-anchor:start;white-space:normal;clip-rule:nonzero;display:inline;overflow:visible;visibility:visible;opacity:1;isolation:auto;mix-blend-mode:normal;color-interpolation:sRGB;color-interpolation-filters:linearRGB;solid-color:#000000;solid-opacity:1;fill:#000000;fill-opacity:1;fill-rule:nonzero;stroke:none;stroke-width:5.61399984;stroke-linecap:butt;stroke-linejoin:miter;stroke-miterlimit:10;stroke-dasharray:none;stroke-dashoffset:0;stroke-opacity:1;color-rendering:auto;image-rendering:auto;shape-rendering:auto;text-rendering:auto;enable-background:accumulate" />
  </g>
</svg>
