<?xml version="1.0" encoding="UTF-8" standalone="no"?>
<svg
   xmlns:dc="http://purl.org/dc/elements/1.1/"
   xmlns:cc="http://creativecommons.org/ns#"
   xmlns:rdf="http://www.w3.org/1999/02/22-rdf-syntax-ns#"
   xmlns:svg="http://www.w3.org/2000/svg"
   xmlns="http://www.w3.org/2000/svg"
   version="1.1"
   id="svg38008"
   viewBox="0 0 283.46457 283.46457"
   height="80mm"
   width="80mm">
  <defs
     id="defs38010" />
  <metadata
     id="metadata38013">
    <rdf:RDF>
      <cc:Work
         rdf:about="">
        <dc:format>image/svg+xml</dc:format>
        <dc:type
           rdf:resource="http://purl.org/dc/dcmitype/StillImage" />
        <dc:title></dc:title>
      </cc:Work>
    </rdf:RDF>
  </metadata>
  <g
     transform="matrix(0.94514435,0,0,0.94514435,7.7888914,-719.14793)"
     id="layer1">
    <g
       id="g37582"
       transform="matrix(2.4090538,0,0,2.4090538,-2393.6656,680.3677)">
      <g
         transform="translate(140.29418,-30.229133)"
         id="g37586">
        <path
           id="path37588"
           transform="matrix(0.41510073,0,0,0.41510073,853.31817,66.977972)"
           d="m 156.1582,64.630859 -1.04101,0.322266 -96.248049,29.435547 0,17.394528 c -6.67105,2.49894 -12.525725,5.22001 -17.59375,8.07227 -19.787478,11.13628 -28.128453,24.18338 -26.857422,34.06055 2.880455,22.38247 26.345703,31.94531 26.345703,31.94531 l 0.640625,0.26562 17.464844,-4.40234 0,15.54297 89.124999,14.14844 73.94531,-12.32813 0,-52.03711 47.7461,8.74219 -5.63086,-51.71094 -29.74805,11.07031 c -0.71549,-0.32081 -5.09134,-2.2486 -12.36719,-4.70312 l 0,-2.2793 -65.78125,-43.539061 z m -0.73632,5.023438 57.29882,37.921873 c -3.37818,-0.97774 -7.12186,-1.96195 -11.15625,-2.92187 l -46.28906,-27.976566 0,6.054688 31.10938,18.802738 c -3.45399,-0.59455 -7.04209,-1.14298 -10.77149,-1.615238 l -20.33789,-11.673828 0,5.972656 7.73242,4.4375 C 155.4928,98.105384 147.56987,97.884706 139.33398,98.130859 107.2788,99.088868 82.347713,103.72424 63.462891,110.13867 l 0,-12.35742 91.958989,-28.126953 z M 144.41797,102.2207 c 50.84318,-0.35878 88.99219,17.07227 88.99219,17.07227 l 0.78906,0.36133 26.28125,-9.78125 4.44141,40.79687 -74.03321,-13.55664 28.10352,-9.79687 -6.79102,-1.69922 c 0,0 -34.56274,-8.67139 -65.59179,-9.90235 -21.11286,-0.83755 -45.52564,3.33508 -64.597661,10.16602 -9.536013,3.41547 -17.732415,7.48143 -23.564453,12.06641 -5.832038,4.58498 -9.521602,9.92377 -8.882813,15.72461 0.415788,3.77464 2.808055,7.41121 4.988281,10.36132 1.874724,2.53673 3.20639,3.91029 3.677735,4.41211 l -0.1875,9.17578 -16.238281,4.0918 c -1.632565,-0.7198 -20.817895,-9.50933 -23.240235,-28.33203 -0.890318,-6.91866 5.777439,-19.19662 24.761719,-29.88086 18.984279,-10.68425 49.93606,-19.8088 96.132808,-21.18945 1.66567,-0.0498 3.31889,-0.0783 4.95899,-0.0899 z m -1.8457,17.58008 c 1.30314,0.0128 2.59422,0.0431 3.87109,0.0937 5.55356,0.22032 11.01399,0.65404 16.26758,1.20508 l 25.02539,12.68555 -6.33985,2.20898 -26.12109,-12.45312 0,5.73437 62.07031,29.59375 0,4.73828 -62.07031,-27.41797 0,5.66016 62.07031,27.42187 0,5.17774 -62.07031,-25.48047 0,5.58984 62.07031,25.48047 0,5.09961 -62.07031,-24.02929 0,5.57031 62.07031,24.02929 0,4.48633 -0.0195,0.004 -62.16211,-21.66602 c 0,0 -70.370878,15.7224 -90.533201,19.99805 l -1.167968,-0.18555 0,-53.87304 c 5.131582,-3.4975 12.028528,-6.81389 19.958984,-9.6543 17.352525,-6.21507 39.603165,-10.21012 59.150395,-10.01758 z m 35.58984,3.32031 c 5.43131,0.84917 10.26785,1.74714 14.47851,2.58985 l 7.14454,3.87304 -5.25782,1.83399 -16.36523,-8.29688 z m 15.60937,18.77149 15.5918,2.85547 7.98242,4.04687 0,4.33789 -23.57422,-11.24023 z m -134.902339,1.20508 0,19.67968 c -0.315361,-0.39995 -0.627486,-0.78719 -0.955079,-1.23046 -2.004826,-2.71277 -3.959747,-6.21319 -4.193359,-8.33399 -0.350025,-3.17858 1.389678,-6.61267 5.148438,-10.11523 z"
           style="color:#000000;font-style:normal;font-variant:normal;font-weight:normal;font-stretch:normal;font-size:medium;line-height:normal;font-family:sans-serif;text-indent:0;text-align:start;text-decoration:none;text-decoration-line:none;text-decoration-style:solid;text-decoration-color:#000000;letter-spacing:normal;word-spacing:normal;text-transform:none;direction:ltr;block-progression:tb;writing-mode:lr-tb;baseline-shift:baseline;text-anchor:start;white-space:normal;clip-rule:nonzero;display:inline;overflow:visible;visibility:visible;opacity:1;isolation:auto;mix-blend-mode:normal;color-interpolation:sRGB;color-interpolation-filters:linearRGB;solid-color:#000000;solid-opacity:1;fill:#000000;fill-opacity:1;fill-rule:nonzero;stroke:none;stroke-width:1;stroke-linecap:butt;stroke-linejoin:miter;stroke-miterlimit:10;stroke-dasharray:none;stroke-dashoffset:0;stroke-opacity:1;color-rendering:auto;image-rendering:auto;shape-rendering:auto;text-rendering:auto;enable-background:accumulate" />
      </g>
    </g>
  </g>
</svg>
