<?xml version="1.0" encoding="UTF-8" standalone="no"?>
<svg
   xmlns:dc="http://purl.org/dc/elements/1.1/"
   xmlns:cc="http://creativecommons.org/ns#"
   xmlns:rdf="http://www.w3.org/1999/02/22-rdf-syntax-ns#"
   xmlns:svg="http://www.w3.org/2000/svg"
   xmlns="http://www.w3.org/2000/svg"
   xmlns:sodipodi="http://sodipodi.sourceforge.net/DTD/sodipodi-0.dtd"
   xmlns:inkscape="http://www.inkscape.org/namespaces/inkscape"
   viewBox="0 0 1792 1792"
   id="svg2"
   version="1.1"
   inkscape:version="0.91 r13725"
   sodipodi:docname="star.svg">
  <metadata
     id="metadata10">
    <rdf:RDF>
      <cc:Work
         rdf:about="">
        <dc:format>image/svg+xml</dc:format>
        <dc:type
           rdf:resource="http://purl.org/dc/dcmitype/StillImage" />
      </cc:Work>
    </rdf:RDF>
  </metadata>
  <defs
     id="defs8" />
  <sodipodi:namedview
     pagecolor="#ffffff"
     bordercolor="#666666"
     borderopacity="1"
     objecttolerance="10"
     gridtolerance="10"
     guidetolerance="10"
     inkscape:pageopacity="0"
     inkscape:pageshadow="2"
     inkscape:window-width="1920"
     inkscape:window-height="1137"
     id="namedview6"
     showgrid="false"
     inkscape:zoom="0.13169643"
     inkscape:cx="896"
     inkscape:cy="896"
     inkscape:window-x="-8"
     inkscape:window-y="-8"
     inkscape:window-maximized="1"
     inkscape:current-layer="svg2" />
  <path
     style="fill:#000000"
     d="m 772.19556,1557.8675 c -137.03467,-19.7152 -204.76422,-40.9217 -271.58603,-85.0348 -40.88764,-26.9922 -79.51227,-49.077 -85.83249,-49.077 -6.31997,0 -45.65187,23.0521 -87.40392,51.2265 -41.75214,28.1744 -78.76753,48.426 -82.25656,45.0033 -18.23078,-17.8843 40.18451,-76.5081 124.18103,-124.6244 26.17617,-14.9946 10.01493,-57.5136 -21.86094,-57.5136 -13.36438,0 -70.12603,22.9108 -126.13684,50.913 -56.01089,28.0021 -103.85726,48.9319 -106.32513,46.5112 -19.747491,-19.3721 152.92915,-140.3782 200.32049,-140.3782 30.37666,0 31.93068,-5.941 11.39875,-43.576 -12.68163,-23.2452 -25.34287,-26.0145 -83.92398,-18.3551 -37.94427,4.9611 -93.61923,17.4178 -123.72261,27.6815 -30.103138,10.2636 -54.73305,13.0786 -54.73305,6.2556 0,-17.2529 113.29888,-68.4819 175.86844,-79.5205 l 51.80652,-9.1398 -18.38736,-102.7509 c -37.56286,-209.90392 -14.50942,-508.96214 55.32005,-717.63361 17.06751,-51.00323 42.89999,-103.26968 57.40553,-116.14709 24.44808,-21.70471 28.87399,-21.56344 60.63018,1.93482 52.19164,38.61986 129.82222,138.04594 186.58081,238.96489 l 51.08415,90.83001 58.38195,-12.22974 c 32.10994,-6.72623 125.41867,-10.30888 207.35233,-7.96157 143.47722,4.11087 149.26902,3.09518 157.07702,-27.54679 14.5107,-56.94711 112.3608,-245.11186 140.4165,-270.01934 23.5467,-20.90448 30.7665,-21.51505 52.0146,-4.39998 86.3307,69.53831 223.9591,528.23484 223.9862,746.5141 0.023,95.9407 0.3065,96.6468 40.2459,96.6468 57.7405,0 134.6004,23.9213 165.7699,51.593 45.3749,40.2832 16.3056,48.2307 -69.9415,19.1215 -113.5102,-38.311 -131.8445,-36.2402 -143.5895,16.2178 -5.4154,24.1877 -7.5793,45.1277 -4.8085,46.5335 2.7708,1.406 35.7932,17.7178 73.383,36.2492 37.5898,18.5311 71.8655,42.6928 76.1682,53.6925 9.9294,25.3836 -19.9015,25.7798 -57.3417,0.7617 -15.8343,-10.5805 -50.4329,-26.455 -76.886,-35.2763 -77.4579,-25.8295 -77.996,15.0558 -1.1267,85.6361 72.8889,66.9261 57.6164,88.4033 -24.154,33.9674 -30.1171,-20.0498 -61.1844,-36.4535 -69.039,-36.4535 -7.8544,0 -36.6763,19.2898 -64.0486,42.8661 -64.4701,55.5295 -145.2272,95.442 -244.371,120.7747 -87.162,22.271 -282.76678,37.6917 -351.91614,27.743 z m 358.15554,-85.4517 c 249.6099,-72.5972 340.8185,-194.4385 341.8976,-456.7241 0.5269,-128.02354 -13.2757,-208.82957 -68.4784,-400.90526 -36.9409,-128.53413 -112.5274,-322.15585 -125.764,-322.15585 -5.6138,0 -44.5048,67.65269 -86.4245,150.33935 l -76.2179,150.33934 -156.98868,0.85337 c -86.34379,0.46983 -186.94825,5.70687 -223.56532,11.63839 -36.61707,5.93178 -74.59906,8.16175 -84.40426,4.95555 -9.80512,-3.20645 -40.90465,-51.63641 -69.10983,-107.62256 C 531.57501,404.44031 438.85403,278.3124 416.02195,278.3124 c -34.91094,0 -103.58423,370.61395 -103.58423,559.01967 0,401.72753 123.89793,610.82073 390.15931,658.44173 96.74377,17.3026 332.14847,4.4481 427.75407,-23.358 z M 746.65344,1343.9761 c -28.87126,-15.3652 -40.00729,-32.2848 -39.67343,-60.2785 0.39965,-33.5099 2.93454,-35.7607 18.24424,-16.1994 43.93657,56.1379 111.22323,59.3623 155.15386,7.4352 16.8878,-19.9617 14.29604,-27.2532 -18.75102,-52.7539 -69.86991,-53.9151 -38.45988,-99.5537 70.92522,-103.0537 45.3795,-1.4521 72.03659,4.7241 81.10659,18.7916 20.1756,31.2917 17.4149,40.6559 -22.75229,77.1739 -73.6574,66.9658 -3.71386,113.0014 101.99389,67.1311 74.3658,-32.2704 82.7105,-23.4368 30.2838,32.0574 -41.9963,44.453 -128.4799,51.9782 -170.3338,14.821 -24.00106,-21.3081 -28.96437,-20.7625 -65.14828,7.1589 -45.70352,35.2669 -85.21922,37.4287 -141.04878,7.7164 z M 976.53238,1166.031 c 0,-27.0422 -60.35194,-36.4798 -88.21575,-13.7949 -30.96844,25.2134 -10.30685,44.6534 42.15021,39.6584 29.22939,-2.7832 46.06554,-12.2358 46.06554,-25.8635 z m -459.75781,-90.0252 c -41.60143,-20.537 -56.09162,-89.7547 -29.13407,-139.1682 42.86664,-78.57423 173.83737,-109.01839 247.53438,-57.53901 80.46789,56.20901 99.1759,183.60931 29.72288,202.41031 -61.69838,16.7019 -209.62534,13.3018 -248.12319,-5.7031 z M 758.10023,997.794 C 743.40518,939.7118 693.48266,893.98822 644.76206,893.98822 c -40.5589,0 -41.25378,1.14249 -19.349,31.82208 12.49641,17.5018 22.72073,49.7174 22.72073,71.5902 0,37.0257 4.13529,39.7681 59.96436,39.7681 58.09999,0 59.6545,-1.224 50.00208,-39.3746 z m 301.62647,50.8291 c -35.6047,-34.9278 -20.5227,-111.5935 32.11,-163.22568 40.6819,-39.9086 60.6714,-48.68145 110.9257,-48.68145 50.2543,0 70.2438,8.77285 110.9257,48.68145 59.0756,57.95258 69.7046,140.22168 21.3931,165.58568 -39.697,20.8412 -253.5722,19.0083 -275.3545,-2.36 z m 236.7125,-34.4634 c 63.0165,-23.7219 -7.4338,-134.6504 -85.2742,-134.27028 -24.6904,0.11312 -37.6647,4.95293 -28.8318,10.73845 28.5799,18.7208 51.4775,75.28983 42.1474,104.12753 -6.9481,21.4758 -2.2617,28.0952 19.891,28.0952 15.9393,0 39.37,-3.9109 52.0676,-8.6909 z"
     id="path4149"
     inkscape:connector-curvature="0"
     sodipodi:nodetypes="sssssssscsssssscsscsscssssscsssscssssssssssssssscsscssssssssssssssssssscssssssssscssssssssscccssc" />
</svg>
