<?xml version="1.0" encoding="UTF-8" standalone="no"?>
<svg
   xmlns:dc="http://purl.org/dc/elements/1.1/"
   xmlns:cc="http://creativecommons.org/ns#"
   xmlns:rdf="http://www.w3.org/1999/02/22-rdf-syntax-ns#"
   xmlns:svg="http://www.w3.org/2000/svg"
   xmlns="http://www.w3.org/2000/svg"
   version="1.1"
   id="svg38008"
   viewBox="0 0 283.46457 283.46457"
   height="80mm"
   width="80mm">
  <defs
     id="defs38010" />
  <metadata
     id="metadata38013">
    <rdf:RDF>
      <cc:Work
         rdf:about="">
        <dc:format>image/svg+xml</dc:format>
        <dc:type
           rdf:resource="http://purl.org/dc/dcmitype/StillImage" />
        <dc:title></dc:title>
      </cc:Work>
    </rdf:RDF>
  </metadata>
  <g
     transform="matrix(0.90187621,0,0,0.90187621,13.799044,-657.90719)"
     id="layer1">
    <g
       id="g37582"
       transform="matrix(3.0114361,0,0,3.0114361,-3027.0837,623.71832)">
      <g
         transform="translate(140.29418,-30.229133)"
         id="g37586">
        <path
           id="path37588"
           transform="matrix(0.3094073,0,0,0.3094073,866.23212,81.566073)"
           d="m 167.76562,39.558594 -1.39843,0.433594 -129.125002,39.492187 0,138.021485 119.568362,18.98047 99.20507,-16.53711 0,-121.976564 -88.25,-58.414062 z m -0.98828,6.740234 83.07618,54.982422 0,4.77344 -83.27344,-50.333987 0,8.125 83.27344,50.326177 0,4.875 -83.27344,-47.802739 0,8.009765 83.27344,47.802734 0,4.51172 -83.27344,-45.136719 0,7.902343 83.27344,45.138676 0,5.20703 -83.27344,-42.21485 0,7.79688 83.27344,42.21289 0,5.82031 -83.27344,-39.70117 0,7.69531 83.27344,39.70117 0,6.35743 -83.27344,-36.78516 0,7.59375 83.27344,36.79102 0,6.94335 -83.27344,-34.18164 0,7.49805 83.27344,34.18164 0,6.8418 -83.27344,-32.23633 0,7.47461 83.27344,32.23633 0,6.01953 -0.0274,0.004 -83.39648,-29.06446 c 0,0 -94.418253,21.09506 -121.462893,26.83008 l -1.5625,-0.24805 0,-128.212887 123.373043,-37.734375 z"
           style="color:#000000;font-style:normal;font-variant:normal;font-weight:normal;font-stretch:normal;font-size:medium;line-height:normal;font-family:sans-serif;text-indent:0;text-align:start;text-decoration:none;text-decoration-line:none;text-decoration-style:solid;text-decoration-color:#000000;letter-spacing:normal;word-spacing:normal;text-transform:none;direction:ltr;block-progression:tb;writing-mode:lr-tb;baseline-shift:baseline;text-anchor:start;white-space:normal;clip-rule:nonzero;display:inline;overflow:visible;visibility:visible;opacity:1;isolation:auto;mix-blend-mode:normal;color-interpolation:sRGB;color-interpolation-filters:linearRGB;solid-color:#000000;solid-opacity:1;fill:#000000;fill-opacity:1;fill-rule:nonzero;stroke:none;stroke-width:1;stroke-linecap:butt;stroke-linejoin:miter;stroke-miterlimit:10;stroke-dasharray:none;stroke-dashoffset:0;stroke-opacity:1;color-rendering:auto;image-rendering:auto;shape-rendering:auto;text-rendering:auto;enable-background:accumulate" />
      </g>
    </g>
  </g>
</svg>
