<?xml version="1.0" encoding="UTF-8" standalone="no"?>
<svg
   xmlns:dc="http://purl.org/dc/elements/1.1/"
   xmlns:cc="http://creativecommons.org/ns#"
   xmlns:rdf="http://www.w3.org/1999/02/22-rdf-syntax-ns#"
   xmlns:svg="http://www.w3.org/2000/svg"
   xmlns="http://www.w3.org/2000/svg"
   xmlns:sodipodi="http://sodipodi.sourceforge.net/DTD/sodipodi-0.dtd"
   xmlns:inkscape="http://www.inkscape.org/namespaces/inkscape"
   viewBox="0 0 19 19"
   id="svg2"
   version="1.1"
   inkscape:version="0.91 r"
   sodipodi:docname="tab_monitor.svg">
  <metadata
     id="metadata10">
    <rdf:RDF>
      <cc:Work
         rdf:about="">
        <dc:format>image/svg+xml</dc:format>
        <dc:type
           rdf:resource="http://purl.org/dc/dcmitype/StillImage" />
        <dc:title />
      </cc:Work>
    </rdf:RDF>
  </metadata>
  <defs
     id="defs8" />
  <sodipodi:namedview
     pagecolor="#ffffff"
     bordercolor="#666666"
     borderopacity="1"
     objecttolerance="10"
     gridtolerance="10"
     guidetolerance="10"
     inkscape:pageopacity="0"
     inkscape:pageshadow="2"
     inkscape:window-width="1787"
     inkscape:window-height="840"
     id="namedview6"
     showgrid="false"
     inkscape:zoom="12.194194"
     inkscape:cx="13.889519"
     inkscape:cy="5.7347935"
     inkscape:window-x="125"
     inkscape:window-y="151"
     inkscape:window-maximized="0"
     inkscape:current-layer="svg2" />
  <g
     id="g8084"
     style="fill:#000000">
    <path
       id="rect8070"
       d="M 3.3632812 3.9316406 L 3.3632812 4.6171875 L 3.3632812 6.9921875 L 0.8203125 6.9921875 L 0.8203125 16.898438 L 3.3632812 16.898438 L 3.3632812 16.90625 L 18.205078 16.90625 L 18.205078 3.9316406 L 3.3632812 3.9316406 z M 4.7324219 5.3007812 L 16.835938 5.3007812 L 16.835938 9.0644531 L 12.966797 9.0644531 L 12.966797 8.2929688 L 8.9199219 8.2929688 L 8.9199219 9.0644531 L 4.7324219 9.0644531 L 4.7324219 5.3007812 z M 2.6464844 8.8496094 L 3.7558594 10.771484 L 1.5371094 10.771484 L 2.6464844 8.8496094 z M 10.857422 9.140625 A 0.9935109 0.9935109 0 0 1 11.851562 10.134766 A 0.9935109 0.9935109 0 0 1 10.857422 11.126953 A 0.9935109 0.9935109 0 0 1 9.8652344 10.134766 A 0.9935109 0.9935109 0 0 1 10.857422 9.140625 z M 4.7324219 9.59375 L 8.9199219 9.59375 L 8.9199219 10.900391 L 4.7324219 10.900391 L 4.7324219 9.59375 z M 12.966797 9.59375 L 16.835938 9.59375 L 16.835938 10.900391 L 12.966797 10.900391 L 12.966797 9.59375 z M 4.7324219 11.40625 L 8.4277344 11.40625 L 8.7910156 12.771484 L 10.4375 12.445312 L 10.4375 12.916016 L 10.861328 13.171875 L 11.230469 12.916016 L 11.230469 12.439453 L 13.107422 12.855469 L 13.431641 11.40625 L 16.835938 11.40625 L 16.835938 15.535156 L 13.289062 15.535156 L 13.289062 14.896484 L 15.072266 14.896484 L 15.072266 14.123047 L 6.7480469 14.123047 L 6.7480469 14.896484 L 8.53125 14.896484 L 8.53125 15.535156 L 4.7324219 15.535156 L 4.7324219 11.40625 z "
       style="opacity:1;fill:#000000;fill-opacity:1;fill-rule:nonzero;stroke:none;stroke-width:0.125;stroke-linecap:butt;stroke-linejoin:miter;stroke-miterlimit:10;stroke-dasharray:none;stroke-dashoffset:825.36413574;stroke-opacity:1" />
    <circle
       r="0.36090249"
       style="opacity:1;fill:#000000;fill-opacity:1;fill-rule:nonzero;stroke:none;stroke-width:2.42499995;stroke-linecap:butt;stroke-linejoin:miter;stroke-miterlimit:10;stroke-dasharray:none;stroke-dashoffset:825.36413574;stroke-opacity:1"
       id="circle8134"
       cx="10.870782"
       cy="10.134058" />
  </g>
</svg>
