<?xml version="1.0" encoding="UTF-8" standalone="no"?>
<svg
   xmlns:dc="http://purl.org/dc/elements/1.1/"
   xmlns:cc="http://creativecommons.org/ns#"
   xmlns:rdf="http://www.w3.org/1999/02/22-rdf-syntax-ns#"
   xmlns:svg="http://www.w3.org/2000/svg"
   xmlns="http://www.w3.org/2000/svg"
   version="1.1"
   id="svg38008"
   viewBox="0 0 283.46457 283.46457"
   height="80mm"
   width="80mm">
  <defs
     id="defs38010" />
  <metadata
     id="metadata38013">
    <rdf:RDF>
      <cc:Work
         rdf:about="">
        <dc:format>image/svg+xml</dc:format>
        <dc:type
           rdf:resource="http://purl.org/dc/dcmitype/StillImage" />
        <dc:title></dc:title>
      </cc:Work>
    </rdf:RDF>
  </metadata>
  <g
     transform="translate(0,-768.89763)"
     id="layer1">
    <g
       transform="matrix(2.1411537,0,0,2.1411537,-2110.8422,709.08513)"
       id="g43287">
      <g
         id="g43291"
         transform="translate(140.29418,-30.229133)">
        <path
           id="path43293"
           transform="matrix(0.32683955,0,0,0.32683955,866.23614,77.475209)"
           d="m 129.83594,39.095703 0.31836,19.636719 -94.910159,29.029297 0,130.658201 113.191409,17.9707 93.91211,-15.65624 0,-115.23633 17.51757,-16.023441 -130.02929,-50.378906 z m 6.36133,9.128906 112.08398,43.425782 -110.92383,101.457029 -0.49219,-44.24414 -95.253902,26.11524 -0.326172,-55.71094 95.664064,-24.738283 -0.75195,-46.304688 z m -5.94532,16.56836 0.4043,24.945312 -89.580078,23.351559 0,-21.021481 89.175778,-27.27539 z m 106.26172,46.041011 0,2.07813 -1.36914,-0.82617 1.36914,-1.25196 z m -6.42773,5.87891 6.42773,3.88477 0,4.61523 -9.66015,-5.54492 3.23242,-2.95508 z m -8.32422,7.61328 14.75195,8.47071 0,4.26953 -18.00781,-9.76172 3.25586,-2.97852 z m -8.39258,7.67578 23.14453,12.54688 0,4.92773 -27.18359,-13.77929 4.03906,-3.69532 z m -9.23047,8.44532 32.375,16.41015 0,5.50977 -37.03711,-17.65821 4.66211,-4.26171 z m -9.89648,9.05078 42.27148,20.15429 0,6.01954 -47.80078,-21.11524 5.5293,-5.05859 z m -63.5,7.48633 0.41211,37.16601 c -26.34977,5.87261 -69.824913,15.54448 -88.597659,19.52539 l -1.480469,-0.23437 0,-31.87305 89.666018,-24.58398 z m 52.66992,2.41992 53.10156,23.46093 0,6.57227 -59.3164,-24.34961 6.21484,-5.68359 z m -11.57422,10.58593 64.67578,26.54688 0,6.47656 -70.81055,-27.41211 6.13477,-5.61133 z m -11.57031,10.58204 76.24609,29.51757 0,5.69922 -0.0215,0.004 -78.95117,-27.51563 c 0,0 -4.20395,0.9357 -7.5293,1.67578 l 10.25586,-9.38085 z"
           style="color:#000000;font-style:normal;font-variant:normal;font-weight:normal;font-stretch:normal;font-size:medium;line-height:normal;font-family:sans-serif;text-indent:0;text-align:start;text-decoration:none;text-decoration-line:none;text-decoration-style:solid;text-decoration-color:#000000;letter-spacing:normal;word-spacing:normal;text-transform:none;direction:ltr;block-progression:tb;writing-mode:lr-tb;baseline-shift:baseline;text-anchor:start;white-space:normal;clip-rule:nonzero;display:inline;overflow:visible;visibility:visible;opacity:1;isolation:auto;mix-blend-mode:normal;color-interpolation:sRGB;color-interpolation-filters:linearRGB;solid-color:#000000;solid-opacity:1;fill:#000000;fill-opacity:1;fill-rule:nonzero;stroke:none;stroke-width:1;stroke-linecap:butt;stroke-linejoin:miter;stroke-miterlimit:10;stroke-dasharray:none;stroke-dashoffset:0;stroke-opacity:1;color-rendering:auto;image-rendering:auto;shape-rendering:auto;text-rendering:auto;enable-background:accumulate" />
      </g>
    </g>
  </g>
</svg>
