<?xml version="1.0" encoding="UTF-8" standalone="no"?>
<svg
   xmlns:dc="http://purl.org/dc/elements/1.1/"
   xmlns:cc="http://creativecommons.org/ns#"
   xmlns:rdf="http://www.w3.org/1999/02/22-rdf-syntax-ns#"
   xmlns:svg="http://www.w3.org/2000/svg"
   xmlns="http://www.w3.org/2000/svg"
   version="1.1"
   id="svg38008"
   viewBox="0 0 283.46457 283.46457"
   height="80mm"
   width="80mm">
  <defs
     id="defs38010" />
  <metadata
     id="metadata38013">
    <rdf:RDF>
      <cc:Work
         rdf:about="">
        <dc:format>image/svg+xml</dc:format>
        <dc:type
           rdf:resource="http://purl.org/dc/dcmitype/StillImage" />
        <dc:title></dc:title>
      </cc:Work>
    </rdf:RDF>
  </metadata>
  <g
     transform="matrix(0.86205543,0,0,0.86205543,20.1112,-643.5973)"
     id="layer1">
    <g
       transform="matrix(2.7207101,0,0,2.7207101,-2622.8574,-2803.7709)"
       id="g37977">
      <g
         id="g37944"
         transform="translate(-166,-1.5)">
        <g
           transform="matrix(0.90977681,0,0,0.90977681,72.337038,127.90864)"
           id="g37917">
          <path
             id="rect37864"
             transform="matrix(0.4040014,0,0,0.4040014,1162.5896,1304.4184)"
             d="m 139.13477,76.886719 c -2.6729,-0.01826 -5.29185,0.02115 -7.85938,0.117187 -41.138496,2.561821 -64.9693,13.768203 -86.474609,29.332034 -13.447926,11.042 -25.186111,20.58524 -29.109375,37.16797 0.963676,12.07424 13.653646,23.06764 21.550782,29.16992 16.788685,12.68749 42.127491,24.1868 97.726562,28.6289 59.73074,4.77267 94.24136,-15.45068 138.23633,-46.56445 l 2.6875,-1.89844 -2.54297,-2.08984 C 236.2783,120.28158 225.43334,81.055785 147.3125,77.121094 c -2.77893,-0.139981 -5.50484,-0.216112 -8.17773,-0.234375 z m -6.89649,14.835937 c 2.13851,0.03221 4.30316,0.094 6.51367,0.205078 0.32925,0.01658 0.63778,0.04113 0.96485,0.05859 l 0.41015,18.591792 a 25.900214,25.900214 0 0 0 -2.48242,0.37305 l -5.40625,-19.228514 z m -6.05078,0.0098 5.48828,16.970698 a 11.66141,11.66141 0 0 1 5.35352,10.75196 11.66141,11.66141 0 0 1 -12.55274,10.69531 11.66141,11.66141 0 0 1 -10.16211,-8.0332 l -20.566403,-8.63281 c 1.431908,-2.93442 3.120321,-5.721 5.041015,-8.32618 l 15.099608,11.54883 a 11.66141,11.66141 0 0 1 2.16211,-5.13476 l -13.38867,-11.08594 c 2.21643,-2.389474 4.64228,-4.584512 7.25781,-6.539064 l 10.18164,14.208984 a 11.66141,11.66141 0 0 1 5.60742,-1.27344 l -9.66406,-14.650388 c 2.32272,-0.186924 4.68843,-0.332326 7.10938,-0.421875 1.00028,-0.0371 2.01608,-0.05853 3.0332,-0.07813 z m 19.23242,0.603516 c 2.62311,0.18861 5.15849,0.412637 7.63867,0.660156 L 147.9043,110.9375 a 25.900214,25.900214 0 0 0 -2.78711,-0.40039 l 0.30273,-18.201172 z m -39.08008,0.982421 C 93.689559,103.67412 85.609375,119.40798 85.609375,137.01953 c 0,31.16301 25.292065,56.45508 56.455075,56.45508 31.16302,0 56.45508,-25.29207 56.45508,-56.45508 0,-15.09383 -5.94548,-28.79925 -15.60547,-38.931639 40.25174,10.283739 57.31069,31.335289 84.72656,54.345699 -42.32064,29.81246 -71.33023,47.22408 -128.61914,42.64649 C 84.083282,190.69076 54.4617,177.37368 38.646484,165.42188 31.477141,159.42187 24.341989,153.05394 21.191406,144.19531 21.971978,142.83768 29.3922,130.17735 47.189453,117.01562 60.837693,106.92263 80.160289,97.093809 106.33984,93.318359 Z m 52.52344,0.320313 c 3.18055,0.393029 6.22053,0.845721 9.16992,1.33789 l -12.5957,18.781248 a 25.900214,25.900214 0 0 0 -2.75977,-1.34961 l 6.18555,-18.769528 z m 15.57617,2.509766 c 1.12802,0.227635 2.22789,0.468183 3.32227,0.710937 1.96823,1.750626 3.80926,3.642425 5.50195,5.662105 l -21.3164,16.4629 a 25.900214,25.900214 0 0 0 -2.40821,-2.37305 L 174.43945,96.148438 Z M 186.875,107.35938 c 1.75094,2.64121 3.27639,5.44532 4.54492,8.38671 l -25.24804,9.59961 a 25.900214,25.900214 0 0 0 -1.24805,-2.34765 L 186.875,107.35938 Z m -95.472656,11.73242 26.517576,9.9414 a 25.900214,25.900214 0 0 0 -0.63672,2.63672 l -28.343747,-2.75976 c 0.512262,-3.38893 1.348906,-6.66952 2.462891,-9.81836 z m 102.091796,2.33008 c 1.10374,3.64773 1.82078,7.46145 2.125,11.39257 l -27.14258,0.84375 a 25.900214,25.900214 0 0 0 -0.6289,-3.60351 l 25.64648,-8.63281 z m -105.111328,13.54687 28.472658,1.66602 a 25.900214,25.900214 0 0 0 0.18555,2.60546 l -28.128911,5.67969 c -0.379483,-2.57867 -0.582031,-5.21573 -0.582031,-7.90039 0,-0.68806 0.02714,-1.36902 0.05273,-2.05078 z m 80.142578,3.68945 27.22656,0.20703 c -0.1203,3.56388 -0.58845,7.03609 -1.36914,10.39063 l -26.31836,-7.54492 a 25.900214,25.900214 0 0 0 0.46094,-3.05274 z m -50.44922,5.45703 a 25.900214,25.900214 0 0 0 0.89258,2.4043 l -25.404297,13.66406 c -1.414408,-2.9583 -2.560853,-6.06888 -3.419922,-9.29687 l 27.931639,-6.77149 z m 48.48633,2.36524 26.12109,8.59375 c -1.02603,2.87915 -2.29221,5.64115 -3.77148,8.26953 L 165.5293,148.61719 a 25.900214,25.900214 0 0 0 1.0332,-2.13672 z m -45.19922,4.41015 a 25.900214,25.900214 0 0 0 1.5586,2.0586 l -20.375,20.48242 c -2.24723,-2.43784 -4.267918,-5.08527 -6.037114,-7.9082 l 24.853514,-14.63282 z m 41.37305,1.87305 22.90234,15.69336 c -1.88991,2.61589 -4.0081,5.05311 -6.32812,7.28516 l -18.33008,-21.05078 a 25.900214,25.900214 0 0 0 1.75586,-1.92774 z m -36.25977,3.68164 a 25.900214,25.900214 0 0 0 2.16797,1.57227 l -13.45312,25.53515 c -2.94115,-1.7012 -5.70372,-3.67209 -8.25782,-5.88085 l 19.54297,-21.22657 z m 30.62696,1.4043 17.59765,21.85742 c -2.43118,1.86112 -5.02619,3.51561 -7.75976,4.94531 l -11.85157,-25.5957 a 25.900214,25.900214 0 0 0 2.01368,-1.20703 z m -24.03321,2.47461 a 25.900214,25.900214 0 0 0 2.60547,0.88867 l -5.28125,28.25586 c -3.38245,-0.74845 -6.64476,-1.80981 -9.75391,-3.16211 l 12.42969,-25.98242 z m 17.41797,0.67969 10.9043,26.15625 c -2.88036,1.11009 -5.87697,1.98414 -8.97266,2.58789 l -4.22851,-28.14063 a 25.900214,25.900214 0 0 0 2.29687,-0.60351 z m -9.90234,1.10742 a 25.900214,25.900214 0 0 0 2.15625,0.10742 25.900214,25.900214 0 0 0 0.49023,-0.0176 l 3.14844,28.36524 c -1.42558,0.11327 -2.86153,0.1875 -4.31641,0.1875 -1.90897,0 -3.79302,-0.10302 -5.65039,-0.29688 l 4.17188,-28.3457 z"
             style="color:#000000;font-style:normal;font-variant:normal;font-weight:normal;font-stretch:normal;font-size:medium;line-height:normal;font-family:sans-serif;text-indent:0;text-align:start;text-decoration:none;text-decoration-line:none;text-decoration-style:solid;text-decoration-color:#000000;letter-spacing:normal;word-spacing:normal;text-transform:none;direction:ltr;block-progression:tb;writing-mode:lr-tb;baseline-shift:baseline;text-anchor:start;white-space:normal;clip-rule:nonzero;display:inline;overflow:visible;visibility:visible;opacity:1;isolation:auto;mix-blend-mode:normal;color-interpolation:sRGB;color-interpolation-filters:linearRGB;solid-color:#000000;solid-opacity:1;fill:#000000;fill-opacity:1;fill-rule:nonzero;stroke:none;stroke-width:2;stroke-linecap:butt;stroke-linejoin:miter;stroke-miterlimit:10;stroke-dasharray:none;stroke-dashoffset:825.36413574;stroke-opacity:1;color-rendering:auto;image-rendering:auto;shape-rendering:auto;text-rendering:auto;enable-background:accumulate" />
          <path
             style="color:#000000;font-style:normal;font-variant:normal;font-weight:normal;font-stretch:normal;font-size:medium;line-height:normal;font-family:sans-serif;text-indent:0;text-align:start;text-decoration:none;text-decoration-line:none;text-decoration-style:solid;text-decoration-color:#000000;letter-spacing:normal;word-spacing:normal;text-transform:none;direction:ltr;block-progression:tb;writing-mode:lr-tb;baseline-shift:baseline;text-anchor:start;white-space:normal;clip-rule:nonzero;display:inline;overflow:visible;visibility:visible;opacity:1;isolation:auto;mix-blend-mode:normal;color-interpolation:sRGB;color-interpolation-filters:linearRGB;solid-color:#000000;solid-opacity:1;fill:#000000;fill-opacity:1;fill-rule:nonzero;stroke:none;stroke-width:2;stroke-linecap:butt;stroke-linejoin:miter;stroke-miterlimit:10;stroke-dasharray:none;stroke-dashoffset:825.36413574;stroke-opacity:1;color-rendering:auto;image-rendering:auto;shape-rendering:auto;text-rendering:auto;enable-background:accumulate"
             d="m 1231.9044,1340.6578 -8.8088,13.1344 1.5214,1.0697 9.3084,-12.7832 z"
             id="path37877" />
        </g>
      </g>
    </g>
  </g>
</svg>
