<?xml version="1.0" encoding="UTF-8" standalone="no"?>
<svg
   xmlns:dc="http://purl.org/dc/elements/1.1/"
   xmlns:cc="http://creativecommons.org/ns#"
   xmlns:rdf="http://www.w3.org/1999/02/22-rdf-syntax-ns#"
   xmlns:svg="http://www.w3.org/2000/svg"
   xmlns="http://www.w3.org/2000/svg"
   xmlns:sodipodi="http://sodipodi.sourceforge.net/DTD/sodipodi-0.dtd"
   xmlns:inkscape="http://www.inkscape.org/namespaces/inkscape"
   version="1.1"
   id="svg2"
   viewBox="0 0 350 100"
   height="100"
   width="350"
   inkscape:version="0.91 r13725"
   sodipodi:docname="logo.svg">
  <sodipodi:namedview
     pagecolor="#ffffff"
     bordercolor="#666666"
     borderopacity="1"
     objecttolerance="10"
     gridtolerance="10"
     guidetolerance="10"
     inkscape:pageopacity="0"
     inkscape:pageshadow="2"
     inkscape:window-width="1920"
     inkscape:window-height="1137"
     id="namedview25"
     showgrid="false"
     inkscape:zoom="0.64245702"
     inkscape:cx="557.5669"
     inkscape:cy="389.60049"
     inkscape:window-x="-8"
     inkscape:window-y="-8"
     inkscape:window-maximized="1"
     inkscape:current-layer="layer1" />
  <defs
     id="defs4">
    <filter
       id="filter31034"
       style="color-interpolation-filters:sRGB;">
      <feGaussianBlur
         id="feGaussianBlur31036"
         result="fbSourceGraphic"
         stdDeviation="2 2" />
      <feColorMatrix
         id="feColorMatrix31038"
         values="0 0 0 -1 0 0 0 0 -1 0 0 0 0 -1 0 0 0 0 1 0"
         in="fbSourceGraphic"
         result="fbSourceGraphicAlpha" />
      <feGaussianBlur
         in="fbSourceGraphic"
         result="fbSourceGraphic"
         stdDeviation="2 2"
         id="feGaussianBlur31040" />
      <feColorMatrix
         id="feColorMatrix31042"
         values="0 0 0 -1 0 0 0 0 -1 0 0 0 0 -1 0 0 0 0 1 0"
         in="fbSourceGraphic"
         result="fbSourceGraphicAlpha" />
      <feGaussianBlur
         in="fbSourceGraphic"
         result="blur"
         stdDeviation="2 2"
         id="feGaussianBlur31044" />
    </filter>
    <filter
       id="filter31079"
       style="color-interpolation-filters:sRGB;">
      <feGaussianBlur
         id="feGaussianBlur31081"
         result="blur"
         stdDeviation="1 1" />
    </filter>
    <filter
       inkscape:collect="always"
       style="color-interpolation-filters:sRGB"
       id="filter4481"
       x="-0.02723389"
       width="1.0544678"
       y="-0.080271641"
       height="1.1605433">
      <feGaussianBlur
         inkscape:collect="always"
         stdDeviation="2.2456752"
         id="feGaussianBlur4483" />
    </filter>
    <filter
       inkscape:collect="always"
       style="color-interpolation-filters:sRGB"
       id="filter4485"
       x="-0.09569797"
       width="1.1913959"
       y="-0.080386428"
       height="1.1607729">
      <feGaussianBlur
         inkscape:collect="always"
         stdDeviation="2.2456752"
         id="feGaussianBlur4487" />
    </filter>
  </defs>
  <metadata
     id="metadata7">
    <rdf:RDF>
      <cc:Work
         rdf:about="">
        <dc:format>image/svg+xml</dc:format>
        <dc:type
           rdf:resource="http://purl.org/dc/dcmitype/StillImage" />
        <dc:title />
      </cc:Work>
    </rdf:RDF>
  </metadata>
  <g
     transform="matrix(1.2591506,0,0,1.2591506,-4.1786648,-1213.3856)"
     id="layer1-2"
     style="opacity:0.888;fill:#96044f;stroke:none;stroke-opacity:1;fill-opacity:1;filter:url(#filter4481)">
    <g
       id="flowRoot8068-9"
       style="font-style:normal;font-weight:normal;font-size:49.637043px;line-height:125%;font-family:sans-serif;letter-spacing:0px;word-spacing:0px;fill:#96044f;fill-opacity:1;stroke:none;stroke-width:1px;stroke-linecap:butt;stroke-linejoin:miter;stroke-opacity:1"
       transform="matrix(0.96481082,0,0,0.96481082,-24.503908,112.81466)">
      <path
         id="path26484-2"
         style="font-style:normal;font-variant:normal;font-weight:bold;font-stretch:normal;font-size:99.274086px;font-family:Outage;-inkscape-font-specification:'Outage Bold';fill:#96044f;fill-opacity:1;stroke:none;stroke-opacity:1"
         d="m 162.02742,888.52486 q 0.7942,0 1.29057,0.59565 0.59564,0.49637 0.59564,1.29056 l 0,7.14773 0,47.05592 0,0.29782 -0.0993,0 q 0,0.79419 -0.19855,1.68766 -0.19855,0.89347 -0.49637,1.48911 l -9.13322,9.13322 q -0.69492,0.39709 -1.78693,0.59564 -0.99274,0.19855 -1.78693,0.19855 l -7.24701,0 -21.54248,0 -2.6804,0 q -0.79419,0 -1.78693,-0.19855 -0.99274,-0.19855 -1.68766,-0.59564 l -9.13322,-9.13322 q -0.39709,-0.69492 -0.59564,-1.68766 -0.19855,-0.99274 -0.19855,-1.78693 l 0,-3.37532 0,-44.67334 0,-6.15499 q 0,-0.79419 0.49637,-1.29056 0.59564,-0.59565 1.38984,-0.59565 l 13.69982,0 q 0.79419,0 1.29056,0.59565 0.59565,0.49637 0.59565,1.29056 l 0,8.73612 0,34.44811 0,5.75789 q 0,0.7942 0.49637,1.38984 0.59564,0.49637 1.38984,0.49637 l 19.65626,0 q 0.7942,0 1.29057,-0.49637 0.49637,-0.59564 0.49637,-1.38984 l 0,-5.85717 0,-38.3198 0,-4.76515 q 0,-0.79419 0.49637,-1.29056 0.59564,-0.59565 1.38984,-0.59565 l 13.79909,0 0,0 z" />
      <path
         id="path26486-7"
         style="font-style:normal;font-variant:normal;font-weight:bold;font-stretch:normal;font-size:99.274086px;font-family:Outage;-inkscape-font-specification:'Outage Bold';fill:#96044f;fill-opacity:1;stroke:none;stroke-opacity:1"
         d="m 239.49109,956.42834 q 0.39709,0.69491 0.0993,1.19128 -0.29782,0.3971 -1.09201,0.3971 l -15.78458,0 q -0.7942,0 -1.58839,-0.3971 -0.79419,-0.49637 -1.19129,-1.19128 l -11.1187,-18.86208 q -0.19854,-0.3971 -0.69491,-0.3971 l -11.21798,0 q -0.49637,0 -0.49637,0.49637 l 0,18.46498 q 0,1.88621 -1.8862,1.88621 l -13.69983,0 q -1.88621,0 -1.88621,-1.88621 l 0,-32.36335 0,-16.97587 0,-16.38022 q 0,-0.79419 0.49637,-1.29056 0.59565,-0.59565 1.38984,-0.59565 l 42.98568,0 q 0.79419,0 1.78693,0.29782 1.09202,0.19855 1.78694,0.49637 l 9.13321,9.13322 q 0.29783,0.69492 0.49637,1.68766 0.29783,0.99274 0.29783,1.78693 l 0,13.402 0,7.24701 0,0.99274 q 0,0.59565 -0.29783,1.48911 -0.29782,0.7942 -0.69491,1.48912 l -9.13322,9.33176 12.30999,20.54974 z m -19.75555,-51.7218 -24.02433,0 0,16.87659 11.41652,0 10.52306,0 0.29782,0 1.78693,0 0,-1.29056 0,-11.21797 0,-4.36806 z" />
      <path
         id="path26488-0"
         style="font-style:normal;font-variant:normal;font-weight:bold;font-stretch:normal;font-size:99.274086px;font-family:Outage;-inkscape-font-specification:'Outage Bold';fill:#96044f;fill-opacity:1;stroke:none;stroke-opacity:1"
         d="m 309.86547,898.353 q 0.29782,0.69491 0.49637,1.78693 0.29782,0.99274 0.29782,1.78693 l 0,1.09202 0,0.89346 0,52.21817 q 0,0.7942 -0.59564,1.29057 -0.49637,0.49637 -1.29056,0.49637 l -13.7991,0 q -0.7942,0 -1.29057,-0.49637 -0.49637,-0.49637 -0.49637,-1.29057 l 0,-17.86933 q 0,-0.79419 -0.59564,-1.29056 -0.49637,-0.49638 -1.29056,-0.49638 l -19.65627,0 q -0.7942,0 -1.38984,0.49638 -0.49637,0.49637 -0.49637,1.29056 l 0,17.86933 q 0,0.7942 -0.49637,1.29057 -0.49637,0.49637 -1.29056,0.49637 l -13.7991,0 q -0.79419,0 -1.38984,-0.49637 -0.49637,-0.49637 -0.49637,-1.29057 l 0,-52.61526 0,-1.58839 0,-0.29782 q 0.0993,-0.79419 0.29782,-1.68766 0.19855,-0.89347 0.49637,-1.58838 l 9.13322,-9.13322 q 0.69492,-0.29782 1.68766,-0.49637 0.99274,-0.29782 1.78693,-0.29782 l 1.48911,0 5.65863,0 20.25191,0 2.97822,0 1.09202,0 q 0.79419,0 1.78693,0.29782 1.09202,0.19855 1.78693,0.49637 l 9.13322,9.13322 z m -16.67805,5.65862 -23.42868,0 0,17.57151 23.42868,0 0,-17.57151 z" />
    </g>
  </g>
  <g
     transform="matrix(1.2591506,0,0,1.2591506,-24.201351,-1335.9797)"
     id="layer1"
     style="stroke:#4d4d4d;opacity:1">
    <path
       sodipodi:nodetypes="cssssssccssssccccsccscccccccccccccc"
       inkscape:connector-curvature="0"
       d="m 54.889341,1113.1177 -10.82323,0 c -0.31927,0 -0.4789,0.1596 -0.4789,0.4789 l 0,17.8152 c 0,1.2133 -0.60661,1.8199 -1.81983,1.8199 l -13.21774,0 c -1.21323,0 -1.819839,-0.6066 -1.819839,-1.8199 l 0,-31.2245 0,-16.3784 0,-15.8038 c 0,-0.5108 0.15963,-0.9258 0.478899,-1.2451 0.38313,-0.3831 0.83011,-0.5747 1.34094,-0.5747 l 41.47304,0 c 0.51083,0 1.08552,0.096 1.72405,0.2873 0.7024,0.1277 1.27709,0.2874 1.72406,0.4789 l 8.81182,8.8119 c 0.19157,0.4469 0.3512,0.9897 0.47891,1.6282 0.19157,0.6385 0.28735,1.2132 0.28735,1.7241 l 0,12.9304 0,6.9918 0,0.9578 c 0,0.3831 -0.0958,0.8621 -0.28735,1.4368 -0.19156,0.5108 -0.41505,0.9897 -0.67046,1.4367 l -8.81183,9.0034 z m 11.20631,-31.3201 -23.17893,0 0,16.2825 11.01478,0 10.15276,0 0.28734,0 1.72405,0 0,-1.245 0,-10.8232 z"
       style="font-style:normal;font-variant:normal;font-weight:bold;font-stretch:normal;font-size:99.274086px;line-height:125%;font-family:Outage;-inkscape-font-specification:'Outage Bold';letter-spacing:0px;word-spacing:0px;fill:#96044f;fill-opacity:1;stroke:none;stroke-width:0.96481085px;stroke-linecap:butt;stroke-linejoin:miter;stroke-opacity:1;filter:url(#filter4485);opacity:0.888"
       id="path4159" />
    <path
       inkscape:connector-curvature="0"
       d="m 146.60836,1066.4943 q 0.76626,0 1.24516,0.5747 0.57468,0.4789 0.57468,1.2452 l 0,6.8962 0,45.4001 0,0.2873 -0.0958,0 q 0,0.7662 -0.19156,1.6283 -0.19156,0.862 -0.4789,1.4367 l -8.81183,8.8118 q -0.67047,0.3831 -1.72405,0.5747 -0.95781,0.1916 -1.72405,0.1916 l -6.99199,0 -20.78442,0 -2.58608,0 q -0.76625,0 -1.72405,-0.1916 -0.95781,-0.1916 -1.62828,-0.5747 l -8.811825,-8.8118 q -0.383116,-0.6705 -0.574679,-1.6283 -0.191564,-0.9578 -0.191564,-1.724 l 0,-3.2566 0,-43.1013 0,-5.9384 q 0,-0.7663 0.478904,-1.2452 0.574679,-0.5747 1.340932,-0.5747 l 13.217732,0 q 0.76625,0 1.24515,0.5747 0.57469,0.4789 0.57469,1.2452 l 0,8.4287 0,33.2359 0,5.5553 q 0,0.7662 0.4789,1.3409 0.57468,0.4789 1.34093,0.4789 l 18.96458,0 q 0.76625,0 1.24516,-0.4789 0.4789,-0.5747 0.4789,-1.3409 l 0,-5.6511 0,-36.9714 0,-4.5974 q 0,-0.7663 0.4789,-1.2452 0.57468,-0.5747 1.34093,-0.5747 l 13.31352,0 0,0 z"
       style="font-style:normal;font-variant:normal;font-weight:bold;font-stretch:normal;font-size:99.274086px;line-height:125%;font-family:Outage;-inkscape-font-specification:'Outage Bold';letter-spacing:0px;word-spacing:0px;fill:#ffd5f4;fill-opacity:1;stroke:#4c4c4c;stroke-width:0.96481085px;stroke-linecap:butt;stroke-linejoin:miter;stroke-opacity:1"
       id="path26484" />
    <path
       inkscape:connector-curvature="0"
       d="m 221.13474,1132.0084 q 0.38312,0.6704 0.0958,1.1493 -0.28734,0.3832 -1.05358,0.3832 l -15.22914,0 q -0.76625,0 -1.53249,-0.3832 -0.76625,-0.4789 -1.14937,-1.1493 L 191.53851,1113.81 q -0.19155,-0.3831 -0.67045,-0.3831 l -10.82323,0 q -0.4789,0 -0.4789,0.4789 l 0,17.8152 q 0,1.8199 -1.81983,1.8199 l -13.21774,0 q -1.81984,0 -1.81984,-1.8199 l 0,-31.2245 0,-16.3785 0,-15.8038 q 0,-0.7663 0.4789,-1.2452 0.57469,-0.5747 1.34094,-0.5747 l 41.47304,0 q 0.76625,0 1.72405,0.2874 1.0536,0.1915 1.72406,0.4789 l 8.81182,8.8118 q 0.28735,0.6705 0.47891,1.6283 0.28735,0.9578 0.28735,1.724 l 0,12.9304 0,6.992 0,0.9578 q 0,0.5747 -0.28735,1.4368 -0.28734,0.7662 -0.67046,1.4367 l -8.81183,9.0034 11.87681,19.8266 z m -19.06037,-49.9018 -23.17893,0 0,16.2827 11.01478,0 10.15276,0 0.28734,0 1.72405,0 0,-1.2451 0,-10.8233 0,-4.2143 z"
       style="font-style:normal;font-variant:normal;font-weight:bold;font-stretch:normal;font-size:99.274086px;line-height:125%;font-family:Outage;-inkscape-font-specification:'Outage Bold';letter-spacing:0px;word-spacing:0px;fill:#ffd5f4;fill-opacity:1;stroke:#4c4c4c;stroke-width:0.96481085px;stroke-linecap:butt;stroke-linejoin:miter;stroke-opacity:1"
       id="path26486" />
    <path
       inkscape:connector-curvature="0"
       d="m 288.97242,1075.9766 q 0.28734,0.6705 0.47891,1.7241 0.28734,0.9578 0.28734,1.724 l 0,1.0536 0,0.862 0,50.3807 q 0,0.7663 -0.57468,1.2452 -0.47891,0.4789 -1.24515,0.4789 l -13.31352,0 q -0.76625,0 -1.24516,-0.4789 -0.4789,-0.4789 -0.4789,-1.2452 l 0,-17.2405 q 0,-0.7662 -0.57468,-1.2451 -0.4789,-0.479 -1.24514,-0.479 l -18.96459,0 q -0.76625,0 -1.34093,0.479 -0.4789,0.4789 -0.4789,1.2451 l 0,17.2405 q 0,0.7663 -0.47891,1.2452 -0.4789,0.4789 -1.24514,0.4789 l -13.31352,0 q -0.76625,0 -1.34094,-0.4789 -0.4789,-0.4789 -0.4789,-1.2452 l 0,-50.7638 0,-1.5325 0,-0.2873 q 0.0958,-0.7663 0.28734,-1.6283 0.19156,-0.862 0.4789,-1.5325 l 8.81183,-8.8118 q 0.67047,-0.2873 1.62828,-0.4789 0.9578,-0.2873 1.72405,-0.2873 l 1.43671,0 5.4595,0 19.53926,0 2.87342,0 1.0536,0 q 0.76624,0 1.72405,0.2873 1.05359,0.1916 1.72404,0.4789 l 8.81183,8.8118 z m -16.09116,5.4595 -22.60424,0 0,16.9532 22.60424,0 0,-16.9532 z"
       style="font-style:normal;font-variant:normal;font-weight:bold;font-stretch:normal;font-size:99.274086px;line-height:125%;font-family:Outage;-inkscape-font-specification:'Outage Bold';letter-spacing:0px;word-spacing:0px;fill:#ffd5f4;fill-opacity:1;stroke:#4c4c4c;stroke-width:0.96481085px;stroke-linecap:butt;stroke-linejoin:miter;stroke-opacity:1"
       id="path26488" />
    <path
       id="path4157"
       style="font-style:normal;font-variant:normal;font-weight:bold;font-stretch:normal;font-size:99.274086px;line-height:125%;font-family:Outage;-inkscape-font-specification:'Outage Bold';letter-spacing:0px;word-spacing:0px;fill:#ffd5f4;fill-opacity:1;stroke:#4c4c4c;stroke-width:0.96481085px;stroke-linecap:butt;stroke-linejoin:miter;stroke-opacity:1"
       d="m 54.580299,1111.8816 -10.82323,0 c -0.31927,0 -0.4789,0.1596 -0.4789,0.4789 l 0,17.8152 c 0,1.2133 -0.60661,1.8199 -1.81983,1.8199 l -13.21774,0 c -1.21323,0 -1.81984,-0.6066 -1.81984,-1.8199 l 0,-31.2245 0,-16.3785 0,-15.8038 c 0,-0.5108 0.15963,-0.9258 0.4789,-1.2451 0.38313,-0.3831 0.83011,-0.5747 1.34094,-0.5747 l 41.47304,0 c 0.51083,0 1.08552,0.096 1.72405,0.2873 0.7024,0.1277 1.27709,0.2874 1.72406,0.4789 l 8.81182,8.8119 c 0.19157,0.4469 0.3512,0.9897 0.47891,1.6282 0.19157,0.6385 0.28735,1.2132 0.28735,1.7241 l 0,12.9304 0,6.9919 0,0.9578 c 0,0.3831 -0.0958,0.8621 -0.28735,1.4368 -0.19156,0.5108 -0.41505,0.9897 -0.67046,1.4367 l -8.81183,9.0034 z m 11.20631,-31.3202 -23.17893,0 0,16.2826 11.01478,0 10.15276,0 0.28734,0 1.72405,0 0,-1.2451 0,-10.8232 z"
       inkscape:connector-curvature="0"
       sodipodi:nodetypes="cssssssccssssccccsccscccccccccccccc" />
    <g
       id="g4506"
       transform="translate(-80.854646,169.13918)">
      <path
         inkscape:connector-curvature="0"
         id="path4504"
         d="m 157.04403,961.75083 c -3.50805,-0.73798 -6.09416,-1.87141 -8.06422,-3.53453 -10.18459,-5.18324 -5.02253,-2.57146 -5.34923,-14.22873 -0.22128,-7.89553 0.42412,-19.51114 2.16976,-21.54179 l 0.90947,-1.05796 3.13873,4.03949 c 0.82765,1.06518 2.87658,3.07992 4.15872,4.84506 l 2.33116,3.20937 7.13497,0.0482 7.13497,0.0482 c 13.06272,-24.50883 13.76081,-2.0612 12.23048,8.42017 -0.28373,12.14781 7.37348,13.51657 -10.43491,19.29792 -3.12436,0.98178 -11.65357,1.23406 -15.3599,0.45437 z"
         style="fill:#ffffff;fill-opacity:1;stroke-width:0.42966914"
         sodipodi:nodetypes="cccscssccccccc" />
      <path
         sodipodi:nodetypes="cscssssssssscsscsscccsssscsssssssssssscccssssssssssscscsssssssssssssssssscscsscsscssscscs"
         style="fill:#000000;fill-opacity:1;stroke-width:0.50073117"
         d="m 156.46132,965.10926 c -3.88857,-0.9042 -6.75521,-2.2929 -8.93896,-4.3306 l -1.67344,-1.5614 -1.99946,0.8162 c -1.78671,0.7293 -2.07945,0.7345 -2.75104,0.05 -0.6716,-0.6851 -0.50158,-0.8761 1.59772,-1.7941 2.71219,-1.1861 2.60503,-2.0471 -0.25478,-2.0471 -2.05972,0 -3.90412,-0.7106 -3.90412,-1.5041 0,-0.2513 1.00389,-0.6106 2.23086,-0.7983 2.92217,-0.4471 3.00444,-1.6283 0.12821,-1.8411 -1.49871,-0.1109 -2.14805,-0.3999 -2.26073,-1.0062 -0.118,-0.6351 0.25804,-0.8916 1.48297,-1.0116 l 1.64104,-0.1607 -0.16671,-6.575 c -0.24528,-9.6738 1.67729,-21.4908 3.8585,-23.7161 l 1.00813,-1.0285 2.02581,2.0041 c 1.11419,1.1022 3.18861,3.7736 4.60983,5.9363 l 2.58403,3.9322 7.90892,0.059 7.90891,0.059 1.49093,-2.5754 c 2.10486,-3.6358 6.08956,-8.1898 7.16598,-8.1898 1.16828,0 2.77226,3.4385 4.09691,8.7826 0.85334,3.4427 0.97047,5.2359 0.80334,12.2992 l -0.19566,8.2688 1.75063,-0.1346 c 1.28421,-0.099 1.75062,0.068 1.75062,0.6242 0,0.5057 -0.66099,0.8429 -1.98298,1.0115 -1.58678,0.2024 -2.01465,0.4803 -2.14141,1.3908 -0.12185,0.8754 0.0859,1.1381 0.90015,1.1381 1.32458,0 2.97637,0.875 2.97637,1.5768 0,0.3172 -0.92488,0.4622 -2.30636,0.3615 -2.596,-0.1893 -3.53358,0.7606 -1.31217,1.3294 1.5247,0.3904 2.62704,1.1674 2.62704,1.8518 0,0.6382 -1.71584,0.5464 -3.26722,-0.1748 -1.23321,-0.5732 -1.44411,-0.4876 -2.87387,1.1665 -2.19357,2.5379 -4.63063,4.2405 -7.49195,5.2343 -3.46327,1.2029 -12.91767,1.512 -17.02604,0.5567 z m 6.86325,-6.8602 c 0.40898,-0.01 1.55479,0.1335 2.54622,0.3057 2.18404,0.3792 3.89848,-0.4473 3.89848,-1.8793 0,-0.805 -0.20109,-0.9601 -0.86756,-0.6693 -2.15939,0.9422 -3.49983,0.8545 -4.08829,-0.2672 -0.49182,-0.9376 -0.41189,-1.2951 0.51437,-2.3011 1.47767,-1.6047 0.97396,-2.7597 -1.20351,-2.7597 -3.20657,0 -4.15034,1.0614 -2.46908,2.7765 0.65158,0.6648 0.70197,1.0663 0.2585,2.0593 -0.62978,1.4101 -2.11362,1.6116 -3.25951,0.4426 -1.53705,-1.5682 -2.40274,0.2556 -0.9166,1.931 0.67936,0.7658 1.27215,0.9047 2.85054,0.6679 1.09605,-0.1645 2.32744,-0.3024 2.73644,-0.3064 z m -8.27117,-6.1128 c 1.82141,-0.9503 2.7957,-2.6019 2.79934,-4.7456 0.004,-2.2859 -0.22114,-2.7414 -1.95074,-3.9489 -1.68097,-1.1736 -4.54486,-1.0906 -6.12517,0.1776 -4.25784,3.4169 0.45905,11.0304 5.27657,8.5169 z m -3.87637,-3.16 c -1.43633,-2.2364 0.63125,-4.9539 3.14886,-4.1388 0.50395,0.1633 1.18091,0.8893 1.50436,1.6136 1.34036,3.0012 -2.87745,5.2902 -4.65322,2.5252 z m 26.06657,2.2466 c 1.56985,-1.6016 1.87329,-3.5934 0.88467,-5.8071 -0.56935,-1.2748 -3.10616,-2.8298 -4.61651,-2.8298 -1.60553,0 -3.64157,1.5057 -4.18449,3.0947 -0.86622,2.535 -0.66784,3.4606 1.13604,5.301 2.24686,2.2923 4.68486,2.379 6.78029,0.2412 z m -5.70381,-1.3395 c -0.92192,-0.9405 -1.02642,-3.3023 -0.18414,-4.1617 0.889,-0.9069 3.10614,-0.7323 4.03787,0.3181 1.09032,1.229 1.03528,2.3962 -0.17104,3.6269 -1.19092,1.215 -2.62169,1.2992 -3.68269,0.2167 z m -25.35827,-16.3355 c 0.14663,-0.2421 1.60656,-0.9514 3.24428,-1.5762 l 2.97768,-1.1361 -1.06816,-1.5849 c -0.58748,-0.8716 -1.8526,-2.5851 -2.81135,-3.8076 l -1.74319,-2.2229 -0.68023,1.97 c -0.92607,2.6818 -1.42938,8.7978 -0.72402,8.7978 0.29612,0 0.65836,-0.1981 0.80499,-0.4401 z m 35.98167,-3.0988 c -0.87204,-4.6913 -1.51956,-6.6492 -2.13493,-6.4557 -0.64843,0.204 -4.80578,6.2645 -4.80578,7.0058 0,0.253 0.50194,0.4699 1.11543,0.482 0.61348,0.012 2.23086,0.4194 3.59416,0.9049 1.3633,0.4855 2.53558,0.8538 2.60506,0.8184 0.0695,-0.036 -0.0988,-1.2754 -0.37394,-2.7554 z"
         id="path4502"
         inkscape:connector-curvature="0" />
    </g>
    <g
       id="g4523"
       transform="matrix(0.61367549,0,0,0.55291626,-22.563802,648.98992)">
      <path
         inkscape:connector-curvature="0"
         id="path4521"
         d="m 369.73485,833.01314 c -0.29054,-0.4701 0.56581,-2.21612 1.90299,-3.88006 l 2.43124,-3.02535 -1.61243,-1.45922 c -1.58277,-1.4324 -1.66363,-1.39756 -4.39828,1.89459 -1.53223,1.8446 -3.11361,3.35382 -3.51419,3.35382 -1.46078,0 -0.66565,-2.05448 1.91907,-4.95857 l 2.64615,-2.9731 -2.34376,-4.7287 c -3.21202,-6.48047 -4.35434,-16.02475 -3.10338,-25.92927 1.55651,-12.32365 8.11232,-30.50456 10.99956,-30.50456 0.77844,0 4.1362,2.76972 7.46169,6.15494 l 6.04636,6.15494 12.24422,-0.28084 12.24422,-0.28084 3.97093,-5.0217 c 7.94791,-10.05104 9.65282,-9.25943 15.44611,7.17176 4.99025,14.15359 5.75479,32.13636 1.71355,40.30444 l -1.61272,3.25959 2.94805,2.60616 c 1.62142,1.43338 3.21608,2.62102 3.54368,2.6392 0.3276,0.0182 0.59564,0.54804 0.59564,1.17746 0,2.46822 -1.86619,2.0632 -4.86279,-1.05539 -1.72593,-1.79616 -3.42677,-3.26576 -3.77966,-3.26576 -0.35288,0 -1.29557,0.72263 -2.09485,1.60582 -1.41924,1.56824 -1.39423,1.66672 1.06819,4.20729 2.87053,2.96164 3.2133,4.51131 0.99783,4.51131 -0.88457,0 -2.24412,-1.16583 -3.24151,-2.77965 -0.94486,-1.52881 -1.87513,-2.77965 -2.06727,-2.77965 -0.19214,0 -1.68187,0.86928 -3.31052,1.93173 -5.84678,3.81417 -12.28098,5.3235 -22.48059,5.27346 -10.0355,-0.0492 -16.18718,-1.01663 -20.54711,-3.23121 l -2.73979,-1.39164 -2.22886,3.07686 c -2.29446,3.1674 -3.32417,3.70684 -4.24177,2.22214 z"
         style="fill:#ffffff;fill-opacity:1;stroke:none;stroke-width:0.79418623"
         sodipodi:nodetypes="sssssscsssscsssssssssssssssssssssss" />
      <path
         sodipodi:nodetypes="sssssscsssscsssssssssssssssssssssssssssscssssssssssssssssssssssssssssscssssssscsscsssssssscsssss"
         style="fill:#000000;stroke-width:0.79418623"
         d="m 369.42581,832.08602 c -0.29054,-0.4701 0.56581,-2.21612 1.90299,-3.88006 l 2.43124,-3.02535 -1.61243,-1.45922 c -1.58277,-1.4324 -1.66363,-1.39756 -4.39828,1.89459 -1.53223,1.8446 -3.11361,3.35382 -3.51419,3.35382 -1.46078,0 -0.66565,-2.05448 1.91907,-4.95857 l 2.64615,-2.9731 -2.34376,-4.7287 c -3.21202,-6.48047 -4.35434,-16.02475 -3.10338,-25.92927 1.55651,-12.32365 8.11232,-30.50456 10.99956,-30.50456 0.77844,0 4.1362,2.76972 7.46169,6.15494 l 6.04636,6.15494 12.24422,-0.28084 12.24422,-0.28084 3.97093,-5.0217 c 7.94791,-10.05104 9.65282,-9.25943 15.44611,7.17176 4.99025,14.15359 5.75479,32.13636 1.71355,40.30444 l -1.61272,3.25959 2.94805,2.60616 c 1.62142,1.43338 3.21608,2.62102 3.54368,2.6392 0.3276,0.0182 0.59564,0.54804 0.59564,1.17746 0,2.46822 -1.86619,2.0632 -4.86279,-1.05539 -1.72593,-1.79616 -3.42677,-3.26576 -3.77966,-3.26576 -0.35288,0 -1.29557,0.72263 -2.09485,1.60582 -1.41924,1.56824 -1.39423,1.66672 1.06819,4.20729 2.87053,2.96164 3.2133,4.51131 0.99783,4.51131 -0.88457,0 -2.24412,-1.16583 -3.24151,-2.77965 -0.94486,-1.52881 -1.87513,-2.77965 -2.06727,-2.77965 -0.19214,0 -1.68187,0.86928 -3.31052,1.93173 -5.84678,3.81417 -12.28098,5.3235 -22.48059,5.27346 -10.0355,-0.0492 -16.18718,-1.01663 -20.54711,-3.23121 l -2.73979,-1.39164 -2.22886,3.07686 c -2.29446,3.1674 -3.32417,3.70684 -4.24177,2.22214 z m 41.09745,-4.80338 c 22.935,-4.8663 29.42388,-27.49002 16.649,-58.04736 -1.60061,-3.82862 -3.16301,-6.96473 -3.47201,-6.96913 -0.6697,-0.01 -8.70771,9.96671 -10.02973,12.44823 -0.50829,0.95409 -0.92416,3.4656 -0.92416,5.58113 0,4.26098 -1.66031,7.3766 -3.93099,7.3766 -1.93925,0 -2.4225,-1.51799 -2.4225,-7.60972 0,-4.87522 -0.0845,-5.09725 -1.93925,-5.09725 -1.90711,0 -1.93214,0.0889 -1.50982,5.36075 0.48647,6.07283 -0.53789,9.72878 -2.72592,9.72878 -2.69062,0 -3.35524,-1.68327 -3.35524,-8.49779 0,-6.50174 -0.0271,-6.59174 -1.98546,-6.59174 -1.88002,0 -1.98547,0.23477 -1.98547,4.42023 0,5.02077 -1.00483,7.49256 -3.04585,7.49256 -2.42802,0 -3.30764,-1.75417 -3.30764,-6.59623 0,-3.87991 -0.35648,-5.12159 -2.06345,-7.18738 -3.47779,-4.20885 -9.17534,-10.04198 -9.80858,-10.04198 -0.94039,0 -7.04597,18.85748 -8.05194,24.86891 -0.49805,2.97625 -0.75364,8.87308 -0.56798,13.10407 0.28257,6.43934 0.6991,8.40442 2.55648,12.06075 4.04503,7.96286 8.81773,11.68859 17.74494,13.85233 5.61653,1.3613 18.51642,1.54499 24.17557,0.34424 z m -16.04318,-7.31178 c 0,-0.58139 0.89977,-1.53862 1.99948,-2.12717 2.76843,-1.48161 3.79373,-5.49007 1.87857,-7.34441 -1.7547,-1.69898 -1.16657,-3.61966 1.29779,-4.23817 2.17088,-0.54486 5.14858,0.86624 5.14858,2.43985 0,0.61506 -0.7456,1.64053 -1.65688,2.27882 -2.02465,1.41813 -1.24638,3.34467 2.55204,6.31739 2.45755,1.92332 2.56082,3.73077 0.21315,3.73077 -0.64928,0 -2.05772,-0.87722 -3.12987,-1.94937 l -1.94937,-1.94937 -1.94937,1.94937 c -2.11758,2.11758 -4.40412,2.58085 -4.40412,0.89229 z m -13.3545,-10.05313 c -3.49465,-0.82714 -6.32291,-3.60057 -7.42586,-7.28186 -1.44764,-4.8318 -0.40805,-5.43352 9.38741,-5.43352 13.48306,0 16.86342,2.69522 11.19441,8.9255 -3.68705,4.05208 -7.45825,5.13846 -13.15596,3.78988 z m 9.32216,-3.88168 c 3.91801,-2.78702 4.29148,-6.45114 0.65754,-6.45114 -1.31099,0 -2.09353,0.68154 -2.73559,2.38256 -0.6879,1.82246 -1.39454,2.38256 -3.00598,2.38256 -3.10607,0 -5.17898,-1.39755 -5.17898,-3.49165 0,-1.54231 -0.32789,-1.78471 -1.98547,-1.46785 -2.01561,0.38531 -2.50003,1.90027 -1.46778,4.59026 0.28473,0.74199 1.9823,2.01869 3.77239,2.83713 3.62377,1.65681 6.87493,1.40118 9.94387,-0.78187 z m 22.69572,3.90979 c -2.81979,-1.16634 -5.2799,-4.55215 -5.72641,-7.88119 -0.39691,-2.95915 -0.25118,-3.30519 1.70517,-4.04899 1.17655,-0.44732 5.51105,-0.81331 9.63224,-0.81331 6.43416,0 7.71754,0.22447 9.08144,1.58837 5.62349,5.62349 -6.2575,14.64404 -14.69244,11.15512 z m 9.70746,-3.19159 c 2.52679,-1.54064 4.03649,-4.69729 3.02742,-6.33001 -0.97896,-1.584 -3.20562,-0.82758 -4.55754,1.54825 -2.05423,3.61007 -6.98606,2.93374 -6.98606,-0.95805 0,-1.0001 -0.60392,-1.42953 -2.01039,-1.42953 -2.55316,0 -3.36189,2.023 -1.87075,4.67963 2.30317,4.10338 7.90551,5.22848 12.39732,2.48971 z"
         id="path4519"
         inkscape:connector-curvature="0" />
    </g>
  </g>
</svg>
